<?xml version="1.0" encoding="UTF-8" standalone="no"?>
<svg
   width="3412"
   height="2988"
   viewBox="0 0 3412 2988"
   fill="none"
   version="1.1"
   id="svg836"
   sodipodi:docname="logo-orange.svg"
   inkscape:version="1.1 (c4e8f9e, 2021-05-24)"
   xmlns:inkscape="http://www.inkscape.org/namespaces/inkscape"
   xmlns:sodipodi="http://sodipodi.sourceforge.net/DTD/sodipodi-0.dtd"
   xmlns="http://www.w3.org/2000/svg"
   xmlns:svg="http://www.w3.org/2000/svg">
  <defs
     id="defs840" />
  <sodipodi:namedview
     id="namedview838"
     pagecolor="#ffffff"
     bordercolor="#666666"
     borderopacity="1.0"
     inkscape:pageshadow="2"
     inkscape:pageopacity="0.0"
     inkscape:pagecheckerboard="0"
     showgrid="false"
     inkscape:zoom="0.18908969"
     inkscape:cx="1705.5398"
     inkscape:cy="1494"
     inkscape:window-width="1440"
     inkscape:window-height="787"
     inkscape:window-x="0"
     inkscape:window-y="25"
     inkscape:window-maximized="1"
     inkscape:current-layer="svg836" />
  <path
     d="M1901.77 979.623C1930.95 979.623 1955.15 955.109 1955.15 925.548C1955.15 895.987 1930.95 871.474 1901.77 871.474C1872.59 871.474 1848.39 895.987 1848.39 925.548C1848.39 955.109 1872.59 979.623 1901.77 979.623Z"
     fill="white"
     id="path824" />
  <path
     d="M1455.71 526.833C1426.53 526.833 1402.33 551.347 1402.33 580.908C1402.33 610.469 1426.53 634.982 1455.71 634.982C1484.89 634.982 1509.09 610.469 1509.09 580.908C1509.09 551.347 1485.6 526.833 1455.71 526.833Z"
     fill="white"
     id="path826" />
  <path
     d="M1236.46 820.06C1241.5 842.245 1247.95 863.658 1255.81 885.02L1256.6 887.157C1281.77 955.516 1323.14 1018.97 1376.95 1071.16C1408.64 1101.77 1443 1127.23 1479.31 1147.58C1436.89 1197.43 1392.4 1228.6 1345.81 1240.36C1345.81 1240.36 1366.01 1234.93 1326.04 1245.4C1286.07 1255.86 1419.48 1335.32 1444.51 1314.03C1469.55 1292.75 1538.96 1245.01 1581.18 1189.39C1692 1222.23 1813.53 1215 1918.77 1169.4C2005.74 1130.95 2078.24 1065.59 2114.19 993.605C2140.12 940.735 2143.78 882.167 2124.3 833.805C2106.38 789.716 2068.09 753.568 2019 734.399C1987.22 721.826 1954.28 716.51 1920.85 717.704C1879.6 719.177 1837.98 730.763 1796.74 753.158C1740.11 783.317 1684.91 834.346 1642.18 895.752C1616.38 932.024 1594.24 971.051 1572.73 1007.89C1562.66 1025.57 1552.57 1042.52 1542.48 1059.47C1494.58 1033.77 1452.05 998.494 1418.51 955.683C1399.11 930.404 1382.49 902.862 1369.39 874.471C1366.32 868.088 1361.17 863.222 1353.98 861.314C1341.05 858.169 1328.78 853.557 1316.49 848.224C1294.09 838.924 1274.38 825.199 1257.45 809.211C1247.19 800.92 1233.92 808.608 1236.46 820.06ZM1661.46 1061C1682.97 1024.15 1702.42 989.552 1725.5 956.985C1842.91 790.467 1957.33 824.617 1979.71 833.197C2001.37 841.802 2018.28 857.07 2025.28 874.135C2033.07 893.335 2030.45 920.123 2018.52 945.799C1993.88 995.016 1939.32 1043.86 1875.47 1071.39C1831.98 1090.26 1783.93 1101.35 1734.86 1103.1C1703.56 1104.22 1672.14 1101.74 1641.3 1095.62C1648.72 1083.81 1655.44 1072.03 1661.46 1061Z"
     fill="white"
     id="path828"
     style="fill:#f07167;fill-opacity:1" />
  <path
     d="M2134.77 689.21C2129.95 666.974 2123.72 645.495 2116.07 624.052L2115.31 621.908C2090.83 553.291 2050.1 489.413 1996.83 436.671C1965.45 405.732 1931.35 379.91 1895.24 359.188C1938.16 309.779 1982.97 279.074 2029.68 267.794C2029.68 267.794 2009.42 273.014 2049.49 262.965C2089.57 252.916 1956.97 172.082 1931.72 193.105C1906.47 214.128 1836.58 261.146 1793.8 316.321C1683.32 282.337 1561.72 288.302 1456.03 332.81C1368.68 370.362 1295.52 434.962 1258.84 506.571C1232.37 559.169 1228.12 617.695 1247.12 666.257C1264.59 710.53 1302.51 747.073 1351.41 766.75C1383.05 779.652 1415.94 785.31 1449.38 784.462C1490.65 783.417 1532.38 772.263 1573.84 750.298C1630.78 720.728 1686.49 670.274 1729.84 609.314C1756 573.312 1778.54 534.516 1800.42 497.901C1810.66 480.332 1820.92 463.484 1831.19 446.636C1878.82 472.836 1921 508.55 1954.1 551.706C1973.24 577.185 1989.59 604.898 2002.39 633.423C2005.4 639.838 2010.5 644.757 2017.67 646.739C2030.57 650.018 2042.79 654.757 2055.03 660.217C2077.33 669.749 2096.9 683.678 2113.67 699.841C2123.85 708.238 2137.19 700.688 2134.77 689.21ZM1712.22 443.88C1690.35 480.495 1670.55 514.894 1647.14 547.22C1528.05 712.511 1413.98 677.176 1391.69 668.365C1370.12 659.535 1353.36 644.093 1346.53 626.957C1338.94 607.676 1341.84 580.917 1354.02 555.366C1379.15 506.408 1434.21 458.134 1498.33 431.267C1542.02 412.851 1590.17 402.256 1639.26 401.012C1670.57 400.219 1701.96 403.03 1732.73 409.463C1725.19 421.193 1718.36 432.906 1712.22 443.88Z"
     fill="white"
     id="path830"
     style="fill:#f07167;fill-opacity:1" />
  <path
     d="M588.9 1563.55C664.8 1563.55 721.15 1586.93 757.95 1633.7C794.75 1679.7 813.15 1744.1 813.15 1826.9V2142H693.55V1831.5C693.55 1774 683.2 1732.22 662.5 1706.15C641.8 1679.32 607.683 1665.9 560.15 1665.9C531.017 1665.9 504.95 1671.27 481.95 1682C458.95 1692.73 440.167 1708.45 425.6 1729.15V2142H306V1573.9H408.35L415.25 1625.65C466.617 1584.25 524.5 1563.55 588.9 1563.55ZM1252.06 2153.5C1186.9 2153.5 1130.93 2140.08 1084.16 2113.25C1038.16 2086.42 1003.28 2050.38 979.514 2005.15C956.514 1959.92 945.014 1909.32 945.014 1853.35C945.014 1800.45 955.747 1752.15 977.214 1708.45C999.447 1663.98 1031.26 1628.72 1072.66 1602.65C1114.83 1576.58 1164.66 1563.55 1222.16 1563.55C1297.3 1563.55 1357.1 1585.78 1401.56 1630.25C1446.03 1673.95 1468.26 1732.6 1468.26 1806.2C1468.26 1826.13 1465.96 1847.6 1461.36 1870.6H1068.06C1075.73 1934.23 1096.81 1980.23 1131.31 2008.6C1166.58 2036.97 1211.05 2051.15 1264.71 2051.15C1325.28 2051.15 1380.86 2038.12 1431.46 2012.05L1442.96 2109.8C1381.63 2138.93 1318 2153.5 1252.06 2153.5ZM1345.21 1788.95C1345.21 1752.92 1334.86 1723.4 1314.16 1700.4C1293.46 1677.4 1262.41 1665.9 1221.01 1665.9C1143.58 1665.9 1094.9 1706.92 1074.96 1788.95H1345.21ZM2255.66 1563.55C2329.26 1563.55 2384.46 1585.02 2421.26 1627.95C2458.06 1670.88 2476.46 1733.37 2476.46 1815.4V2142H2355.71V1820C2355.71 1766.33 2346.13 1727.23 2326.96 1702.7C2307.8 1678.17 2276.75 1665.9 2233.81 1665.9C2144.88 1665.9 2100.41 1716.88 2100.41 1818.85V2142H1979.66V1831.5C1979.66 1771.7 1969.31 1729.15 1948.61 1703.85C1927.91 1678.55 1897.25 1665.9 1856.61 1665.9C1797.58 1665.9 1753.11 1686.6 1723.21 1728V2142H1603.61V1573.9H1701.36L1710.56 1627.95C1762.7 1585.02 1820.58 1563.55 1884.21 1563.55C1965.48 1563.55 2023.75 1596.13 2059.01 1661.3C2100.41 1596.13 2165.96 1563.55 2255.66 1563.55ZM2895.09 2153.5C2836.06 2153.5 2784.69 2140.47 2740.99 2114.4C2698.06 2087.57 2665.09 2051.92 2642.09 2007.45C2619.86 1962.22 2608.74 1912.38 2608.74 1857.95C2608.74 1803.52 2619.86 1754.07 2642.09 1709.6C2665.09 1664.37 2698.06 1628.72 2740.99 1602.65C2784.69 1575.82 2836.06 1562.4 2895.09 1562.4C2953.36 1562.4 3003.96 1575.82 3046.89 1602.65C3090.59 1628.72 3123.94 1664.37 3146.94 1709.6C3169.94 1754.07 3181.44 1803.52 3181.44 1857.95C3181.44 1912.38 3169.94 1962.22 3146.94 2007.45C3123.94 2051.92 3090.59 2087.57 3046.89 2114.4C3003.96 2140.47 2953.36 2153.5 2895.09 2153.5ZM2895.09 2051.15C2947.22 2051.15 2987.47 2033.9 3015.84 1999.4C3044.21 1964.9 3058.39 1917.75 3058.39 1857.95C3058.39 1798.15 3044.21 1751 3015.84 1716.5C2987.47 1682 2947.22 1664.75 2895.09 1664.75C2842.96 1664.75 2802.71 1682 2774.34 1716.5C2745.97 1751 2731.79 1798.15 2731.79 1857.95C2731.79 1917.75 2745.97 1964.9 2774.34 1999.4C2802.71 2033.9 2842.96 2051.15 2895.09 2051.15Z"
     fill="white"
     id="path832"
     style="fill:#f07167;fill-opacity:1" />
</svg>
