<?xml version="1.0" encoding="UTF-8" standalone="no"?>
<!-- Generator: Adobe Illustrator 24.1.0, SVG Export Plug-In . SVG Version: 6.00 Build 0)  -->

<svg
   version="1.1"
   id="Layer_1"
   x="0px"
   y="0px"
   viewBox="0 0 600 600"
   xml:space="preserve"
   width="600"
   height="600"
   xmlns="http://www.w3.org/2000/svg"
   xmlns:svg="http://www.w3.org/2000/svg"><defs
   id="defs429">
	
	
	

		
		
		
		
		
		
		
		
		
		
		
		
		
		
		
		
		
		
		
		
	
		
		
		
		
		
	</defs>
<style
   type="text/css"
   id="style2">
	.st0{fill:#1AAFB8;}
	.st1{fill:#FDFCDE;}
	.st2{fill:#FDD9B9;}
	.st3{fill:#ED726A;}
	.st4{fill-rule:evenodd;clip-rule:evenodd;fill:#FFFFFF;stroke:#0785DF;stroke-miterlimit:10;}
	.st5{fill-rule:evenodd;clip-rule:evenodd;fill:#FFFFFF;stroke:#ED726A;stroke-miterlimit:10;}
	.st6{fill-rule:evenodd;clip-rule:evenodd;fill:#FFFFFF;stroke:#1AAFB8;stroke-miterlimit:10;}
	.st7{fill:none;stroke:#0785DF;stroke-width:6.7816;stroke-miterlimit:10;}
	.st8{fill:#0785DF;}
	.st9{fill:none;stroke:#0785DF;stroke-width:6.3446;stroke-miterlimit:10;}
	.st10{fill:#0785DF;stroke:#0785DF;stroke-width:2.448;stroke-miterlimit:10;}
	.st11{fill:none;stroke:#0785DF;stroke-width:6.25;stroke-miterlimit:10;}
	.st12{fill:none;stroke:#1AAFB8;stroke-width:6.3328;stroke-miterlimit:10;}
	.st13{fill:none;stroke:#1AAFB8;stroke-width:6.7816;stroke-miterlimit:10;}
	.st14{fill:none;stroke:#1AAFB8;stroke-width:7;stroke-miterlimit:10;}
	.st15{fill:none;stroke:#ED726A;stroke-width:6;stroke-miterlimit:10;}
	.st16{fill:none;stroke:#0785DF;stroke-width:6;stroke-miterlimit:10;}
	.st17{fill:none;stroke:#1AAFB8;stroke-width:6.6637;stroke-miterlimit:10;}
	.st18{fill:none;stroke:#ED726A;stroke-width:6.4437;stroke-miterlimit:10;}
	.st19{fill:none;stroke:#0785DF;stroke-width:5.2549;stroke-miterlimit:10;}
	.st20{fill:none;stroke:#0785DF;stroke-width:5;stroke-miterlimit:10;}
	.st21{fill:none;stroke:#0785DF;stroke-width:5.072;stroke-miterlimit:10;}
	.st22{fill:none;stroke:#ED726A;stroke-width:7;stroke-miterlimit:10;}
	.st23{fill:none;stroke:#ED726A;stroke-width:6.5513;stroke-miterlimit:10;}
	.st24{fill:none;stroke:#ED726A;stroke-width:6.3434;stroke-miterlimit:10;}
	.st25{fill-rule:evenodd;clip-rule:evenodd;fill:none;stroke:#1AAFB8;stroke-width:6.4563;stroke-miterlimit:10;}
	.st26{fill:none;stroke:#ED726A;stroke-width:8;stroke-miterlimit:10;}
	.st27{fill:#FFFFFF;}
</style>

<g
   id="g2950"
   transform="matrix(4.5045046,0,0,4.5045046,-2222.5226,-2653.6037)"><circle
     class="st4"
     cx="560"
     cy="655.70001"
     r="66.099998"
     id="circle18" /><path
     class="st10"
     d="m 587.4,626.3 c -0.4,-0.1 -0.8,-0.1 -1.3,-0.1 -1.4,0 -2.7,0.4 -3.8,1 -0.2,-0.8 -0.6,-1.6 -1.2,-2.3 -1.2,-1.6 -3,-2.6 -5.1,-2.9 -0.5,-0.1 -0.9,-0.1 -1.4,-0.1 -1.8,0 -3.4,0.5 -4.7,1.4 -1,-2.6 -3.4,-4.6 -6.5,-5.1 -3.1,-0.5 -6.2,0.6 -8.1,2.7 -0.1,-0.1 -0.1,-0.1 -0.2,-0.2 -1.2,-1.6 -3,-2.6 -5.1,-2.9 -2.1,-0.3 -4.2,0.1 -5.9,1.2 -1.7,1.1 -2.9,2.7 -3.2,4.6 0,0 -2.9,14.8 -2.9,14.9 l -8.7,7.9 c -3.6,3.3 -3.6,8.7 0,12 0,0 12.4,11.3 12.5,11.4 V 693 c 0,0.8 0.7,1.4 1.6,1.4 H 581 c 0.9,0 1.6,-0.6 1.6,-1.4 v -22 l 0.8,-0.7 c 6,-5.4 8.3,-13.2 6.2,-20.6 0.6,-0.8 1,-1.6 1.2,-2.6 l 2.5,-13.1 c 0.7,-3.6 -2,-7 -5.9,-7.7 z m -17.4,2 c 0.4,-2 2.3,-3.5 4.6,-3.5 0.3,0 0.6,0 0.8,0.1 1.2,0.2 2.3,0.8 3,1.8 0.7,0.9 1,2.1 0.8,3.2 l -2.8,14.4 c -0.4,2 -2.3,3.5 -4.6,3.5 -0.3,0 -0.6,0 -0.8,-0.1 -1.2,-0.2 -2.3,-0.8 -3,-1.8 -0.7,-0.9 -1,-2.1 -0.8,-3.2 z M 556.7,625 c 0.5,-2.6 3.3,-4.4 6.1,-3.9 2.9,0.5 4.8,3 4.3,5.6 l -3.1,15.8 c -0.3,1.4 -1.3,2.7 -2.7,3.4 l -7.4,-6.7 z m -12.6,-0.8 c 0.2,-1.1 0.9,-2.1 1.9,-2.8 1,-0.7 2.3,-0.9 3.5,-0.7 1.2,0.2 2.3,0.8 3,1.8 0.7,0.9 1,2.1 0.8,3.2 l -2.2,11.1 c -2.8,-1.8 -6.4,-2.1 -9.4,-0.8 z m 37.1,44 -1.3,1.2 c -0.3,0.3 -0.5,0.6 -0.5,1 v 21.3 h -34.3 v -22.5 c 0,-0.5 -0.2,-0.9 -0.6,-1.2 -0.3,-0.2 -12.8,-11.6 -12.8,-11.6 -2.4,-2.2 -2.4,-5.7 0,-7.9 l 9.8,-8.9 c 2.4,-2.2 6.3,-2.2 8.7,0 0,0 12.9,11.7 13.2,12 1.3,1.2 2.7,2.4 2.7,3.1 0,0.3 -0.3,0.8 -0.8,1.3 -4.4,4 -9.7,0.7 -18.6,-5.4 -0.7,-0.5 -1.7,-0.4 -2.2,0.3 -0.5,0.6 -0.4,1.5 0.3,2 5.7,3.9 11.3,7.7 16.3,7.7 0.3,0 0.5,0 0.8,0 1.6,4.1 1.1,8.6 -1.4,12.4 -0.5,0.7 -0.2,1.6 0.5,2 0.3,0.1 0.5,0.2 0.8,0.2 0.5,0 1.1,-0.2 1.4,-0.7 2.9,-4.4 3.5,-9.8 1.7,-14.7 0.9,-0.4 1.8,-1 2.6,-1.8 1.2,-1.1 1.8,-2.2 1.8,-3.3 0,-2 -1.8,-3.5 -3.6,-5.2 -0.3,-0.3 -1.8,-1.6 -1.8,-1.6 0.5,-0.3 0.9,-0.6 1.3,-1 0.1,0.2 0.3,0.4 0.4,0.7 1.2,1.6 3,2.6 5.1,2.9 0.5,0.1 0.9,0.1 1.4,0.1 2,0 3.8,-0.7 5.2,-1.8 0.2,0.3 0.3,0.6 0.5,0.8 1.1,1.4 2.8,2.4 4.7,2.7 0.4,0.1 0.9,0.1 1.3,0.1 1.2,0 2.3,-0.3 3.3,-0.7 0.9,6 -1.2,12.2 -5.9,16.5 z m 9,-34.7 -2.5,13.1 c -0.3,1.8 -2,3.1 -4,3.1 -0.2,0 -0.5,0 -0.7,-0.1 -1.1,-0.2 -2,-0.7 -2.7,-1.5 -0.6,-0.8 -0.9,-1.8 -0.7,-2.8 l 2.5,-13.1 c 0.3,-1.8 2,-3.1 4,-3.1 0.2,0 0.5,0 0.7,0.1 2.3,0.3 3.8,2.3 3.4,4.3 z"
     id="path86" /></g>

</svg>
