<?xml version="1.0" encoding="UTF-8" standalone="no"?>
<svg
   width="242.2"
   height="249.8"
   viewBox="0 0 242.2 249.8"
   fill="none"
   version="1.1"
   id="svg1052"
   sodipodi:docname="activist.svg"
   inkscape:version="1.1 (c4e8f9e, 2021-05-24)"
   xmlns:inkscape="http://www.inkscape.org/namespaces/inkscape"
   xmlns:sodipodi="http://sodipodi.sourceforge.net/DTD/sodipodi-0.dtd"
   xmlns="http://www.w3.org/2000/svg"
   xmlns:svg="http://www.w3.org/2000/svg">
  <defs
     id="defs1056" />
  <sodipodi:namedview
     id="namedview1054"
     pagecolor="#ffffff"
     bordercolor="#666666"
     borderopacity="1.0"
     inkscape:pageshadow="2"
     inkscape:pageopacity="0.0"
     inkscape:pagecheckerboard="0"
     showgrid="false"
     inkscape:zoom="0.32574648"
     inkscape:cx="704.53563"
     inkscape:cy="70.607057"
     inkscape:window-width="1440"
     inkscape:window-height="792"
     inkscape:window-x="0"
     inkscape:window-y="25"
     inkscape:window-maximized="1"
     inkscape:current-layer="svg1052" />
  <path
     d="m 121.1,249.3 c 66.6,0 120.6,-55.7 120.6,-124.4 C 241.7,56.2 187.7,0.5 121.1,0.5 54.5,0.5 0.5,56.2 0.5,124.9 c 0,68.7 54,124.4 120.6,124.4 z"
     fill="#ffffff"
     stroke="#0785df"
     stroke-miterlimit="10"
     id="path830" />
  <path
     d="m 171.1,69.6 c -0.7,-0.2 -1.5,-0.2 -2.4,-0.2 -2.6,0 -4.9,0.8 -6.9,1.9 -0.4,-1.5 -1.1,-3 -2.2,-4.3 -2.2,-3 -5.5,-4.9 -9.3,-5.5 -0.9,-0.2 -1.6,-0.2 -2.6,-0.2 -3.3,0 -6.2,0.9 -8.6,2.6 -1.8,-4.9 -6.2,-8.7 -11.9,-9.6 -5.7,-0.9 -11.3,1.1 -14.8,5.1 -0.2,-0.2 -0.2,-0.2 -0.4,-0.4 -2.2,-3 -5.5,-4.9 -9.3,-5.5 -3.8,-0.6 -7.7,0.2 -10.8,2.3 -3.1,2.1 -5.3,5.1 -5.8,8.7 0,0 -5.3,27.8 -5.3,28 l -15.9,14.9 c -6.6,6.2 -6.6,16.4 0,22.6 0,0 22.6,21.3 22.8,21.5 v 43.7 c 0,1.5 1.3,2.6 2.9,2.6 h 68.6 c 1.6,0 2.9,-1.1 2.9,-2.6 v -41.4 l 1.5,-1.3 c 10.9,-10.2 15.1,-24.8 11.3,-38.8 1.1,-1.5 1.8,-3 2.2,-4.9 l 4.6,-24.7 c 1.5,-6.8 -3.4,-13.2 -10.6,-14.5 z m -31.7,3.7 c 0.7,-3.8 4.2,-6.6 8.4,-6.6 0.5,0 1.1,0 1.5,0.2 2.2,0.4 4.2,1.5 5.5,3.4 1.3,1.7 1.8,4 1.5,6 l -5.1,27.1 c -0.7,3.8 -4.2,6.6 -8.4,6.6 -0.5,0 -1.1,0 -1.5,-0.2 -2.2,-0.4 -4.2,-1.5 -5.5,-3.4 -1.3,-1.7 -1.8,-4 -1.5,-6 z m -24.3,-6.2 c 0.9,-4.9 6,-8.3 11.1,-7.3 5.3,0.9 8.8,5.6 7.8,10.5 l -5.7,29.7 c -0.5,2.6 -2.4,5.1 -4.9,6.4 L 109.9,93.8 Z m -23,-1.5 c 0.4,-2.1 1.6,-4 3.5,-5.3 1.8,-1.3 4.2,-1.7 6.4,-1.3 2.2,0.4 4.2,1.5 5.5,3.4 1.3,1.7 1.8,4 1.5,6 l -4,20.9 c -5.1,-3.4 -11.7,-4 -17.2,-1.5 z m 67.7,82.8 -2.4,2.3 c -0.5,0.6 -0.9,1.1 -0.9,1.9 v 40.1 H 93.9 v -42.3 c 0,-0.9 -0.4,-1.7 -1.1,-2.3 -0.5,-0.4 -23.4,-21.8 -23.4,-21.8 -4.4,-4.1 -4.4,-10.7 0,-14.9 L 87.3,94.7 c 4.4,-4.1 11.5,-4.1 15.9,0 0,0 23.5,22 24.1,22.6 2.4,2.3 4.9,4.5 4.9,5.8 0,0.6 -0.5,1.5 -1.5,2.4 -8,7.5 -17.7,1.3 -33.9,-10.2 -1.3,-0.9 -3.1,-0.8 -4,0.6 -0.9,1.1 -0.7,2.8 0.5,3.8 10.4,7.3 20.6,14.5 29.7,14.5 0.5,0 0.9,0 1.5,0 2.9,7.7 2,16.2 -2.6,23.3 -0.9,1.3 -0.4,3 0.9,3.8 0.5,0.2 0.9,0.4 1.5,0.4 0.9,0 2,-0.4 2.6,-1.3 5.3,-8.3 6.4,-18.4 3.1,-27.7 1.6,-0.8 3.3,-1.9 4.7,-3.4 2.2,-2.1 3.3,-4.1 3.3,-6.2 0,-3.8 -3.3,-6.6 -6.6,-9.8 -0.5,-0.6 -3.3,-3 -3.3,-3 0.9,-0.6 1.6,-1.1 2.4,-1.9 0.2,0.4 0.5,0.8 0.7,1.3 2.2,3 5.5,4.9 9.3,5.5 0.9,0.2 1.6,0.2 2.6,0.2 3.6,0 6.9,-1.3 9.5,-3.4 0.4,0.6 0.5,1.1 0.9,1.5 2,2.6 5.1,4.5 8.6,5.1 0.7,0.2 1.6,0.2 2.4,0.2 2.2,0 4.2,-0.6 6,-1.3 1.7,11.1 -2.1,22.8 -10.7,30.9 z m 16.4,-65.3 -4.6,24.7 c -0.5,3.4 -3.7,5.8 -7.3,5.8 -0.4,0 -0.9,0 -1.3,-0.2 -2,-0.4 -3.6,-1.3 -4.9,-2.8 -1.1,-1.5 -1.6,-3.4 -1.3,-5.3 l 4.6,-24.7 c 0.5,-3.4 3.6,-5.8 7.3,-5.8 0.4,0 0.9,0 1.3,0.2 4.2,0.6 7,4.3 6.2,8.1 z"
     fill="#0785df"
     stroke="#0785df"
     stroke-width="2.448"
     stroke-miterlimit="10"
     id="path886" />
</svg>
