<?xml version="1.0" encoding="UTF-8" standalone="no"?>
<svg
   width="246.86929"
   height="254.46928"
   viewBox="0 0 246.8693 254.46928"
   fill="none"
   version="1.1"
   id="svg1052"
   sodipodi:docname="astrologist.svg"
   inkscape:version="1.1 (c4e8f9e, 2021-05-24)"
   xmlns:inkscape="http://www.inkscape.org/namespaces/inkscape"
   xmlns:sodipodi="http://sodipodi.sourceforge.net/DTD/sodipodi-0.dtd"
   xmlns="http://www.w3.org/2000/svg"
   xmlns:svg="http://www.w3.org/2000/svg">
  <defs
     id="defs1056" />
  <sodipodi:namedview
     id="namedview1054"
     pagecolor="#ffffff"
     bordercolor="#666666"
     borderopacity="1.0"
     inkscape:pageshadow="2"
     inkscape:pageopacity="0.0"
     inkscape:pagecheckerboard="0"
     showgrid="false"
     inkscape:zoom="0.32574648"
     inkscape:cx="-216.42598"
     inkscape:cy="-56.792632"
     inkscape:window-width="1440"
     inkscape:window-height="791"
     inkscape:window-x="0"
     inkscape:window-y="25"
     inkscape:window-maximized="1"
     inkscape:current-layer="svg1052" />
  <path
     d="m 123.43465,251.63465 c 66.6,0 120.6,-55.7 120.6,-124.4 0,-68.700004 -54,-124.4000043 -120.6,-124.4000043 -66.600004,0 -120.6000043,55.7000003 -120.6000043,124.4000043 0,68.7 53.9000003,124.4 120.6000043,124.4 z"
     fill="#ffffff"
     stroke="#ed726a"
     stroke-miterlimit="10"
     id="path864"
     style="stroke-width:5.66929;stroke-miterlimit:10;stroke-dasharray:none" />
  <path
     d="m 118.33465,60.934646 c 20.1,-4.1 40.9,6.6 49.3,26.9 9.5,23.100004 -0.9,49.900004 -23.4,59.700004 -22.4,9.8 -48.400004,-0.9 -57.800004,-24.1 -8,-19.6 -1.8,-41.800004 14.100004,-54.000004"
     stroke="#ed726a"
     stroke-width="8"
     stroke-miterlimit="10"
     id="path1012" />
  <path
     d="m 127.03465,196.03465 v -45"
     stroke="#ed726a"
     stroke-width="8"
     stroke-miterlimit="10"
     id="path1014" />
  <path
     d="M 95.834646,173.83465 H 158.23465"
     stroke="#ed726a"
     stroke-width="8"
     stroke-miterlimit="10"
     id="path1016" />
</svg>
