<?xml version="1.0" encoding="UTF-8" standalone="no"?>
<svg
   width="242.2"
   height="249.8"
   viewBox="0 0 242.2 249.8"
   fill="none"
   version="1.1"
   id="svg1052"
   sodipodi:docname="astrologist.svg"
   inkscape:version="1.1 (c4e8f9e, 2021-05-24)"
   xmlns:inkscape="http://www.inkscape.org/namespaces/inkscape"
   xmlns:sodipodi="http://sodipodi.sourceforge.net/DTD/sodipodi-0.dtd"
   xmlns="http://www.w3.org/2000/svg"
   xmlns:svg="http://www.w3.org/2000/svg">
  <defs
     id="defs1056" />
  <sodipodi:namedview
     id="namedview1054"
     pagecolor="#ffffff"
     bordercolor="#666666"
     borderopacity="1.0"
     inkscape:pageshadow="2"
     inkscape:pageopacity="0.0"
     inkscape:pagecheckerboard="0"
     showgrid="false"
     inkscape:zoom="0.32574648"
     inkscape:cx="-219.49585"
     inkscape:cy="-58.327569"
     inkscape:window-width="1440"
     inkscape:window-height="792"
     inkscape:window-x="0"
     inkscape:window-y="25"
     inkscape:window-maximized="1"
     inkscape:current-layer="svg1052" />
  <path
     d="m 121.1,249.3 c 66.6,0 120.6,-55.7 120.6,-124.4 C 241.7,56.2 187.7,0.5 121.1,0.5 54.5,0.5 0.5,56.2 0.5,124.9 c 0,68.7 53.9,124.4 120.6,124.4 z"
     fill="#ffffff"
     stroke="#ed726a"
     stroke-miterlimit="10"
     id="path864" />
  <path
     d="m 116,58.6 c 20.1,-4.1 40.9,6.6 49.3,26.9 9.5,23.1 -0.9,49.9 -23.4,59.7 -22.4,9.8 -48.4,-0.9 -57.8,-24.1 -8,-19.6 -1.8,-41.8 14.1,-54"
     stroke="#ed726a"
     stroke-width="8"
     stroke-miterlimit="10"
     id="path1012" />
  <path
     d="m 124.7,193.7 v -45"
     stroke="#ed726a"
     stroke-width="8"
     stroke-miterlimit="10"
     id="path1014" />
  <path
     d="m 93.5,171.5 h 62.4"
     stroke="#ed726a"
     stroke-width="8"
     stroke-miterlimit="10"
     id="path1016" />
</svg>
