<?xml version="1.0" encoding="UTF-8" standalone="no"?>
<svg
   width="242.20013"
   height="249.8"
   viewBox="0 0 242.20013 249.8"
   fill="none"
   version="1.1"
   id="svg1052"
   sodipodi:docname="bookworm.svg"
   inkscape:version="1.1 (c4e8f9e, 2021-05-24)"
   xmlns:inkscape="http://www.inkscape.org/namespaces/inkscape"
   xmlns:sodipodi="http://sodipodi.sourceforge.net/DTD/sodipodi-0.dtd"
   xmlns="http://www.w3.org/2000/svg"
   xmlns:svg="http://www.w3.org/2000/svg">
  <defs
     id="defs1056" />
  <sodipodi:namedview
     id="namedview1054"
     pagecolor="#ffffff"
     bordercolor="#666666"
     borderopacity="1.0"
     inkscape:pageshadow="2"
     inkscape:pageopacity="0.0"
     inkscape:pagecheckerboard="0"
     showgrid="false"
     inkscape:zoom="0.32574648"
     inkscape:cx="-379.1292"
     inkscape:cy="144.28399"
     inkscape:window-width="1440"
     inkscape:window-height="792"
     inkscape:window-x="0"
     inkscape:window-y="25"
     inkscape:window-maximized="1"
     inkscape:current-layer="svg1052" />
  <path
     d="m 121.10014,249.3 c 66.6,0 120.6,-55.7 120.6,-124.4 0,-68.7 -54,-124.4 -120.6,-124.4 C 54.500139,0.5 0.50013862,56.2 0.50013862,124.9 c -0.1,68.7 53.90000038,124.4 120.60000138,124.4 z"
     fill="#ffffff"
     stroke="#ed726a"
     stroke-miterlimit="10"
     id="path846" />
  <path
     d="m 63.000139,152.9 -8.4,19.4 H 162.80014 l -5.8,-19.4"
     stroke="#ed726a"
     stroke-width="6.5513"
     stroke-miterlimit="10"
     id="path994" />
  <path
     d="M 123.20014,95.7 H 77.400139 l -24.8,57.2 H 167.00014 l -13.9,-47"
     stroke="#ed726a"
     stroke-width="6.5513"
     stroke-miterlimit="10"
     id="path996" />
  <path
     d="m 119.60014,135.6 h -13.7 c -7.100001,0 -17.000001,-8.7 -17.000001,-19.4 0,-10.7 9.9,-19.4 17.000001,-19.4 h 13.7 c 3.1,0 6,-2.3 8,-6 l 4.8,-9.6 c 6.8,-13.5 17.3,-21.6 28.5,-21.6 h 11.9 c 7.1,0 17,8.7 17,19.4 0,10.7 -9.9,19.4 -17,19.4 h -12 c -3.1,0 -6,2.3 -8,6 l -4.7,9.6 c -6.8,13.5 -17.4,21.6 -28.5,21.6 z"
     stroke="#ed726a"
     stroke-width="6.5513"
     stroke-miterlimit="10"
     id="path998" />
  <path
     d="m 160.80014,59.4 v 39"
     stroke="#ed726a"
     stroke-width="6.5513"
     stroke-miterlimit="10"
     id="path1000" />
  <path
     d="m 114.70014,98.5 v 36.7"
     stroke="#ed726a"
     stroke-width="6.5513"
     stroke-miterlimit="10"
     id="path1002" />
  <path
     d="m 129.50014,87.1 19.7,24.8"
     stroke="#ed726a"
     stroke-width="6.5513"
     stroke-miterlimit="10"
     id="path1004" />
  <path
     d="M 114.70014,172.1 V 96.6"
     stroke="#ed726a"
     stroke-width="6.5513"
     stroke-miterlimit="10"
     id="path1006" />
</svg>
