<?xml version="1.0" encoding="UTF-8" standalone="no"?>
<svg
   width="246.86943"
   height="254.46928"
   viewBox="0 0 246.86943 254.46928"
   fill="none"
   version="1.1"
   id="svg1052"
   sodipodi:docname="bookworm.svg"
   inkscape:version="1.1 (c4e8f9e, 2021-05-24)"
   xmlns:inkscape="http://www.inkscape.org/namespaces/inkscape"
   xmlns:sodipodi="http://sodipodi.sourceforge.net/DTD/sodipodi-0.dtd"
   xmlns="http://www.w3.org/2000/svg"
   xmlns:svg="http://www.w3.org/2000/svg">
  <defs
     id="defs1056" />
  <sodipodi:namedview
     id="namedview1054"
     pagecolor="#ffffff"
     bordercolor="#666666"
     borderopacity="1.0"
     inkscape:pageshadow="2"
     inkscape:pageopacity="0.0"
     inkscape:pagecheckerboard="0"
     showgrid="false"
     inkscape:zoom="0.32574648"
     inkscape:cx="-376.05932"
     inkscape:cy="147.35386"
     inkscape:window-width="1440"
     inkscape:window-height="792"
     inkscape:window-x="0"
     inkscape:window-y="25"
     inkscape:window-maximized="1"
     inkscape:current-layer="svg1052" />
  <path
     d="m 123.43479,251.63465 c 66.6,0 120.6,-55.7 120.6,-124.4 0,-68.700004 -54,-124.4000043 -120.6,-124.4000043 -66.600005,0 -120.6000058,55.7000003 -120.6000058,124.4000043 -0.1,68.7 53.9000008,124.4 120.6000058,124.4 z"
     fill="#ffffff"
     stroke="#ed726a"
     stroke-miterlimit="10"
     id="path846"
     style="stroke-width:5.66929;stroke-miterlimit:10;stroke-dasharray:none" />
  <path
     d="m 65.334785,155.23465 -8.4,19.4 H 165.13479 l -5.8,-19.4"
     stroke="#ed726a"
     stroke-width="6.5513"
     stroke-miterlimit="10"
     id="path994" />
  <path
     d="M 125.53479,98.034646 H 79.734785 l -24.8,57.200004 H 169.33479 l -13.9,-47"
     stroke="#ed726a"
     stroke-width="6.5513"
     stroke-miterlimit="10"
     id="path996" />
  <path
     d="m 121.93479,137.93465 h -13.7 c -7.10001,0 -17.000005,-8.7 -17.000005,-19.4 0,-10.7 9.899995,-19.400004 17.000005,-19.400004 h 13.7 c 3.1,0 6,-2.3 8,-6 l 4.8,-9.6 c 6.8,-13.5 17.3,-21.6 28.5,-21.6 h 11.9 c 7.1,0 17,8.7 17,19.4 0,10.7 -9.9,19.400004 -17,19.400004 h -12 c -3.1,0 -6,2.3 -8,6 l -4.7,9.6 c -6.8,13.5 -17.4,21.6 -28.5,21.6 z"
     stroke="#ed726a"
     stroke-width="6.5513"
     stroke-miterlimit="10"
     id="path998" />
  <path
     d="M 163.13479,61.734646 V 100.73465"
     stroke="#ed726a"
     stroke-width="6.5513"
     stroke-miterlimit="10"
     id="path1000" />
  <path
     d="m 117.03479,100.83465 v 36.7"
     stroke="#ed726a"
     stroke-width="6.5513"
     stroke-miterlimit="10"
     id="path1002" />
  <path
     d="m 131.83479,89.434646 19.7,24.800004"
     stroke="#ed726a"
     stroke-width="6.5513"
     stroke-miterlimit="10"
     id="path1004" />
  <path
     d="M 117.03479,174.43465 V 98.934646"
     stroke="#ed726a"
     stroke-width="6.5513"
     stroke-miterlimit="10"
     id="path1006" />
</svg>
