<?xml version="1.0" encoding="UTF-8" standalone="no"?>
<svg
   width="242.2"
   height="249.8"
   viewBox="0 0 242.2 249.8"
   fill="none"
   version="1.1"
   id="svg1052"
   sodipodi:docname="cafedweller.svg"
   inkscape:version="1.1 (c4e8f9e, 2021-05-24)"
   xmlns:inkscape="http://www.inkscape.org/namespaces/inkscape"
   xmlns:sodipodi="http://sodipodi.sourceforge.net/DTD/sodipodi-0.dtd"
   xmlns="http://www.w3.org/2000/svg"
   xmlns:svg="http://www.w3.org/2000/svg">
  <defs
     id="defs1056" />
  <sodipodi:namedview
     id="namedview1054"
     pagecolor="#ffffff"
     bordercolor="#666666"
     borderopacity="1.0"
     inkscape:pageshadow="2"
     inkscape:pageopacity="0.0"
     inkscape:pagecheckerboard="0"
     showgrid="false"
     inkscape:zoom="0.32574648"
     inkscape:cx="409.82792"
     inkscape:cy="236.38015"
     inkscape:window-width="1440"
     inkscape:window-height="792"
     inkscape:window-x="0"
     inkscape:window-y="25"
     inkscape:window-maximized="1"
     inkscape:current-layer="svg1052" />
  <path
     d="m 121.1,249.3 c 66.6,0 120.6,-55.7 120.6,-124.4 C 241.7,56.2 187.7,0.5 121.1,0.5 54.5,0.5 0.5,56.2 0.5,124.9 c 0,68.7 54,124.4 120.6,124.4 z"
     fill="#ffffff"
     stroke="#1aafb8"
     stroke-miterlimit="10"
     id="path840" />
  <path
     d="m 164.5,106.3 c 0,37.8 -9.1,70.9 -49.8,70.9 -36.7,0 -49.8,-32.9 -49.8,-70.9 z"
     stroke="#1aafb8"
     stroke-width="6.7816"
     stroke-miterlimit="10"
     id="path914" />
  <path
     d="M 59.9,177.8 H 169.2"
     stroke="#1aafb8"
     stroke-width="6.7816"
     stroke-miterlimit="10"
     id="path916" />
  <path
     d="m 166,123.9 c 10,1.9 17.5,10.9 15.9,18.3 -1.6,8.1 -12.2,16 -24.6,12.4"
     stroke="#1aafb8"
     stroke-width="6.7816"
     stroke-miterlimit="10"
     id="path918" />
  <path
     d="m 114.5,55.8 c 0,6.8 -4.9,14.5 -8.8,18.3 -1.3,1.3 0,0 -1.3,1.3 -3.8,3.6 -7.8,10.4 -7.8,17.3"
     stroke="#1aafb8"
     stroke-width="6.7816"
     stroke-miterlimit="10"
     id="path920" />
  <path
     d="m 141.3,55.8 c 0,6.8 -4.9,14.5 -8.8,18.3 -1.3,1.3 0,0 -1.3,1.3 -3.8,3.6 -7.8,10.4 -7.8,17.3"
     stroke="#1aafb8"
     stroke-width="6.7816"
     stroke-miterlimit="10"
     id="path922" />
</svg>
