<?xml version="1.0" encoding="UTF-8" standalone="no"?>
<!-- Generator: Adobe Illustrator 24.1.0, SVG Export Plug-In . SVG Version: 6.00 Build 0)  -->

<svg
   version="1.1"
   id="Layer_1"
   x="0px"
   y="0px"
   viewBox="0 0 600 600"
   xml:space="preserve"
   sodipodi:docname="casualcupid.svg"
   width="600"
   height="600"
   inkscape:version="1.1 (c4e8f9e, 2021-05-24)"
   xmlns:inkscape="http://www.inkscape.org/namespaces/inkscape"
   xmlns:sodipodi="http://sodipodi.sourceforge.net/DTD/sodipodi-0.dtd"
   xmlns="http://www.w3.org/2000/svg"
   xmlns:svg="http://www.w3.org/2000/svg"><defs
   id="defs429">
	
	
	

		
		
		
		
		
		
		
		
		
		
		
		
		
		
		
	
		
		
		
		
		
		
		
		
		
		
		
		
		
		
		
		
		
		
		
		
	</defs><sodipodi:namedview
   id="namedview427"
   pagecolor="#ffffff"
   bordercolor="#666666"
   borderopacity="1.0"
   inkscape:pageshadow="2"
   inkscape:pageopacity="0.0"
   inkscape:pagecheckerboard="0"
   showgrid="false"
   inkscape:zoom="0.53518519"
   inkscape:cx="228.89273"
   inkscape:cy="394.25606"
   inkscape:window-width="1296"
   inkscape:window-height="806"
   inkscape:window-x="0"
   inkscape:window-y="23"
   inkscape:window-maximized="0"
   inkscape:current-layer="Layer_1" />
<style
   type="text/css"
   id="style2">
	.st0{fill:#1AAFB8;}
	.st1{fill:#FDFCDE;}
	.st2{fill:#FDD9B9;}
	.st3{fill:#ED726A;}
	.st4{fill-rule:evenodd;clip-rule:evenodd;fill:#FFFFFF;stroke:#0785DF;stroke-miterlimit:10;}
	.st5{fill-rule:evenodd;clip-rule:evenodd;fill:#FFFFFF;stroke:#ED726A;stroke-miterlimit:10;}
	.st6{fill-rule:evenodd;clip-rule:evenodd;fill:#FFFFFF;stroke:#1AAFB8;stroke-miterlimit:10;}
	.st7{fill:none;stroke:#0785DF;stroke-width:6.7816;stroke-miterlimit:10;}
	.st8{fill:#0785DF;}
	.st9{fill:none;stroke:#0785DF;stroke-width:6.3446;stroke-miterlimit:10;}
	.st10{fill:#0785DF;stroke:#0785DF;stroke-width:2.448;stroke-miterlimit:10;}
	.st11{fill:none;stroke:#0785DF;stroke-width:6.25;stroke-miterlimit:10;}
	.st12{fill:none;stroke:#1AAFB8;stroke-width:6.3328;stroke-miterlimit:10;}
	.st13{fill:none;stroke:#1AAFB8;stroke-width:6.7816;stroke-miterlimit:10;}
	.st14{fill:none;stroke:#1AAFB8;stroke-width:7;stroke-miterlimit:10;}
	.st15{fill:none;stroke:#ED726A;stroke-width:6;stroke-miterlimit:10;}
	.st16{fill:none;stroke:#0785DF;stroke-width:6;stroke-miterlimit:10;}
	.st17{fill:none;stroke:#1AAFB8;stroke-width:6.6637;stroke-miterlimit:10;}
	.st18{fill:none;stroke:#ED726A;stroke-width:6.4437;stroke-miterlimit:10;}
	.st19{fill:none;stroke:#0785DF;stroke-width:5.2549;stroke-miterlimit:10;}
	.st20{fill:none;stroke:#0785DF;stroke-width:5;stroke-miterlimit:10;}
	.st21{fill:none;stroke:#0785DF;stroke-width:5.072;stroke-miterlimit:10;}
	.st22{fill:none;stroke:#ED726A;stroke-width:7;stroke-miterlimit:10;}
	.st23{fill:none;stroke:#ED726A;stroke-width:6.5513;stroke-miterlimit:10;}
	.st24{fill:none;stroke:#ED726A;stroke-width:6.3434;stroke-miterlimit:10;}
	.st25{fill-rule:evenodd;clip-rule:evenodd;fill:none;stroke:#1AAFB8;stroke-width:6.4563;stroke-miterlimit:10;}
	.st26{fill:none;stroke:#ED726A;stroke-width:8;stroke-miterlimit:10;}
	.st27{fill:#FFFFFF;}
</style>

<g
   id="g2371"
   transform="matrix(4.5045046,0,0,4.5045046,-5836.0359,-2653.6037)"><circle
     class="st5"
     cx="1362.2"
     cy="655.70001"
     r="66.099998"
     id="circle28" /><g
     id="g150">
			<path
   class="st15"
   d="m 1381.8,647 c 2.4,-2.4 6.3,-2.4 8.7,0 l 8.7,8.7 -8.7,8.7 c -2.4,2.4 -6.3,2.4 -8.7,0 -2.4,-2.4 -0.6,-6.3 1.8,-8.7 -2.4,-2.4 -4.2,-6.3 -1.8,-8.7 z"
   id="path136" />
			<path
   class="st15"
   d="m 1364.8,620.3 c -2.3,0.7 -5.4,3.6 -5.7,6.1 -0.2,1.7 0.7,3.4 2,4.6 1.3,1.2 2.8,2.1 4.2,3.2 6.7,5.3 7.4,14.6 4.2,22"
   id="path138" />
			<path
   class="st15"
   d="m 1364.8,691 c -2.3,-0.7 -5.4,-3.6 -5.7,-6.1 -0.2,-1.7 0.7,-3.4 2,-4.6 1.3,-1.2 2.8,-2.1 4.2,-3.2 6.7,-5.3 7.4,-14.6 4.2,-22"
   id="path140" />
			<polygon
   class="st15"
   points="1329.7,656.7 1325.2,647.9 1338,647.9 1342.5,656.7 1338,664.7 1325.2,664.7 "
   id="polygon142" />
			<line
   class="st15"
   x1="1342.5"
   y1="656.70001"
   x2="1383.2"
   y2="656.70001"
   id="line144" />
			<line
   class="st15"
   x1="1338"
   y1="648.59998"
   x2="1360.6"
   y2="630.5"
   id="line146" />
			<line
   class="st15"
   x1="1338"
   y1="664.79999"
   x2="1360.3"
   y2="682.59998"
   id="line148" />
		</g></g>

</svg>
