<?xml version="1.0" encoding="UTF-8" standalone="no"?>
<svg
   width="246.86943"
   height="254.46928"
   viewBox="0 0 246.86943 254.46928"
   fill="none"
   version="1.1"
   id="svg1052"
   sodipodi:docname="casualcupid.svg"
   inkscape:version="1.1 (c4e8f9e, 2021-05-24)"
   xmlns:inkscape="http://www.inkscape.org/namespaces/inkscape"
   xmlns:sodipodi="http://sodipodi.sourceforge.net/DTD/sodipodi-0.dtd"
   xmlns="http://www.w3.org/2000/svg"
   xmlns:svg="http://www.w3.org/2000/svg">
  <defs
     id="defs1056" />
  <sodipodi:namedview
     id="namedview1054"
     pagecolor="#ffffff"
     bordercolor="#666666"
     borderopacity="1.0"
     inkscape:pageshadow="2"
     inkscape:pageopacity="0.0"
     inkscape:pagecheckerboard="0"
     showgrid="false"
     inkscape:zoom="0.32574648"
     inkscape:cx="-474.29522"
     inkscape:cy="257.86925"
     inkscape:window-width="1440"
     inkscape:window-height="792"
     inkscape:window-x="0"
     inkscape:window-y="25"
     inkscape:window-maximized="1"
     inkscape:current-layer="svg1052" />
  <path
     d="m 123.43479,251.63465 c 66.6,0 120.6,-55.7 120.6,-124.4 0,-68.700004 -54,-124.4000043 -120.6,-124.4000043 -66.600005,0 -120.6000058,55.7000003 -120.6000058,124.4000043 -0.1,68.7 53.9000008,124.4 120.6000058,124.4 z"
     fill="#ffffff"
     stroke="#ed726a"
     stroke-miterlimit="10"
     id="path842"
     style="stroke-width:5.66929;stroke-miterlimit:10;stroke-dasharray:none" />
  <path
     d="m 159.13479,110.83465 c 4.4,-4.5 11.5,-4.5 15.9,0 l 15.9,16.4 -15.9,16.4 c -4.4,4.5 -11.5,4.5 -15.9,0 -4.4,-4.5 -1.1,-11.9 3.3,-16.4 -4.4,-4.5 -7.6,-11.9 -3.3,-16.4 z"
     stroke="#ed726a"
     stroke-width="6"
     stroke-miterlimit="10"
     id="path926" />
  <path
     d="m 128.13479,60.634646 c -4.2,1.3 -9.8,6.8 -10.4,11.5 -0.4,3.2 1.3,6.4 3.7,8.7 2.4,2.3 5.1,4 7.7,6 12.2,10 13.5,27.500004 7.7,41.400004"
     stroke="#ed726a"
     stroke-width="6"
     stroke-miterlimit="10"
     id="path928" />
  <path
     d="m 128.13479,193.63465 c -4.2,-1.3 -9.8,-6.8 -10.4,-11.5 -0.4,-3.2 1.3,-6.4 3.7,-8.7 2.4,-2.3 5.1,-4 7.7,-6 12.2,-10 13.5,-27.5 7.7,-41.4"
     stroke="#ed726a"
     stroke-width="6"
     stroke-miterlimit="10"
     id="path930" />
  <path
     d="m 79.234785,144.13465 h -23.4 l 8.2,-15.1 -8.2,-16.6 h 23.4 l 8.2,16.6 z"
     stroke="#ed726a"
     stroke-width="6"
     stroke-miterlimit="10"
     id="path932" />
  <path
     d="M 87.434785,129.13465 H 161.73479"
     stroke="#ed726a"
     stroke-width="6"
     stroke-miterlimit="10"
     id="path934" />
  <path
     d="M 79.234785,113.83465 120.43479,79.734646"
     stroke="#ed726a"
     stroke-width="6"
     stroke-miterlimit="10"
     id="path936" />
  <path
     d="m 79.234785,144.33465 40.700005,33.5"
     stroke="#ed726a"
     stroke-width="6"
     stroke-miterlimit="10"
     id="path938" />
</svg>
