<?xml version="1.0" encoding="UTF-8" standalone="no"?>
<svg
   width="242.20013"
   height="249.8"
   viewBox="0 0 242.20013 249.8"
   fill="none"
   version="1.1"
   id="svg1052"
   sodipodi:docname="casualcupid.svg"
   inkscape:version="1.1 (c4e8f9e, 2021-05-24)"
   xmlns:inkscape="http://www.inkscape.org/namespaces/inkscape"
   xmlns:sodipodi="http://sodipodi.sourceforge.net/DTD/sodipodi-0.dtd"
   xmlns="http://www.w3.org/2000/svg"
   xmlns:svg="http://www.w3.org/2000/svg">
  <defs
     id="defs1056" />
  <sodipodi:namedview
     id="namedview1054"
     pagecolor="#ffffff"
     bordercolor="#666666"
     borderopacity="1.0"
     inkscape:pageshadow="2"
     inkscape:pageopacity="0.0"
     inkscape:pagecheckerboard="0"
     showgrid="false"
     inkscape:zoom="0.32574648"
     inkscape:cx="-477.3651"
     inkscape:cy="254.79938"
     inkscape:window-width="1440"
     inkscape:window-height="792"
     inkscape:window-x="0"
     inkscape:window-y="25"
     inkscape:window-maximized="1"
     inkscape:current-layer="svg1052" />
  <path
     d="m 121.10014,249.3 c 66.6,0 120.6,-55.7 120.6,-124.4 0,-68.7 -54,-124.4 -120.6,-124.4 C 54.500139,0.5 0.50013862,56.2 0.50013862,124.9 c -0.1,68.7 53.90000038,124.4 120.60000138,124.4 z"
     fill="#ffffff"
     stroke="#ed726a"
     stroke-miterlimit="10"
     id="path842" />
  <path
     d="m 156.80014,108.5 c 4.4,-4.5 11.5,-4.5 15.9,0 l 15.9,16.4 -15.9,16.4 c -4.4,4.5 -11.5,4.5 -15.9,0 -4.4,-4.5 -1.1,-11.9 3.3,-16.4 -4.4,-4.5 -7.6,-11.9 -3.3,-16.4 z"
     stroke="#ed726a"
     stroke-width="6"
     stroke-miterlimit="10"
     id="path926" />
  <path
     d="m 125.80014,58.3 c -4.2,1.3 -9.8,6.8 -10.4,11.5 -0.4,3.2 1.3,6.4 3.7,8.7 2.4,2.3 5.1,4 7.7,6 12.2,10 13.5,27.5 7.7,41.4"
     stroke="#ed726a"
     stroke-width="6"
     stroke-miterlimit="10"
     id="path928" />
  <path
     d="m 125.80014,191.3 c -4.2,-1.3 -9.8,-6.8 -10.4,-11.5 -0.4,-3.2 1.3,-6.4 3.7,-8.7 2.4,-2.3 5.1,-4 7.7,-6 12.2,-10 13.5,-27.5 7.7,-41.4"
     stroke="#ed726a"
     stroke-width="6"
     stroke-miterlimit="10"
     id="path930" />
  <path
     d="m 76.900139,141.8 h -23.4 l 8.2,-15.1 -8.2,-16.6 h 23.4 l 8.2,16.6 z"
     stroke="#ed726a"
     stroke-width="6"
     stroke-miterlimit="10"
     id="path932" />
  <path
     d="M 85.100139,126.8 H 159.40014"
     stroke="#ed726a"
     stroke-width="6"
     stroke-miterlimit="10"
     id="path934" />
  <path
     d="M 76.900139,111.5 118.10014,77.4"
     stroke="#ed726a"
     stroke-width="6"
     stroke-miterlimit="10"
     id="path936" />
  <path
     d="m 76.900139,142 40.700001,33.5"
     stroke="#ed726a"
     stroke-width="6"
     stroke-miterlimit="10"
     id="path938" />
</svg>
