<?xml version="1.0" encoding="UTF-8" standalone="no"?>
<svg
   width="246.86929"
   height="254.46928"
   viewBox="0 0 246.8693 254.46928"
   fill="none"
   version="1.1"
   id="svg1052"
   sodipodi:docname="chef.svg"
   inkscape:version="1.1 (c4e8f9e, 2021-05-24)"
   xmlns:inkscape="http://www.inkscape.org/namespaces/inkscape"
   xmlns:sodipodi="http://sodipodi.sourceforge.net/DTD/sodipodi-0.dtd"
   xmlns="http://www.w3.org/2000/svg"
   xmlns:svg="http://www.w3.org/2000/svg">
  <defs
     id="defs1056" />
  <sodipodi:namedview
     id="namedview1054"
     pagecolor="#ffffff"
     bordercolor="#666666"
     borderopacity="1.0"
     inkscape:pageshadow="2"
     inkscape:pageopacity="0.0"
     inkscape:pagecheckerboard="0"
     showgrid="false"
     inkscape:zoom="0.32574648"
     inkscape:cx="422.1074"
     inkscape:cy="1.534936"
     inkscape:window-width="1440"
     inkscape:window-height="791"
     inkscape:window-x="0"
     inkscape:window-y="25"
     inkscape:window-maximized="1"
     inkscape:current-layer="svg1052" />
  <path
     d="m 123.43465,251.63465 c 66.6,0 120.6,-55.7 120.6,-124.4 0,-68.700004 -54,-124.4000043 -120.6,-124.4000043 -66.600004,0 -120.6000043,55.7000003 -120.6000043,124.4000043 0,68.7 54.0000003,124.4 120.6000043,124.4 z"
     fill="#ffffff"
     stroke="#ed726a"
     stroke-miterlimit="10"
     id="path850"
     style="stroke-width:5.66929;stroke-miterlimit:10;stroke-dasharray:none" />
  <path
     d="m 187.33465,105.23465 c 0,-14.700004 -12.2,-26.500004 -27.2,-26.500004 -1.5,0 -2.7,0.2 -4,0.4 -2.9,-12.8 -16.1,-22.4 -31.9,-22.4 -15.9,0 -29.000004,9.8 -31.900004,22.6 -1.8,-0.4 -3.6,-0.6 -5.5,-0.6 -15,0 -27.2,11.9 -27.2,26.500004 0,12 8.2,22.2 19.3,25.4 v 34.8 24.1 h 89.200004 v -58.9 c 11.1,-3.2 19.2,-13.4 19.2,-25.4 z"
     stroke="#ed726a"
     stroke-width="6.4437"
     stroke-miterlimit="10"
     id="path956" />
  <path
     d="M 79.134646,159.03465 H 165.63465"
     stroke="#ed726a"
     stroke-width="6.4437"
     stroke-miterlimit="10"
     id="path958" />
  <path
     d="m 123.43465,140.23465 c 0,-4.3 0,-8.7 0,-13 V 92.734646"
     stroke="#ed726a"
     stroke-width="6.4437"
     stroke-miterlimit="10"
     id="path960" />
  <path
     d="m 144.63465,140.23465 c 0,-4.3 0,-8.7 0,-13 v -23.3"
     stroke="#ed726a"
     stroke-width="6.4437"
     stroke-miterlimit="10"
     id="path962" />
  <path
     d="m 102.43465,140.23465 c 0,-4.3 0,-8.7 0,-13 v -23.3"
     stroke="#ed726a"
     stroke-width="6.4437"
     stroke-miterlimit="10"
     id="path964" />
</svg>
