<?xml version="1.0" encoding="UTF-8" standalone="no"?>
<svg
   width="242.2"
   height="249.8"
   viewBox="0 0 242.2 249.8"
   fill="none"
   version="1.1"
   id="svg1052"
   sodipodi:docname="chef.svg"
   inkscape:version="1.1 (c4e8f9e, 2021-05-24)"
   xmlns:inkscape="http://www.inkscape.org/namespaces/inkscape"
   xmlns:sodipodi="http://sodipodi.sourceforge.net/DTD/sodipodi-0.dtd"
   xmlns="http://www.w3.org/2000/svg"
   xmlns:svg="http://www.w3.org/2000/svg">
  <defs
     id="defs1056" />
  <sodipodi:namedview
     id="namedview1054"
     pagecolor="#ffffff"
     bordercolor="#666666"
     borderopacity="1.0"
     inkscape:pageshadow="2"
     inkscape:pageopacity="0.0"
     inkscape:pagecheckerboard="0"
     showgrid="false"
     inkscape:zoom="0.32574648"
     inkscape:cx="419.03753"
     inkscape:cy="-3.069872"
     inkscape:window-width="1440"
     inkscape:window-height="792"
     inkscape:window-x="0"
     inkscape:window-y="25"
     inkscape:window-maximized="1"
     inkscape:current-layer="svg1052" />
  <path
     d="m 121.1,249.3 c 66.6,0 120.6,-55.7 120.6,-124.4 C 241.7,56.2 187.7,0.5 121.1,0.5 54.5,0.5 0.5,56.2 0.5,124.9 c 0,68.7 54,124.4 120.6,124.4 z"
     fill="#ffffff"
     stroke="#ed726a"
     stroke-miterlimit="10"
     id="path850" />
  <path
     d="m 185,102.9 c 0,-14.7 -12.2,-26.5 -27.2,-26.5 -1.5,0 -2.7,0.2 -4,0.4 C 150.9,64 137.7,54.4 121.9,54.4 106,54.4 92.9,64.2 90,77 c -1.8,-0.4 -3.6,-0.6 -5.5,-0.6 -15,0 -27.2,11.9 -27.2,26.5 0,12 8.2,22.2 19.3,25.4 v 34.8 24.1 h 89.2 v -58.9 c 11.1,-3.2 19.2,-13.4 19.2,-25.4 z"
     stroke="#ed726a"
     stroke-width="6.4437"
     stroke-miterlimit="10"
     id="path956" />
  <path
     d="m 76.8,156.7 h 86.5"
     stroke="#ed726a"
     stroke-width="6.4437"
     stroke-miterlimit="10"
     id="path958" />
  <path
     d="m 121.1,137.9 c 0,-4.3 0,-8.7 0,-13 V 90.4"
     stroke="#ed726a"
     stroke-width="6.4437"
     stroke-miterlimit="10"
     id="path960" />
  <path
     d="m 142.3,137.9 c 0,-4.3 0,-8.7 0,-13 v -23.3"
     stroke="#ed726a"
     stroke-width="6.4437"
     stroke-miterlimit="10"
     id="path962" />
  <path
     d="m 100.1,137.9 c 0,-4.3 0,-8.7 0,-13 v -23.3"
     stroke="#ed726a"
     stroke-width="6.4437"
     stroke-miterlimit="10"
     id="path964" />
</svg>
