<?xml version="1.0" encoding="UTF-8" standalone="no"?>
<svg
   width="242.2"
   height="249.8"
   viewBox="0 0 242.2 249.8"
   fill="none"
   version="1.1"
   id="svg1052"
   sodipodi:docname="clubgoer.svg"
   inkscape:version="1.1 (c4e8f9e, 2021-05-24)"
   xmlns:inkscape="http://www.inkscape.org/namespaces/inkscape"
   xmlns:sodipodi="http://sodipodi.sourceforge.net/DTD/sodipodi-0.dtd"
   xmlns="http://www.w3.org/2000/svg"
   xmlns:svg="http://www.w3.org/2000/svg">
  <defs
     id="defs1056" />
  <sodipodi:namedview
     id="namedview1054"
     pagecolor="#ffffff"
     bordercolor="#666666"
     borderopacity="1.0"
     inkscape:pageshadow="2"
     inkscape:pageopacity="0.0"
     inkscape:pagecheckerboard="0"
     showgrid="false"
     inkscape:zoom="0.32574648"
     inkscape:cx="-121.25995"
     inkscape:cy="70.607057"
     inkscape:window-width="1440"
     inkscape:window-height="792"
     inkscape:window-x="0"
     inkscape:window-y="25"
     inkscape:window-maximized="1"
     inkscape:current-layer="svg1052" />
  <path
     d="m 121.1,249.3 c 66.6,0 120.6,-55.7 120.6,-124.4 C 241.7,56.2 187.7,0.5 121.1,0.5 54.5,0.5 0.5,56.2 0.5,124.9 c 0,68.7 54,124.4 120.6,124.4 z"
     fill="#ffffff"
     stroke="#0785df"
     stroke-miterlimit="10"
     id="path844" />
  <path
     d="m 131.9,67.5 h -21.5 v 15.4 h 21.5 z"
     stroke="#0785df"
     stroke-width="5.2549"
     stroke-miterlimit="10"
     id="path966" />
  <path
     d="m 121.1,191.5 c 28.9,0 52.4,-24.2 52.4,-54 0,-29.8 -23.4,-54 -52.4,-54 -28.9,0 -52.4,24.2 -52.4,54 0,29.8 23.5,54 52.4,54 z"
     stroke="#0785df"
     stroke-width="5"
     stroke-miterlimit="10"
     id="path968" />
  <path
     d="m 122,82.9 c -8.9,7.2 -17,18.3 -21.7,29.7 -2.2,5.3 -3.3,11.1 -3.8,16.9 -0.6,5.6 -0.7,11.5 -0.2,17.1 1.5,16.6 14.1,36.1 25.7,45.9"
     stroke="#0785df"
     stroke-width="5"
     stroke-miterlimit="10"
     id="path970" />
  <path
     d="m 120.2,82.9 c 8.9,7.2 17,18.3 21.7,29.7 2.2,5.3 3.3,11.1 3.8,16.9 0.6,5.6 0.7,11.5 0.2,17.1 -1.5,16.6 -14.1,36.1 -25.7,45.9"
     stroke="#0785df"
     stroke-width="5"
     stroke-miterlimit="10"
     id="path972" />
  <path
     d="M 121.1,86.3 V 191.9"
     stroke="#0785df"
     stroke-width="5"
     stroke-miterlimit="10"
     id="path974" />
  <path
     d="m 68,136.7 c 6.9,8.8 17.7,16.7 28.8,21.3 5.1,2.1 10.8,3.2 16.4,3.8 5.5,0.6 11.1,0.8 16.6,0.2 16.1,-1.5 35,-13.7 44.5,-25.2"
     stroke="#0785df"
     stroke-width="5"
     stroke-miterlimit="10"
     id="path976" />
  <path
     d="m 68,138.6 c 6.9,-8.8 17.7,-16.7 28.8,-21.3 5.1,-2.1 10.8,-3.2 16.4,-3.8 5.5,-0.6 11.1,-0.8 16.6,-0.2 16.1,1.5 35,13.7 44.5,25.2"
     stroke="#0785df"
     stroke-width="5"
     stroke-miterlimit="10"
     id="path978" />
  <path
     d="M 71.3,137.7 H 173.7"
     stroke="#0785df"
     stroke-width="5"
     stroke-miterlimit="10"
     id="path980" />
  <path
     d="M 121.1,43.8 V 67.5"
     stroke="#0785df"
     stroke-width="5.2549"
     stroke-miterlimit="10"
     id="path982" />
  <path
     d="m 175.1,62.8 c 1.5,3.6 3.8,6 7.1,7.5 -3.3,1.5 -5.8,4.1 -7.1,7.5 -1.5,-3.4 -3.8,-6 -7.1,-7.5 3.3,-1.5 5.7,-3.9 7.1,-7.5 z"
     stroke="#0785df"
     stroke-width="5.072"
     stroke-miterlimit="10"
     id="path984" />
  <path
     d="m 67.3,62.8 c 1.5,3.6 3.8,6 7.1,7.5 -3.3,1.5 -5.8,4.1 -7.1,7.5 -1.5,-3.4 -3.8,-6 -7.1,-7.5 3.1,-1.5 5.6,-3.9 7.1,-7.5 z"
     stroke="#0785df"
     stroke-width="5.072"
     stroke-miterlimit="10"
     id="path986" />
</svg>
