<?xml version="1.0" encoding="UTF-8" standalone="no"?>
<!-- Generator: Adobe Illustrator 24.1.0, SVG Export Plug-In . SVG Version: 6.00 Build 0)  -->

<svg
   version="1.1"
   id="Layer_1"
   x="0px"
   y="0px"
   viewBox="0 0 600 600"
   xml:space="preserve"
   sodipodi:docname="clubgoer.svg"
   width="600"
   height="600"
   inkscape:version="1.1 (c4e8f9e, 2021-05-24)"
   xmlns:inkscape="http://www.inkscape.org/namespaces/inkscape"
   xmlns:sodipodi="http://sodipodi.sourceforge.net/DTD/sodipodi-0.dtd"
   xmlns="http://www.w3.org/2000/svg"
   xmlns:svg="http://www.w3.org/2000/svg"><defs
   id="defs429">
	
	
	

		
		
		
		
		
		
		
		
		
		
		
		
		
		
		
	
		
		
		
		
		
		
		
		
		
		
		
		
		
		
		
		
		
		
		
		
	</defs><sodipodi:namedview
   id="namedview427"
   pagecolor="#ffffff"
   bordercolor="#666666"
   borderopacity="1.0"
   inkscape:pageshadow="2"
   inkscape:pageopacity="0.0"
   inkscape:pagecheckerboard="0"
   showgrid="false"
   inkscape:zoom="0.53518519"
   inkscape:cx="-142.94118"
   inkscape:cy="429.75779"
   inkscape:window-width="1296"
   inkscape:window-height="806"
   inkscape:window-x="0"
   inkscape:window-y="23"
   inkscape:window-maximized="0"
   inkscape:current-layer="Layer_1" />
<style
   type="text/css"
   id="style2">
	.st0{fill:#1AAFB8;}
	.st1{fill:#FDFCDE;}
	.st2{fill:#FDD9B9;}
	.st3{fill:#ED726A;}
	.st4{fill-rule:evenodd;clip-rule:evenodd;fill:#FFFFFF;stroke:#0785DF;stroke-miterlimit:10;}
	.st5{fill-rule:evenodd;clip-rule:evenodd;fill:#FFFFFF;stroke:#ED726A;stroke-miterlimit:10;}
	.st6{fill-rule:evenodd;clip-rule:evenodd;fill:#FFFFFF;stroke:#1AAFB8;stroke-miterlimit:10;}
	.st7{fill:none;stroke:#0785DF;stroke-width:6.7816;stroke-miterlimit:10;}
	.st8{fill:#0785DF;}
	.st9{fill:none;stroke:#0785DF;stroke-width:6.3446;stroke-miterlimit:10;}
	.st10{fill:#0785DF;stroke:#0785DF;stroke-width:2.448;stroke-miterlimit:10;}
	.st11{fill:none;stroke:#0785DF;stroke-width:6.25;stroke-miterlimit:10;}
	.st12{fill:none;stroke:#1AAFB8;stroke-width:6.3328;stroke-miterlimit:10;}
	.st13{fill:none;stroke:#1AAFB8;stroke-width:6.7816;stroke-miterlimit:10;}
	.st14{fill:none;stroke:#1AAFB8;stroke-width:7;stroke-miterlimit:10;}
	.st15{fill:none;stroke:#ED726A;stroke-width:6;stroke-miterlimit:10;}
	.st16{fill:none;stroke:#0785DF;stroke-width:6;stroke-miterlimit:10;}
	.st17{fill:none;stroke:#1AAFB8;stroke-width:6.6637;stroke-miterlimit:10;}
	.st18{fill:none;stroke:#ED726A;stroke-width:6.4437;stroke-miterlimit:10;}
	.st19{fill:none;stroke:#0785DF;stroke-width:5.2549;stroke-miterlimit:10;}
	.st20{fill:none;stroke:#0785DF;stroke-width:5;stroke-miterlimit:10;}
	.st21{fill:none;stroke:#0785DF;stroke-width:5.072;stroke-miterlimit:10;}
	.st22{fill:none;stroke:#ED726A;stroke-width:7;stroke-miterlimit:10;}
	.st23{fill:none;stroke:#ED726A;stroke-width:6.5513;stroke-miterlimit:10;}
	.st24{fill:none;stroke:#ED726A;stroke-width:6.3434;stroke-miterlimit:10;}
	.st25{fill-rule:evenodd;clip-rule:evenodd;fill:none;stroke:#1AAFB8;stroke-width:6.4563;stroke-miterlimit:10;}
	.st26{fill:none;stroke:#ED726A;stroke-width:8;stroke-miterlimit:10;}
	.st27{fill:#FFFFFF;}
</style>

<g
   id="g2663"
   transform="matrix(4.5045046,0,0,4.5045046,-6546.3967,-2653.6037)"><circle
     class="st4"
     cx="1519.9"
     cy="655.70001"
     r="66.099998"
     id="circle30" /><g
     id="g222">
			<g
   id="g214">
				<rect
   x="1514"
   y="625.20001"
   class="st19"
   width="11.8"
   height="8.1999998"
   id="rect186" />
				<g
   id="g210">
					<circle
   class="st20"
   cx="1519.9"
   cy="662.40002"
   r="28.700001"
   id="circle188" />
					<g
   id="g198">
						<g
   id="g194">
							<path
   class="st20"
   d="m 1520.4,633.4 c -4.9,3.8 -9.3,9.7 -11.9,15.8 -1.2,2.8 -1.8,5.9 -2.1,9 -0.3,3 -0.4,6.1 -0.1,9.1 0.8,8.8 7.7,19.2 14.1,24.4"
   id="path190" />
							<path
   class="st20"
   d="m 1519.4,633.4 c 4.9,3.8 9.3,9.7 11.9,15.8 1.2,2.8 1.8,5.9 2.1,9 0.3,3 0.4,6.1 0.1,9.1 -0.8,8.8 -7.7,19.2 -14.1,24.4"
   id="path192" />
						</g>
						<line
   class="st20"
   x1="1519.9"
   y1="635.20001"
   x2="1519.9"
   y2="691.29999"
   id="line196" />
					</g>
					<g
   id="g208">
						<g
   id="g204">
							<path
   class="st20"
   d="m 1490.8,662 c 3.8,4.7 9.7,8.9 15.8,11.3 2.8,1.1 5.9,1.7 9,2 3,0.3 6.1,0.4 9.1,0.1 8.8,-0.8 19.2,-7.3 24.4,-13.4"
   id="path200" />
							<path
   class="st20"
   d="m 1490.8,663 c 3.8,-4.7 9.7,-8.9 15.8,-11.3 2.8,-1.1 5.9,-1.7 9,-2 3,-0.3 6.1,-0.4 9.1,-0.1 8.8,0.8 19.2,7.3 24.4,13.4"
   id="path202" />
						</g>
						<line
   class="st20"
   x1="1492.6"
   y1="662.5"
   x2="1548.7"
   y2="662.5"
   id="line206" />
					</g>
				</g>
				<line
   class="st19"
   x1="1519.9"
   y1="612.59998"
   x2="1519.9"
   y2="625.20001"
   id="line212" />
			</g>
			<g
   id="g220">
				<path
   class="st21"
   d="m 1549.5,622.7 c 0.8,1.9 2.1,3.2 3.9,4 -1.8,0.8 -3.2,2.2 -3.9,4 -0.8,-1.8 -2.1,-3.2 -3.9,-4 1.8,-0.8 3.1,-2.1 3.9,-4 z"
   id="path216" />
				<path
   class="st21"
   d="m 1490.4,622.7 c 0.8,1.9 2.1,3.2 3.9,4 -1.8,0.8 -3.2,2.2 -3.9,4 -0.8,-1.8 -2.1,-3.2 -3.9,-4 1.7,-0.8 3.1,-2.1 3.9,-4 z"
   id="path218" />
			</g>
		</g></g>

</svg>
