<?xml version="1.0" encoding="UTF-8" standalone="no"?>
<svg
   width="246.86929"
   height="254.46928"
   viewBox="0 0 246.8693 254.46928"
   fill="none"
   version="1.1"
   id="svg1052"
   sodipodi:docname="clubgoer.svg"
   inkscape:version="1.1 (c4e8f9e, 2021-05-24)"
   xmlns:inkscape="http://www.inkscape.org/namespaces/inkscape"
   xmlns:sodipodi="http://sodipodi.sourceforge.net/DTD/sodipodi-0.dtd"
   xmlns="http://www.w3.org/2000/svg"
   xmlns:svg="http://www.w3.org/2000/svg">
  <defs
     id="defs1056" />
  <sodipodi:namedview
     id="namedview1054"
     pagecolor="#ffffff"
     bordercolor="#666666"
     borderopacity="1.0"
     inkscape:pageshadow="2"
     inkscape:pageopacity="0.0"
     inkscape:pagecheckerboard="0"
     showgrid="false"
     inkscape:zoom="0.32574648"
     inkscape:cx="-118.19007"
     inkscape:cy="75.211864"
     inkscape:window-width="1440"
     inkscape:window-height="791"
     inkscape:window-x="0"
     inkscape:window-y="25"
     inkscape:window-maximized="1"
     inkscape:current-layer="svg1052" />
  <path
     d="m 123.43465,251.63465 c 66.6,0 120.6,-55.7 120.6,-124.4 0,-68.700004 -54,-124.4000043 -120.6,-124.4000043 -66.600004,0 -120.6000043,55.7000003 -120.6000043,124.4000043 0,68.7 54.0000003,124.4 120.6000043,124.4 z"
     fill="#ffffff"
     stroke="#0785df"
     stroke-miterlimit="10"
     id="path844"
     style="stroke-width:5.66929;stroke-miterlimit:10;stroke-dasharray:none" />
  <path
     d="m 134.23465,69.834646 h -21.5 v 15.4 h 21.5 z"
     stroke="#0785df"
     stroke-width="5.2549"
     stroke-miterlimit="10"
     id="path966" />
  <path
     d="m 123.43465,193.83465 c 28.9,0 52.4,-24.2 52.4,-54 0,-29.8 -23.4,-54.000004 -52.4,-54.000004 -28.900004,0 -52.400004,24.200004 -52.400004,54.000004 0,29.8 23.5,54 52.400004,54 z"
     stroke="#0785df"
     stroke-width="5"
     stroke-miterlimit="10"
     id="path968" />
  <path
     d="m 124.33465,85.234646 c -8.9,7.2 -17,18.300004 -21.7,29.700004 -2.2,5.3 -3.300004,11.1 -3.800004,16.9 -0.6,5.6 -0.7,11.5 -0.2,17.1 1.500004,16.6 14.100004,36.1 25.700004,45.9"
     stroke="#0785df"
     stroke-width="5"
     stroke-miterlimit="10"
     id="path970" />
  <path
     d="m 122.53465,85.234646 c 8.9,7.2 17,18.300004 21.7,29.700004 2.2,5.3 3.3,11.1 3.8,16.9 0.6,5.6 0.7,11.5 0.2,17.1 -1.5,16.6 -14.1,36.1 -25.7,45.9"
     stroke="#0785df"
     stroke-width="5"
     stroke-miterlimit="10"
     id="path972" />
  <path
     d="M 123.43465,88.634646 V 194.23465"
     stroke="#0785df"
     stroke-width="5"
     stroke-miterlimit="10"
     id="path974" />
  <path
     d="m 70.334646,139.03465 c 6.9,8.8 17.7,16.7 28.8,21.3 5.100004,2.1 10.800004,3.2 16.400004,3.8 5.5,0.6 11.1,0.8 16.6,0.2 16.1,-1.5 35,-13.7 44.5,-25.2"
     stroke="#0785df"
     stroke-width="5"
     stroke-miterlimit="10"
     id="path976" />
  <path
     d="m 70.334646,140.93465 c 6.9,-8.8 17.7,-16.7 28.8,-21.3 5.100004,-2.1 10.800004,-3.2 16.400004,-3.8 5.5,-0.6 11.1,-0.8 16.6,-0.2 16.1,1.5 35,13.7 44.5,25.2"
     stroke="#0785df"
     stroke-width="5"
     stroke-miterlimit="10"
     id="path978" />
  <path
     d="M 73.634646,140.03465 H 176.03465"
     stroke="#0785df"
     stroke-width="5"
     stroke-miterlimit="10"
     id="path980" />
  <path
     d="m 123.43465,46.134646 v 23.7"
     stroke="#0785df"
     stroke-width="5.2549"
     stroke-miterlimit="10"
     id="path982" />
  <path
     d="m 177.43465,65.134646 c 1.5,3.6 3.8,6 7.1,7.5 -3.3,1.5 -5.8,4.1 -7.1,7.5 -1.5,-3.4 -3.8,-6 -7.1,-7.5 3.3,-1.5 5.7,-3.9 7.1,-7.5 z"
     stroke="#0785df"
     stroke-width="5.072"
     stroke-miterlimit="10"
     id="path984" />
  <path
     d="m 69.634646,65.134646 c 1.5,3.6 3.8,6 7.1,7.5 -3.3,1.5 -5.8,4.1 -7.1,7.5 -1.5,-3.4 -3.8,-6 -7.1,-7.5 3.1,-1.5 5.6,-3.9 7.1,-7.5 z"
     stroke="#0785df"
     stroke-width="5.072"
     stroke-miterlimit="10"
     id="path986" />
</svg>
