<?xml version="1.0" encoding="UTF-8" standalone="no"?>
<svg
   width="246.86929"
   height="254.46928"
   viewBox="0 0 246.8693 254.46928"
   fill="none"
   version="1.1"
   id="svg1052"
   sodipodi:docname="herbfriendly.svg"
   inkscape:version="1.1 (c4e8f9e, 2021-05-24)"
   xmlns:inkscape="http://www.inkscape.org/namespaces/inkscape"
   xmlns:sodipodi="http://sodipodi.sourceforge.net/DTD/sodipodi-0.dtd"
   xmlns="http://www.w3.org/2000/svg"
   xmlns:svg="http://www.w3.org/2000/svg">
  <defs
     id="defs1056" />
  <sodipodi:namedview
     id="namedview1054"
     pagecolor="#ffffff"
     bordercolor="#666666"
     borderopacity="1.0"
     inkscape:pageshadow="2"
     inkscape:pageopacity="0.0"
     inkscape:pagecheckerboard="0"
     showgrid="false"
     inkscape:zoom="0.32574648"
     inkscape:cx="1029.9421"
     inkscape:cy="339.22086"
     inkscape:window-width="1440"
     inkscape:window-height="791"
     inkscape:window-x="0"
     inkscape:window-y="25"
     inkscape:window-maximized="1"
     inkscape:current-layer="svg1052" />
  <path
     d="m 123.43465,251.63465 c 66.6,0 120.6,-55.7 120.6,-124.4 0,-68.700004 -54,-124.4000043 -120.6,-124.4000043 -66.600004,0 -120.6000043,55.7000003 -120.6000043,124.4000043 0,68.7 54.0000003,124.4 120.6000043,124.4 z"
     fill="#ffffff"
     stroke="#1aafb8"
     stroke-miterlimit="10"
     id="path834"
     style="stroke-width:5.66929;stroke-miterlimit:10;stroke-dasharray:none" />
  <path
     d="m 128.33465,197.23465 h -13 v -26.9 -1.1 c -16.200004,9.2 -34.100004,8.1 -44.900004,4.3 -2.9,-0.9 -4,-1.3 -7.1,-3 -0.7,-0.4 -3.6,-1.9 -4.6,-2.4 1.1,-0.8 2.6,-2.3 3.1,-2.8 2.6,-2.4 4.2,-3 6.4,-4.7 4.9,-4 7.8,-6 19.5,-9 3.1,-0.8 6.2,0.6 8.8,1.3 0.7,0.2 1.5,0.4 2.4,0.6 -2,-0.9 -4.2,-2.3 -6.6,-3.8 -10,-6.6 -21.4,-17.9 -29.6,-37.4 -1.1,-2.8 -1.3,-3 -2.4,-6.2 -0.2,-0.8 -1.5,-4.3 -1.6,-6.600004 1.5,0 5.3,1.100004 5.5,1.100004 3.8,1.3 5.7,2.1 8.9,3.8 17.9,8.3 28.500004,19.6 34.700004,29.5 0.7,1.1 0.5,1.1 1.1,2.3 -0.9,-2.4 -0.7,-4.1 -1.3,-7.2 -3.5,-16.2 -4.2,-37.400004 9.5,-65.700004 0.2,-0.6 2.6,-4.5 3.5,-5.8 1.6,-2.3 2.7,-4 2.9,-3.4 l 2.9,3.4 c 1.1,1.3 3.3,5.3 3.5,5.8 13.7,28.2 13,49.500004 9.5,65.700004 -0.7,3 -0.5,4.7 -1.3,7.2 0.5,-1.1 0.4,-1.1 1.1,-2.3 6.2,-10 16.8,-21.1 34.7,-29.5 3.3,-1.5 5.1,-2.4 8.9,-3.8 0.2,0 3.8,-1.100004 5.5,-1.100004 -0.2,2.100004 -1.3,5.600004 -1.6,6.600004 -1.1,3.2 -1.3,3.4 -2.4,6.2 -8.2,19.8 -19.5,31 -29.6,37.4 -2.2,1.5 -4.4,2.6 -6.6,3.8 0.7,-0.2 1.5,-0.4 2.4,-0.6 2.6,-0.6 5.7,-2.1 8.8,-1.3 11.7,3 14.6,5.1 19.5,9 2,1.5 3.6,2.3 6.4,4.7 0.5,0.6 2,1.9 3.1,2.8 -0.9,0.6 -4,2.1 -4.6,2.4 -3.1,1.5 -4.2,1.9 -7.1,3 -10.8,3.8 -28.8,5.1 -44.9,-4.3 v 1.1 26.9 h -13"
     stroke="#1aafb8"
     stroke-width="6.3328"
     stroke-miterlimit="10"
     id="path900" />
</svg>
