<?xml version="1.0" encoding="UTF-8" standalone="no"?>
<!-- Generator: Adobe Illustrator 24.1.0, SVG Export Plug-In . SVG Version: 6.00 Build 0)  -->

<svg
   version="1.1"
   id="Layer_1"
   x="0px"
   y="0px"
   viewBox="0 0 600 600"
   xml:space="preserve"
   width="600"
   height="600"
   xmlns="http://www.w3.org/2000/svg"
   xmlns:svg="http://www.w3.org/2000/svg"><defs
   id="defs429">
	
	
	

		
		
		
		
		
		
		
		
		
		
		
		
		
		
		
		
		
		
		
		
	
		
		
		
		
		
	
		
		
		
		
		
		
		
		
		
		
		
		
		
		
		
	</defs>
<style
   type="text/css"
   id="style2">
	.st0{fill:#1AAFB8;}
	.st1{fill:#FDFCDE;}
	.st2{fill:#FDD9B9;}
	.st3{fill:#ED726A;}
	.st4{fill-rule:evenodd;clip-rule:evenodd;fill:#FFFFFF;stroke:#0785DF;stroke-miterlimit:10;}
	.st5{fill-rule:evenodd;clip-rule:evenodd;fill:#FFFFFF;stroke:#ED726A;stroke-miterlimit:10;}
	.st6{fill-rule:evenodd;clip-rule:evenodd;fill:#FFFFFF;stroke:#1AAFB8;stroke-miterlimit:10;}
	.st7{fill:none;stroke:#0785DF;stroke-width:6.7816;stroke-miterlimit:10;}
	.st8{fill:#0785DF;}
	.st9{fill:none;stroke:#0785DF;stroke-width:6.3446;stroke-miterlimit:10;}
	.st10{fill:#0785DF;stroke:#0785DF;stroke-width:2.448;stroke-miterlimit:10;}
	.st11{fill:none;stroke:#0785DF;stroke-width:6.25;stroke-miterlimit:10;}
	.st12{fill:none;stroke:#1AAFB8;stroke-width:6.3328;stroke-miterlimit:10;}
	.st13{fill:none;stroke:#1AAFB8;stroke-width:6.7816;stroke-miterlimit:10;}
	.st14{fill:none;stroke:#1AAFB8;stroke-width:7;stroke-miterlimit:10;}
	.st15{fill:none;stroke:#ED726A;stroke-width:6;stroke-miterlimit:10;}
	.st16{fill:none;stroke:#0785DF;stroke-width:6;stroke-miterlimit:10;}
	.st17{fill:none;stroke:#1AAFB8;stroke-width:6.6637;stroke-miterlimit:10;}
	.st18{fill:none;stroke:#ED726A;stroke-width:6.4437;stroke-miterlimit:10;}
	.st19{fill:none;stroke:#0785DF;stroke-width:5.2549;stroke-miterlimit:10;}
	.st20{fill:none;stroke:#0785DF;stroke-width:5;stroke-miterlimit:10;}
	.st21{fill:none;stroke:#0785DF;stroke-width:5.072;stroke-miterlimit:10;}
	.st22{fill:none;stroke:#ED726A;stroke-width:7;stroke-miterlimit:10;}
	.st23{fill:none;stroke:#ED726A;stroke-width:6.5513;stroke-miterlimit:10;}
	.st24{fill:none;stroke:#ED726A;stroke-width:6.3434;stroke-miterlimit:10;}
	.st25{fill-rule:evenodd;clip-rule:evenodd;fill:none;stroke:#1AAFB8;stroke-width:6.4563;stroke-miterlimit:10;}
	.st26{fill:none;stroke:#ED726A;stroke-width:8;stroke-miterlimit:10;}
	.st27{fill:#FFFFFF;}
</style>

<g
   id="g3311"
   transform="matrix(4.5045046,0,0,4.5045046,-2943.2433,-2653.6037)"><circle
     class="st6"
     cx="720"
     cy="655.70001"
     r="66.099998"
     id="circle20" /><g
     id="g108">
			<path
   class="st12"
   d="m 722.7,692.9 h -7.1 V 678.6 678 c -8.9,4.9 -18.7,4.3 -24.6,2.3 -1.6,-0.5 -2.2,-0.7 -3.9,-1.6 -0.4,-0.2 -2,-1 -2.5,-1.3 0.6,-0.4 1.4,-1.2 1.7,-1.5 1.4,-1.3 2.3,-1.6 3.5,-2.5 2.7,-2.1 4.3,-3.2 10.7,-4.8 1.7,-0.4 3.4,0.3 4.8,0.7 0.4,0.1 0.8,0.2 1.3,0.3 -1.1,-0.5 -2.3,-1.2 -3.6,-2 -5.5,-3.5 -11.7,-9.5 -16.2,-19.9 -0.6,-1.5 -0.7,-1.6 -1.3,-3.3 -0.1,-0.4 -0.8,-2.3 -0.9,-3.5 0.8,0 2.9,0.6 3,0.6 2.1,0.7 3.1,1.1 4.9,2 9.8,4.4 15.6,10.4 19,15.7 0.4,0.6 0.3,0.6 0.6,1.2 -0.5,-1.3 -0.4,-2.2 -0.7,-3.8 -1.9,-8.6 -2.3,-19.9 5.2,-34.9 0.1,-0.3 1.4,-2.4 1.9,-3.1 0.9,-1.2 1.5,-2.1 1.6,-1.8 l 1.6,1.8 c 0.6,0.7 1.8,2.8 1.9,3.1 7.5,15 7.1,26.3 5.2,34.9 -0.4,1.6 -0.3,2.5 -0.7,3.8 0.3,-0.6 0.2,-0.6 0.6,-1.2 3.4,-5.3 9.2,-11.2 19,-15.7 1.8,-0.8 2.8,-1.3 4.9,-2 0.1,0 2.1,-0.6 3,-0.6 -0.1,1.1 -0.7,3 -0.9,3.5 -0.6,1.7 -0.7,1.8 -1.3,3.3 -4.5,10.5 -10.7,16.5 -16.2,19.9 -1.2,0.8 -2.4,1.4 -3.6,2 0.4,-0.1 0.8,-0.2 1.3,-0.3 1.4,-0.3 3.1,-1.1 4.8,-0.7 6.4,1.6 8,2.7 10.7,4.8 1.1,0.8 2,1.2 3.5,2.5 0.3,0.3 1.1,1 1.7,1.5 -0.5,0.3 -2.2,1.1 -2.5,1.3 -1.7,0.8 -2.3,1 -3.9,1.6 -5.9,2 -15.8,2.7 -24.6,-2.3 v 0.6 14.3 h -7.1"
   id="path106" />
		</g></g>

</svg>
