<?xml version="1.0" encoding="UTF-8" standalone="no"?>
<svg
   width="246.86929"
   height="254.46928"
   viewBox="0 0 246.8693 254.46928"
   fill="none"
   version="1.1"
   id="svg1052"
   sodipodi:docname="libraryfiend.svg"
   inkscape:version="1.1 (c4e8f9e, 2021-05-24)"
   xmlns:inkscape="http://www.inkscape.org/namespaces/inkscape"
   xmlns:sodipodi="http://sodipodi.sourceforge.net/DTD/sodipodi-0.dtd"
   xmlns="http://www.w3.org/2000/svg"
   xmlns:svg="http://www.w3.org/2000/svg">
  <defs
     id="defs1056" />
  <sodipodi:namedview
     id="namedview1054"
     pagecolor="#ffffff"
     bordercolor="#666666"
     borderopacity="1.0"
     inkscape:pageshadow="2"
     inkscape:pageopacity="0.0"
     inkscape:pagecheckerboard="0"
     showgrid="false"
     inkscape:zoom="0.32574648"
     inkscape:cx="508.06382"
     inkscape:cy="345.3606"
     inkscape:window-width="1440"
     inkscape:window-height="791"
     inkscape:window-x="0"
     inkscape:window-y="25"
     inkscape:window-maximized="1"
     inkscape:current-layer="svg1052" />
  <path
     d="m 123.43465,251.63465 c 66.6,0 120.6,-55.7 120.6,-124.4 0,-68.700004 -54,-124.4000043 -120.6,-124.4000043 -66.600004,0 -120.6000043,55.7000003 -120.6000043,124.4000043 0,68.7 54.0000003,124.4 120.6000043,124.4 z"
     fill="#ffffff"
     stroke="#1aafb8"
     stroke-miterlimit="10"
     id="path838"
     style="stroke-width:5.66929;stroke-miterlimit:10;stroke-dasharray:none" />
  <path
     d="m 123.33465,163.93465 v 25.8 l -71.200004,-16.2 V 91.134646 l 19,4"
     stroke="#1aafb8"
     stroke-width="6.7816"
     stroke-miterlimit="10"
     id="path902" />
  <path
     d="m 123.43465,163.93465 -52.400004,-12 V 69.534646 l 36.300004,7.3 c 9.3,1.9 16,10.3 16,20.1 v 67.000004 z"
     stroke="#1aafb8"
     stroke-width="6.7816"
     stroke-miterlimit="10"
     id="path904" />
  <path
     d="m 123.43465,163.93465 v 25.8 l 71.2,-16.2 V 91.134646 l -18.8,4"
     stroke="#1aafb8"
     stroke-width="6.7816"
     stroke-miterlimit="10"
     id="path906" />
  <path
     d="m 123.43465,163.93465 52.4,-12 V 69.534646 l -36.3,7.3 c -9.3,1.9 -16.1,10.3 -16.1,20.1 z"
     stroke="#1aafb8"
     stroke-width="6.7816"
     stroke-miterlimit="10"
     id="path908" />
</svg>
