<?xml version="1.0" encoding="UTF-8" standalone="no"?>
<svg
   width="242.2"
   height="249.8"
   viewBox="0 0 242.2 249.8"
   fill="none"
   version="1.1"
   id="svg1052"
   sodipodi:docname="lifesaver.svg"
   inkscape:version="1.1 (c4e8f9e, 2021-05-24)"
   xmlns:inkscape="http://www.inkscape.org/namespaces/inkscape"
   xmlns:sodipodi="http://sodipodi.sourceforge.net/DTD/sodipodi-0.dtd"
   xmlns="http://www.w3.org/2000/svg"
   xmlns:svg="http://www.w3.org/2000/svg">
  <defs
     id="defs1056" />
  <sodipodi:namedview
     id="namedview1054"
     pagecolor="#ffffff"
     bordercolor="#666666"
     borderopacity="1.0"
     inkscape:pageshadow="2"
     inkscape:pageopacity="0.0"
     inkscape:pagecheckerboard="0"
     showgrid="false"
     inkscape:zoom="0.32574648"
     inkscape:cx="185.72726"
     inkscape:cy="-39.908337"
     inkscape:window-width="1440"
     inkscape:window-height="792"
     inkscape:window-x="0"
     inkscape:window-y="25"
     inkscape:window-maximized="1"
     inkscape:current-layer="svg1052" />
  <path
     d="m 121.1,249.3 c 66.6,0 120.6,-55.7 120.6,-124.4 C 241.7,56.2 187.7,0.5 121.1,0.5 54.5,0.5 0.5,56.2 0.5,124.9 c 0,68.7 53.9,124.4 120.6,124.4 z"
     fill="#ffffff"
     stroke="#0785df"
     stroke-miterlimit="10"
     id="path854" />
  <path
     d="m 121.1,152.5 c 17,0 30.8,-14.2 30.8,-31.8 0,-17.6 -13.8,-31.8 -30.8,-31.8 -17,0 -30.8,14.2 -30.8,31.8 -0.1,17.6 13.7,31.8 30.8,31.8 z"
     stroke="#0785df"
     stroke-width="6.3446"
     stroke-miterlimit="10"
     id="path874" />
  <path
     d="m 121.1,186.6 c 35.3,0 63.9,-29.5 63.9,-65.9 0,-36.4 -28.6,-65.9 -63.9,-65.9 -35.3,0 -63.9,29.5 -63.9,65.9 0,36.4 28.6,65.9 63.9,65.9 z"
     stroke="#0785df"
     stroke-width="6.3446"
     stroke-miterlimit="10"
     id="path876" />
  <path
     d="M 92,113.2 60.6,98 87.8,64.5 107.9,93.9"
     fill="#0785df"
     id="path878" />
  <path
     d="m 134.8,150.1 19.8,29.3 27.4,-33.7 -31.6,-15.1"
     fill="#0785df"
     id="path880" />
  <path
     d="M 112.8,152 98,184.6 65.5,156.4 94,135.9"
     fill="#0785df"
     id="path882" />
  <path
     d="M 148.6,108.1 177.1,87.6 144.4,59.4 129.8,92"
     fill="#0785df"
     id="path884" />
</svg>
