<?xml version="1.0" encoding="UTF-8" standalone="no"?>
<svg
   width="246.86929"
   height="254.4693"
   viewBox="0 0 246.8693 254.4693"
   fill="none"
   version="1.1"
   id="svg1052"
   sodipodi:docname="lifesaver.svg"
   inkscape:version="1.1 (c4e8f9e, 2021-05-24)"
   xmlns:inkscape="http://www.inkscape.org/namespaces/inkscape"
   xmlns:sodipodi="http://sodipodi.sourceforge.net/DTD/sodipodi-0.dtd"
   xmlns="http://www.w3.org/2000/svg"
   xmlns:svg="http://www.w3.org/2000/svg">
  <defs
     id="defs1056" />
  <sodipodi:namedview
     id="namedview1054"
     pagecolor="#ffffff"
     bordercolor="#666666"
     borderopacity="1.0"
     inkscape:pageshadow="2"
     inkscape:pageopacity="0.0"
     inkscape:pagecheckerboard="0"
     showgrid="false"
     inkscape:zoom="0.32574648"
     inkscape:cx="188.79713"
     inkscape:cy="-35.303528"
     inkscape:window-width="1440"
     inkscape:window-height="791"
     inkscape:window-x="0"
     inkscape:window-y="25"
     inkscape:window-maximized="1"
     inkscape:current-layer="svg1052" />
  <path
     d="m 123.43465,251.63465 c 66.6,0 120.6,-55.7 120.6,-124.4 0,-68.700005 -54,-124.400005 -120.6,-124.400005 -66.600005,0 -120.600005,55.7 -120.600005,124.400005 0,68.7 53.9,124.4 120.600005,124.4 z"
     fill="#ffffff"
     stroke="#0785df"
     stroke-miterlimit="10"
     id="path854"
     style="stroke-width:5.66929;stroke-miterlimit:10;stroke-dasharray:none" />
  <path
     d="m 123.43465,154.83465 c 17,0 30.8,-14.2 30.8,-31.8 0,-17.6 -13.8,-31.800005 -30.8,-31.800005 -17,0 -30.800005,14.200005 -30.800005,31.800005 -0.1,17.6 13.700005,31.8 30.800005,31.8 z"
     stroke="#0785df"
     stroke-width="6.3446"
     stroke-miterlimit="10"
     id="path874" />
  <path
     d="m 123.43465,188.93465 c 35.3,0 63.9,-29.5 63.9,-65.9 0,-36.400005 -28.6,-65.900005 -63.9,-65.900005 -35.300005,0 -63.900005,29.5 -63.900005,65.900005 0,36.4 28.6,65.9 63.900005,65.9 z"
     stroke="#0785df"
     stroke-width="6.3446"
     stroke-miterlimit="10"
     id="path876" />
  <path
     d="m 94.334645,115.53465 -31.4,-15.2 27.2,-33.500005 20.100005,29.4"
     fill="#0785df"
     id="path878" />
  <path
     d="m 137.13465,152.43465 19.8,29.3 27.4,-33.7 -31.6,-15.1"
     fill="#0785df"
     id="path880" />
  <path
     d="m 115.13465,154.33465 -14.8,32.6 -32.500005,-28.2 28.5,-20.5"
     fill="#0785df"
     id="path882" />
  <path
     d="m 150.93465,110.43465 28.5,-20.500005 -32.7,-28.2 -14.6,32.6"
     fill="#0785df"
     id="path884" />
</svg>
