<?xml version="1.0" encoding="UTF-8" standalone="no"?>
<svg
   width="246.86943"
   height="254.46928"
   viewBox="0 0 246.86943 254.46928"
   fill="none"
   version="1.1"
   id="svg1052"
   sodipodi:docname="model.svg"
   inkscape:version="1.1 (c4e8f9e, 2021-05-24)"
   xmlns:inkscape="http://www.inkscape.org/namespaces/inkscape"
   xmlns:sodipodi="http://sodipodi.sourceforge.net/DTD/sodipodi-0.dtd"
   xmlns="http://www.w3.org/2000/svg"
   xmlns:svg="http://www.w3.org/2000/svg">
  <defs
     id="defs1056" />
  <sodipodi:namedview
     id="namedview1054"
     pagecolor="#ffffff"
     bordercolor="#666666"
     borderopacity="1.0"
     inkscape:pageshadow="2"
     inkscape:pageopacity="0.0"
     inkscape:pagecheckerboard="0"
     showgrid="false"
     inkscape:zoom="0.32574648"
     inkscape:cx="962.40487"
     inkscape:cy="498.8542"
     inkscape:window-width="1440"
     inkscape:window-height="791"
     inkscape:window-x="0"
     inkscape:window-y="25"
     inkscape:window-maximized="1"
     inkscape:current-layer="svg1052" />
  <path
     d="m 123.43479,251.63465 c 66.6,0 120.6,-55.7 120.6,-124.4 0,-68.700004 -54,-124.4000043 -120.6,-124.4000043 -66.600005,0 -120.6000058,55.7000003 -120.6000058,124.4000043 -0.1,68.7 53.9000008,124.4 120.6000058,124.4 z"
     fill="#ffffff"
     stroke="#0785df"
     stroke-miterlimit="10"
     id="path836"
     style="stroke-width:5.66929;stroke-miterlimit:10;stroke-dasharray:none" />
  <path
     d="M 191.43479,183.63465 H 55.334785 c -2.2,0 -4,-1.9 -4,-4.1 V 97.634646 c 0,-2.3 1.8,-4.1 4,-4.1 H 191.43479 c 2.2,0 4,1.9 4,4.1 v 81.900004 c 0,2.3 -1.8,4.1 -4,4.1 z"
     stroke="#0785df"
     stroke-width="6.7816"
     stroke-miterlimit="10"
     id="path866" />
  <path
     d="m 126.53479,162.83465 c 13.2,0 23.9,-11 23.9,-24.7 0,-13.6 -10.7,-24.7 -23.9,-24.7 -13.2,0 -23.9,11 -23.9,24.7 0,13.6 10.7,24.7 23.9,24.7 z"
     stroke="#0785df"
     stroke-width="6.7816"
     stroke-miterlimit="10"
     id="path868" />
  <path
     d="m 94.334785,93.734646 v -17.5 c 0,-4.1 3.3,-7.3 7.099995,-7.3 h 48.40001 c 4,0 7.1,3.4 7.1,7.3 v 17.5"
     stroke="#0785df"
     stroke-width="6.7816"
     stroke-miterlimit="10"
     id="path870" />
  <path
     d="m 77.234785,129.83465 c 5.8,0 10.6,-4.9 10.6,-10.9 0,-6 -4.7,-10.9 -10.6,-10.9 -5.8,0 -10.6,4.9 -10.6,10.9 0,6 4.8,10.9 10.6,10.9 z"
     fill="#0785df"
     id="path872" />
</svg>
