<?xml version="1.0" encoding="UTF-8" standalone="no"?>
<svg
   width="242.20013"
   height="249.8"
   viewBox="0 0 242.20013 249.8"
   fill="none"
   version="1.1"
   id="svg1052"
   sodipodi:docname="model.svg"
   inkscape:version="1.1 (c4e8f9e, 2021-05-24)"
   xmlns:inkscape="http://www.inkscape.org/namespaces/inkscape"
   xmlns:sodipodi="http://sodipodi.sourceforge.net/DTD/sodipodi-0.dtd"
   xmlns="http://www.w3.org/2000/svg"
   xmlns:svg="http://www.w3.org/2000/svg">
  <defs
     id="defs1056" />
  <sodipodi:namedview
     id="namedview1054"
     pagecolor="#ffffff"
     bordercolor="#666666"
     borderopacity="1.0"
     inkscape:pageshadow="2"
     inkscape:pageopacity="0.0"
     inkscape:pagecheckerboard="0"
     showgrid="false"
     inkscape:zoom="0.32574648"
     inkscape:cx="959.33501"
     inkscape:cy="494.2494"
     inkscape:window-width="1440"
     inkscape:window-height="792"
     inkscape:window-x="0"
     inkscape:window-y="25"
     inkscape:window-maximized="1"
     inkscape:current-layer="svg1052" />
  <path
     d="m 121.10014,249.3 c 66.6,0 120.6,-55.7 120.6,-124.4 0,-68.7 -54,-124.4 -120.6,-124.4 C 54.500139,0.5 0.50013862,56.2 0.50013862,124.9 c -0.1,68.7 53.90000038,124.4 120.60000138,124.4 z"
     fill="#ffffff"
     stroke="#0785df"
     stroke-miterlimit="10"
     id="path836" />
  <path
     d="M 189.10014,181.3 H 53.000139 c -2.2,0 -4,-1.9 -4,-4.1 V 95.3 c 0,-2.3 1.8,-4.1 4,-4.1 H 189.10014 c 2.2,0 4,1.9 4,4.1 v 81.9 c 0,2.3 -1.8,4.1 -4,4.1 z"
     stroke="#0785df"
     stroke-width="6.7816"
     stroke-miterlimit="10"
     id="path866" />
  <path
     d="m 124.20014,160.5 c 13.2,0 23.9,-11 23.9,-24.7 0,-13.6 -10.7,-24.7 -23.9,-24.7 -13.2,0 -23.9,11 -23.9,24.7 0,13.6 10.7,24.7 23.9,24.7 z"
     stroke="#0785df"
     stroke-width="6.7816"
     stroke-miterlimit="10"
     id="path868" />
  <path
     d="M 92.000139,91.4 V 73.9 c 0,-4.1 3.3,-7.3 7.1,-7.3 h 48.400001 c 4,0 7.1,3.4 7.1,7.3 v 17.5"
     stroke="#0785df"
     stroke-width="6.7816"
     stroke-miterlimit="10"
     id="path870" />
  <path
     d="m 74.900139,127.5 c 5.8,0 10.6,-4.9 10.6,-10.9 0,-6 -4.7,-10.9 -10.6,-10.9 -5.8,0 -10.6,4.9 -10.6,10.9 0,6 4.8,10.9 10.6,10.9 z"
     fill="#0785df"
     id="path872" />
</svg>
