<?xml version="1.0" encoding="UTF-8" standalone="no"?>
<!-- Generator: Adobe Illustrator 24.1.0, SVG Export Plug-In . SVG Version: 6.00 Build 0)  -->

<svg
   version="1.1"
   id="Layer_1"
   x="0px"
   y="0px"
   viewBox="0 0 600 600"
   xml:space="preserve"
   sodipodi:docname="radical.svg"
   width="600"
   height="600"
   inkscape:version="1.1 (c4e8f9e, 2021-05-24)"
   xmlns:inkscape="http://www.inkscape.org/namespaces/inkscape"
   xmlns:sodipodi="http://sodipodi.sourceforge.net/DTD/sodipodi-0.dtd"
   xmlns="http://www.w3.org/2000/svg"
   xmlns:svg="http://www.w3.org/2000/svg"><defs
   id="defs429">
	
	
	

		
		
		
		
		
		
		
		
		
		
		
		
		
		
		
	
		
		
		
		
		
		
		
		
		
		
		
		
		
		
		
		
		
		
		
		
	
		
		
		
		
		
	</defs><sodipodi:namedview
   id="namedview427"
   pagecolor="#ffffff"
   bordercolor="#666666"
   borderopacity="1.0"
   inkscape:pageshadow="2"
   inkscape:pageopacity="0.0"
   inkscape:pagecheckerboard="0"
   showgrid="false"
   inkscape:zoom="0.53518519"
   inkscape:cx="468.06228"
   inkscape:cy="366.22837"
   inkscape:window-width="1296"
   inkscape:window-height="806"
   inkscape:window-x="0"
   inkscape:window-y="23"
   inkscape:window-maximized="0"
   inkscape:current-layer="Layer_1" />
<style
   type="text/css"
   id="style2">
	.st0{fill:#1AAFB8;}
	.st1{fill:#FDFCDE;}
	.st2{fill:#FDD9B9;}
	.st3{fill:#ED726A;}
	.st4{fill-rule:evenodd;clip-rule:evenodd;fill:#FFFFFF;stroke:#0785DF;stroke-miterlimit:10;}
	.st5{fill-rule:evenodd;clip-rule:evenodd;fill:#FFFFFF;stroke:#ED726A;stroke-miterlimit:10;}
	.st6{fill-rule:evenodd;clip-rule:evenodd;fill:#FFFFFF;stroke:#1AAFB8;stroke-miterlimit:10;}
	.st7{fill:none;stroke:#0785DF;stroke-width:6.7816;stroke-miterlimit:10;}
	.st8{fill:#0785DF;}
	.st9{fill:none;stroke:#0785DF;stroke-width:6.3446;stroke-miterlimit:10;}
	.st10{fill:#0785DF;stroke:#0785DF;stroke-width:2.448;stroke-miterlimit:10;}
	.st11{fill:none;stroke:#0785DF;stroke-width:6.25;stroke-miterlimit:10;}
	.st12{fill:none;stroke:#1AAFB8;stroke-width:6.3328;stroke-miterlimit:10;}
	.st13{fill:none;stroke:#1AAFB8;stroke-width:6.7816;stroke-miterlimit:10;}
	.st14{fill:none;stroke:#1AAFB8;stroke-width:7;stroke-miterlimit:10;}
	.st15{fill:none;stroke:#ED726A;stroke-width:6;stroke-miterlimit:10;}
	.st16{fill:none;stroke:#0785DF;stroke-width:6;stroke-miterlimit:10;}
	.st17{fill:none;stroke:#1AAFB8;stroke-width:6.6637;stroke-miterlimit:10;}
	.st18{fill:none;stroke:#ED726A;stroke-width:6.4437;stroke-miterlimit:10;}
	.st19{fill:none;stroke:#0785DF;stroke-width:5.2549;stroke-miterlimit:10;}
	.st20{fill:none;stroke:#0785DF;stroke-width:5;stroke-miterlimit:10;}
	.st21{fill:none;stroke:#0785DF;stroke-width:5.072;stroke-miterlimit:10;}
	.st22{fill:none;stroke:#ED726A;stroke-width:7;stroke-miterlimit:10;}
	.st23{fill:none;stroke:#ED726A;stroke-width:6.5513;stroke-miterlimit:10;}
	.st24{fill:none;stroke:#ED726A;stroke-width:6.3434;stroke-miterlimit:10;}
	.st25{fill-rule:evenodd;clip-rule:evenodd;fill:none;stroke:#1AAFB8;stroke-width:6.4563;stroke-miterlimit:10;}
	.st26{fill:none;stroke:#ED726A;stroke-width:8;stroke-miterlimit:10;}
	.st27{fill:#FFFFFF;}
</style>

<g
   id="g4766"
   transform="matrix(4.5045046,0,0,4.5045046,-4379.2796,-3374.3245)"><circle
     class="st6"
     cx="1038.8"
     cy="815.70001"
     r="66.099998"
     id="circle44" /><g
     id="g172">
			<path
   class="st17"
   d="m 1062.4,827 c 0.6,-0.7 1.2,-1.4 1.8,-2.2 l 0.4,-0.5 c 7,-9.8 5.8,-24.2 -2.2,-33.2 -7.4,-8.4 -18.3,-13.4 -28.6,-8.9 7.2,2.2 11.8,4.8 16.6,9.8 6.8,7 6.8,19.3 0.3,26.6 -6.5,7.3 -18.4,8.8 -26.7,3.7 -4.7,6.5 -9.4,13.1 -14.1,19.6 2.9,2 8.4,5.8 11.3,7.8 3.3,-4.7 10,-14 10,-14 0,0 0.5,-0.3 1,-0.1 7,3.1 14.3,2.2 20.8,-1.2"
   id="path162" />
			<g
   id="g170">
				
					<rect
   x="1057.4"
   y="825.20001"
   transform="matrix(-0.5878,0.809,-0.809,-0.5878,2364.4163,465.287)"
   class="st17"
   width="12.5"
   height="19.6"
   id="rect164" />
				<path
   class="st17"
   d="m 1014,819.5 15.5,-21.3 -6.2,-4.5 c -3.1,-2.2 -7.4,-1.6 -9.7,1.5 l -11.4,15.7 z"
   id="path166" />
				<line
   class="st17"
   x1="1022.5"
   y1="807.79999"
   x2="1054.4"
   y2="828"
   id="line168" />
			</g>
		</g></g>

</svg>
