<?xml version="1.0" encoding="UTF-8" standalone="no"?>
<svg
   width="246.86929"
   height="254.46928"
   viewBox="0 0 246.8693 254.46928"
   fill="none"
   version="1.1"
   id="svg1052"
   sodipodi:docname="radical.svg"
   inkscape:version="1.1 (c4e8f9e, 2021-05-24)"
   xmlns:inkscape="http://www.inkscape.org/namespaces/inkscape"
   xmlns:sodipodi="http://sodipodi.sourceforge.net/DTD/sodipodi-0.dtd"
   xmlns="http://www.w3.org/2000/svg"
   xmlns:svg="http://www.w3.org/2000/svg">
  <defs
     id="defs1056" />
  <sodipodi:namedview
     id="namedview1054"
     pagecolor="#ffffff"
     bordercolor="#666666"
     borderopacity="1.0"
     inkscape:pageshadow="2"
     inkscape:pageopacity="0.0"
     inkscape:pagecheckerboard="0"
     showgrid="false"
     inkscape:zoom="0.32574648"
     inkscape:cx="182.65738"
     inkscape:cy="-122.79488"
     inkscape:window-width="1440"
     inkscape:window-height="792"
     inkscape:window-x="0"
     inkscape:window-y="25"
     inkscape:window-maximized="1"
     inkscape:current-layer="svg1052" />
  <path
     d="m 123.43465,251.63465 c 66.6,0 120.6,-55.7 120.6,-124.4 0,-68.700004 -54,-124.4000043 -120.6,-124.4000043 -66.600004,0 -120.6000043,55.7000003 -120.6000043,124.4000043 0,68.7 54.0000003,124.4 120.6000043,124.4 z"
     fill="#ffffff"
     stroke="#1aafb8"
     stroke-miterlimit="10"
     id="path856"
     style="stroke-width:5.66929;stroke-miterlimit:10;stroke-dasharray:none" />
  <path
     d="m 166.53465,148.43465 c 1.1,-1.3 2.2,-2.6 3.3,-4.1 l 0.7,-0.9 c 12.8,-18.4 10.6,-45.500004 -4,-62.500004 -13.5,-15.8 -33.4,-25.2 -52.2,-16.7 13.1,4.1 21.5,9 30.3,18.4 12.4,13.2 12.4,36.300004 0.5,50.100004 -11.9,13.7 -33.6,16.6 -48.700004,7 -8.6,12.2 -17.2,24.7 -25.7,36.9 5.3,3.8 15.3,10.9 20.6,14.7 6,-8.8 18.200004,-26.3 18.200004,-26.3 0,0 0.9,-0.6 1.8,-0.2 12.8,5.8 26.1,4.1 38,-2.3"
     stroke="#1aafb8"
     stroke-width="6.6637"
     stroke-miterlimit="10"
     id="path948" />
  <path
     d="m 176.63465,183.83465 13.4,-19 -28.9,-21.7 -13.4,19 z"
     stroke="#1aafb8"
     stroke-width="6.6637"
     stroke-miterlimit="10"
     id="path950" />
  <path
     d="m 78.234646,134.33465 28.300004,-40.100004 -11.300004,-8.5 c -5.7,-4.1 -13.5,-3 -17.7,2.8 l -20.8,29.500004 z"
     stroke="#1aafb8"
     stroke-width="6.6637"
     stroke-miterlimit="10"
     id="path952" />
  <path
     d="m 93.734646,112.33465 58.200004,38"
     stroke="#1aafb8"
     stroke-width="6.6637"
     stroke-miterlimit="10"
     id="path954" />
</svg>
