<?xml version="1.0" encoding="UTF-8" standalone="no"?>
<svg
   width="242.2"
   height="249.8"
   viewBox="0 0 242.2 249.8"
   fill="none"
   version="1.1"
   id="svg1052"
   sodipodi:docname="radical.svg"
   inkscape:version="1.1 (c4e8f9e, 2021-05-24)"
   xmlns:inkscape="http://www.inkscape.org/namespaces/inkscape"
   xmlns:sodipodi="http://sodipodi.sourceforge.net/DTD/sodipodi-0.dtd"
   xmlns="http://www.w3.org/2000/svg"
   xmlns:svg="http://www.w3.org/2000/svg">
  <defs
     id="defs1056" />
  <sodipodi:namedview
     id="namedview1054"
     pagecolor="#ffffff"
     bordercolor="#666666"
     borderopacity="1.0"
     inkscape:pageshadow="2"
     inkscape:pageopacity="0.0"
     inkscape:pagecheckerboard="0"
     showgrid="false"
     inkscape:zoom="0.32574648"
     inkscape:cx="179.58751"
     inkscape:cy="-125.86475"
     inkscape:window-width="1440"
     inkscape:window-height="792"
     inkscape:window-x="0"
     inkscape:window-y="25"
     inkscape:window-maximized="1"
     inkscape:current-layer="svg1052" />
  <path
     d="m 121.1,249.3 c 66.6,0 120.6,-55.7 120.6,-124.4 C 241.7,56.2 187.7,0.5 121.1,0.5 54.5,0.5 0.5,56.2 0.5,124.9 c 0,68.7 54,124.4 120.6,124.4 z"
     fill="#ffffff"
     stroke="#1aafb8"
     stroke-miterlimit="10"
     id="path856" />
  <path
     d="m 164.2,146.1 c 1.1,-1.3 2.2,-2.6 3.3,-4.1 l 0.7,-0.9 C 181,122.7 178.8,95.6 164.2,78.6 150.7,62.8 130.8,53.4 112,61.9 c 13.1,4.1 21.5,9 30.3,18.4 12.4,13.2 12.4,36.3 0.5,50.1 -11.9,13.7 -33.6,16.6 -48.7,7 -8.6,12.2 -17.2,24.7 -25.7,36.9 5.3,3.8 15.3,10.9 20.6,14.7 6,-8.8 18.2,-26.3 18.2,-26.3 0,0 0.9,-0.6 1.8,-0.2 12.8,5.8 26.1,4.1 38,-2.3"
     stroke="#1aafb8"
     stroke-width="6.6637"
     stroke-miterlimit="10"
     id="path948" />
  <path
     d="m 174.3,181.5 13.4,-19 -28.9,-21.7 -13.4,19 z"
     stroke="#1aafb8"
     stroke-width="6.6637"
     stroke-miterlimit="10"
     id="path950" />
  <path
     d="M 75.9,132 104.2,91.9 92.9,83.4 c -5.7,-4.1 -13.5,-3 -17.7,2.8 l -20.8,29.5 z"
     stroke="#1aafb8"
     stroke-width="6.6637"
     stroke-miterlimit="10"
     id="path952" />
  <path
     d="m 91.4,110 58.2,38"
     stroke="#1aafb8"
     stroke-width="6.6637"
     stroke-miterlimit="10"
     id="path954" />
</svg>
