<?xml version="1.0" encoding="UTF-8" standalone="no"?>
<svg
   width="242.2"
   height="249.8"
   viewBox="0 0 242.2 249.8"
   fill="none"
   version="1.1"
   id="svg1052"
   sodipodi:docname="raver.svg"
   inkscape:version="1.1 (c4e8f9e, 2021-05-24)"
   xmlns:inkscape="http://www.inkscape.org/namespaces/inkscape"
   xmlns:sodipodi="http://sodipodi.sourceforge.net/DTD/sodipodi-0.dtd"
   xmlns="http://www.w3.org/2000/svg"
   xmlns:svg="http://www.w3.org/2000/svg">
  <defs
     id="defs1056" />
  <sodipodi:namedview
     id="namedview1054"
     pagecolor="#ffffff"
     bordercolor="#666666"
     borderopacity="1.0"
     inkscape:pageshadow="2"
     inkscape:pageopacity="0.0"
     inkscape:pagecheckerboard="0"
     showgrid="false"
     inkscape:zoom="0.32574648"
     inkscape:cx="462.01574"
     inkscape:cy="-224.10066"
     inkscape:window-width="1440"
     inkscape:window-height="792"
     inkscape:window-x="0"
     inkscape:window-y="25"
     inkscape:window-maximized="1"
     inkscape:current-layer="svg1052" />
  <path
     d="m 121.1,249.3 c 66.6,0 120.6,-55.7 120.6,-124.4 C 241.7,56.2 187.7,0.5 121.1,0.5 54.5,0.5 0.5,56.2 0.5,124.9 c 0,68.7 54,124.4 120.6,124.4 z"
     fill="#ffffff"
     stroke="#0785df"
     stroke-miterlimit="10"
     id="path848" />
  <path
     d="m 79.9,131.6 c 3.1,20.9 20.6,36.9 41.8,36.9 21.3,0 39.1,-16.4 42,-37.6"
     stroke="#0785df"
     stroke-width="6.25"
     stroke-miterlimit="10"
     id="path888" />
  <path
     d="m 121.7,195.4 c 37.8,0 68.4,-31.6 68.4,-70.6 0,-39 -30.6,-70.6 -68.4,-70.6 -37.8,0 -68.4,31.6 -68.4,70.6 -0.1,39 30.6,70.6 68.4,70.6 z"
     stroke="#0785df"
     stroke-width="6.25"
     stroke-miterlimit="10"
     id="path890" />
  <path
     d="M 68.2,130.9 H 89.9"
     stroke="#0785df"
     stroke-width="6.25"
     stroke-miterlimit="10"
     id="path892" />
  <path
     d="m 151.1,130.9 h 21.7"
     stroke="#0785df"
     stroke-width="6.25"
     stroke-miterlimit="10"
     id="path894" />
  <path
     d="m 105.1,122.6 c 5.9,0 10.8,-10.3 10.8,-23 0,-12.7 -4.8,-23 -10.8,-23 -5.9,0 -10.8,10.3 -10.8,23 0,12.7 4.8,23 10.8,23 z"
     fill="#0785df"
     id="path896" />
  <path
     d="m 141.7,122.6 c 5.9,0 10.8,-10.3 10.8,-23 0,-12.7 -4.8,-23 -10.8,-23 -6,0 -10.8,10.3 -10.8,23 0.1,12.7 4.9,23 10.8,23 z"
     fill="#0785df"
     id="path898" />
</svg>
