<?xml version="1.0" encoding="UTF-8" standalone="no"?>
<svg
   width="246.86929"
   height="254.46928"
   viewBox="0 0 246.8693 254.46928"
   fill="none"
   version="1.1"
   id="svg1052"
   sodipodi:docname="raver.svg"
   inkscape:version="1.1 (c4e8f9e, 2021-05-24)"
   xmlns:inkscape="http://www.inkscape.org/namespaces/inkscape"
   xmlns:sodipodi="http://sodipodi.sourceforge.net/DTD/sodipodi-0.dtd"
   xmlns="http://www.w3.org/2000/svg"
   xmlns:svg="http://www.w3.org/2000/svg">
  <defs
     id="defs1056" />
  <sodipodi:namedview
     id="namedview1054"
     pagecolor="#ffffff"
     bordercolor="#666666"
     borderopacity="1.0"
     inkscape:pageshadow="2"
     inkscape:pageopacity="0.0"
     inkscape:pagecheckerboard="0"
     showgrid="false"
     inkscape:zoom="0.32574648"
     inkscape:cx="465.08561"
     inkscape:cy="-221.03078"
     inkscape:window-width="1440"
     inkscape:window-height="792"
     inkscape:window-x="0"
     inkscape:window-y="25"
     inkscape:window-maximized="1"
     inkscape:current-layer="svg1052" />
  <path
     d="m 123.43465,251.63465 c 66.6,0 120.6,-55.7 120.6,-124.4 0,-68.700004 -54,-124.4000043 -120.6,-124.4000043 -66.600004,0 -120.6000043,55.7000003 -120.6000043,124.4000043 0,68.7 54.0000003,124.4 120.6000043,124.4 z"
     fill="#ffffff"
     stroke="#0785df"
     stroke-miterlimit="10"
     id="path848"
     style="stroke-width:5.66929;stroke-miterlimit:10;stroke-dasharray:none" />
  <path
     d="m 82.234646,133.93465 c 3.1,20.9 20.600004,36.9 41.800004,36.9 21.3,0 39.1,-16.4 42,-37.6"
     stroke="#0785df"
     stroke-width="6.25"
     stroke-miterlimit="10"
     id="path888" />
  <path
     d="m 124.03465,197.73465 c 37.8,0 68.4,-31.6 68.4,-70.6 0,-39.000004 -30.6,-70.600004 -68.4,-70.600004 -37.800004,0 -68.400004,31.6 -68.400004,70.600004 -0.1,39 30.6,70.6 68.400004,70.6 z"
     stroke="#0785df"
     stroke-width="6.25"
     stroke-miterlimit="10"
     id="path890" />
  <path
     d="m 70.534646,133.23465 h 21.7"
     stroke="#0785df"
     stroke-width="6.25"
     stroke-miterlimit="10"
     id="path892" />
  <path
     d="m 153.43465,133.23465 h 21.7"
     stroke="#0785df"
     stroke-width="6.25"
     stroke-miterlimit="10"
     id="path894" />
  <path
     d="m 107.43465,124.93465 c 5.9,0 10.8,-10.3 10.8,-23 0,-12.700004 -4.8,-23.000004 -10.8,-23.000004 -5.9,0 -10.800004,10.3 -10.800004,23.000004 0,12.7 4.800004,23 10.800004,23 z"
     fill="#0785df"
     id="path896" />
  <path
     d="m 144.03465,124.93465 c 5.9,0 10.8,-10.3 10.8,-23 0,-12.700004 -4.8,-23.000004 -10.8,-23.000004 -6,0 -10.8,10.3 -10.8,23.000004 0.1,12.7 4.9,23 10.8,23 z"
     fill="#0785df"
     id="path898" />
</svg>
