<?xml version="1.0" encoding="UTF-8" standalone="no"?>
<svg
   width="242.2"
   height="249.8"
   viewBox="0 0 242.2 249.8"
   fill="none"
   version="1.1"
   id="svg1052"
   sodipodi:docname="spiritual.svg"
   inkscape:version="1.1 (c4e8f9e, 2021-05-24)"
   xmlns:inkscape="http://www.inkscape.org/namespaces/inkscape"
   xmlns:sodipodi="http://sodipodi.sourceforge.net/DTD/sodipodi-0.dtd"
   xmlns="http://www.w3.org/2000/svg"
   xmlns:svg="http://www.w3.org/2000/svg">
  <defs
     id="defs1056" />
  <sodipodi:namedview
     id="namedview1054"
     pagecolor="#ffffff"
     bordercolor="#666666"
     borderopacity="1.0"
     inkscape:pageshadow="2"
     inkscape:pageopacity="0.0"
     inkscape:pagecheckerboard="0"
     showgrid="false"
     inkscape:zoom="0.32574648"
     inkscape:cx="514.20357"
     inkscape:cy="-113.58527"
     inkscape:window-width="1440"
     inkscape:window-height="792"
     inkscape:window-x="0"
     inkscape:window-y="25"
     inkscape:window-maximized="1"
     inkscape:current-layer="svg1052" />
  <path
     d="m 121.1,249.3 c 66.6,0 120.6,-55.7 120.6,-124.4 C 241.7,56.2 187.7,0.5 121.1,0.5 54.5,0.5 0.5,56.2 0.5,124.9 c 0,68.7 53.9,124.4 120.6,124.4 z"
     fill="#ffffff"
     stroke="#0785df"
     stroke-miterlimit="10"
     id="path860" />
  <path
     d="m 128,101.2 c 15.9,1.1 27.7,5.8 27.7,11.3 0,6.4 -15.5,11.7 -34.7,11.7 -19.2,0 -34.7,-5.3 -34.7,-11.7 0,-5.5 11.5,-10.2 26.8,-11.3"
     stroke="#0785df"
     stroke-width="6"
     stroke-miterlimit="10"
     id="path940" />
  <path
     d="m 135.7,87.4 c 0,-8.1 -11.1,-26.9 -15,-29.5 -4,3 -15,21.5 -15,29.5 0,8 10.6,16.4 15,16.4 4.4,0.2 15,-8.1 15,-16.4 z"
     stroke="#0785df"
     stroke-width="6"
     stroke-miterlimit="10"
     id="path942" />
  <path
     d="m 120.7,114.9 v -8.5"
     stroke="#0785df"
     stroke-width="6"
     stroke-miterlimit="10"
     id="path944" />
  <path
     d="m 155.7,113.4 v 55.7 3 c 0,6.4 -15.5,11.7 -34.7,11.7 -19.2,0 -34.7,-5.3 -34.7,-11.7 v -3 -55.7"
     stroke="#0785df"
     stroke-width="6"
     stroke-miterlimit="10"
     id="path946" />
</svg>
