<?xml version="1.0" encoding="UTF-8" standalone="no"?>
<svg
   width="242.2"
   height="249.8"
   viewBox="0 0 242.2 249.8"
   fill="none"
   version="1.1"
   id="svg1052"
   sodipodi:docname="sportsknight.svg"
   inkscape:version="1.1 (c4e8f9e, 2021-05-24)"
   xmlns:inkscape="http://www.inkscape.org/namespaces/inkscape"
   xmlns:sodipodi="http://sodipodi.sourceforge.net/DTD/sodipodi-0.dtd"
   xmlns="http://www.w3.org/2000/svg"
   xmlns:svg="http://www.w3.org/2000/svg">
  <defs
     id="defs1056" />
  <sodipodi:namedview
     id="namedview1054"
     pagecolor="#ffffff"
     bordercolor="#666666"
     borderopacity="1.0"
     inkscape:pageshadow="2"
     inkscape:pageopacity="0.0"
     inkscape:pagecheckerboard="0"
     showgrid="false"
     inkscape:zoom="0.32574648"
     inkscape:cx="1146.5972"
     inkscape:cy="125.86475"
     inkscape:window-width="1440"
     inkscape:window-height="792"
     inkscape:window-x="0"
     inkscape:window-y="25"
     inkscape:window-maximized="1"
     inkscape:current-layer="svg1052" />
  <path
     d="m 121.1,249.3 c 66.6,0 120.6,-55.7 120.6,-124.4 C 241.7,56.2 187.7,0.5 121.1,0.5 54.5,0.5 0.5,56.2 0.5,124.9 c 0,68.7 54,124.4 120.6,124.4 z"
     fill="#ffffff"
     stroke="#ed726a"
     stroke-miterlimit="10"
     id="path824" />
  <path
     d="m 160.9,139.2 c 5.5,-2.6 11.7,-4 18.1,-4 2,0 3.8,0.2 5.7,0.4 0,-45.4 -39.1,-75.1 -61.5,-85.4 -25,12.4 -58.8,40.3 -58.8,85.4 0,20.1 5.3,38.6 14.1,52.9 h 54.2 c 0,-0.9 0,-1.9 0,-2.8 0,-9 2.2,-17.5 6,-24.8"
     stroke="#ed726a"
     stroke-width="6.3434"
     stroke-miterlimit="10"
     id="path1018" />
  <path
     d="M 129,135.8 C 115.1,130.9 103.3,125.8 96.9,122.6 76.8,112.6 59.3,97.4 54.7,91 c 0,0 -16.4,13.9 -8.4,65.1 5.5,5.5 34.5,13.7 82.3,-4.3"
     stroke="#ed726a"
     stroke-width="6.3434"
     stroke-miterlimit="10"
     id="path1020" />
  <path
     d="m 87.7,117.5 c -2,9.8 -2.7,24.1 0,44.4"
     stroke="#ed726a"
     stroke-width="6.3434"
     stroke-miterlimit="10"
     id="path1022" />
  <path
     d="m 108.9,127.9 c -0.9,7.7 -1.3,17.5 0,30.1"
     stroke="#ed726a"
     stroke-width="6.3434"
     stroke-miterlimit="10"
     id="path1024" />
  <path
     d="m 161.8,144.1 c 0,-9.6 -7.8,-17.5 -17.3,-17.5 -9.7,0 -17.3,7.9 -17.3,17.5 0,9.6 7.8,17.5 17.3,17.5 9.5,0 17.3,-7.7 17.3,-17.5 z"
     stroke="#ed726a"
     stroke-width="6.3434"
     stroke-miterlimit="10"
     id="path1026" />
  <path
     d="m 123.1,50 v 83.7"
     stroke="#ed726a"
     stroke-width="6.3434"
     stroke-miterlimit="10"
     id="path1028" />
</svg>
