<?xml version="1.0" encoding="UTF-8" standalone="no"?>
<svg
   width="246.86929"
   height="254.46928"
   viewBox="0 0 246.8693 254.46928"
   fill="none"
   version="1.1"
   id="svg1052"
   sodipodi:docname="sportsknight.svg"
   inkscape:version="1.1 (c4e8f9e, 2021-05-24)"
   xmlns:inkscape="http://www.inkscape.org/namespaces/inkscape"
   xmlns:sodipodi="http://sodipodi.sourceforge.net/DTD/sodipodi-0.dtd"
   xmlns="http://www.w3.org/2000/svg"
   xmlns:svg="http://www.w3.org/2000/svg">
  <defs
     id="defs1056" />
  <sodipodi:namedview
     id="namedview1054"
     pagecolor="#ffffff"
     bordercolor="#666666"
     borderopacity="1.0"
     inkscape:pageshadow="2"
     inkscape:pageopacity="0.0"
     inkscape:pagecheckerboard="0"
     showgrid="false"
     inkscape:zoom="0.8673799"
     inkscape:cx="-78.973469"
     inkscape:cy="147.57086"
     inkscape:window-width="1440"
     inkscape:window-height="792"
     inkscape:window-x="0"
     inkscape:window-y="25"
     inkscape:window-maximized="1"
     inkscape:current-layer="svg1052" />
  <path
     d="m 123.43465,251.63465 c 66.6,0 120.6,-55.7 120.6,-124.4 0,-68.700004 -54,-124.4000043 -120.6,-124.4000043 -66.600004,0 -120.6000043,55.7000003 -120.6000043,124.4000043 0,68.7 54.0000003,124.4 120.6000043,124.4 z"
     fill="#ffffff"
     stroke="#ed726a"
     stroke-miterlimit="10"
     id="path824"
     style="stroke-width:5.66929;stroke-miterlimit:10;stroke-dasharray:none" />
  <path
     d="m 163.23465,141.53465 c 5.5,-2.6 11.7,-4 18.1,-4 2,0 3.8,0.2 5.7,0.4 0,-45.400004 -39.1,-75.100004 -61.5,-85.400004 -25,12.4 -58.800004,40.3 -58.800004,85.400004 0,20.1 5.3,38.6 14.1,52.9 h 54.200004 c 0,-0.9 0,-1.9 0,-2.8 0,-9 2.2,-17.5 6,-24.8"
     stroke="#ed726a"
     stroke-width="6.3434"
     stroke-miterlimit="10"
     id="path1018" />
  <path
     d="m 131.33465,138.13465 c -13.9,-4.9 -25.7,-10 -32.100004,-13.2 -20.1,-10 -37.6,-25.200004 -42.2,-31.600004 0,0 -16.4,13.900004 -8.4,65.100004 5.5,5.5 34.5,13.7 82.300004,-4.3"
     stroke="#ed726a"
     stroke-width="6.3434"
     stroke-miterlimit="10"
     id="path1020" />
  <path
     d="m 90.034646,119.83465 c -2,9.8 -2.7,24.1 0,44.4"
     stroke="#ed726a"
     stroke-width="6.3434"
     stroke-miterlimit="10"
     id="path1022" />
  <path
     d="m 111.23465,130.23465 c -0.9,7.7 -1.3,17.5 0,30.1"
     stroke="#ed726a"
     stroke-width="6.3434"
     stroke-miterlimit="10"
     id="path1024" />
  <path
     d="m 164.13465,146.43465 c 0,-9.6 -7.8,-17.5 -17.3,-17.5 -9.7,0 -17.3,7.9 -17.3,17.5 0,9.6 7.8,17.5 17.3,17.5 9.5,0 17.3,-7.7 17.3,-17.5 z"
     stroke="#ed726a"
     stroke-width="6.3434"
     stroke-miterlimit="10"
     id="path1026" />
  <path
     d="M 125.43465,52.334646 V 136.03465"
     stroke="#ed726a"
     stroke-width="6.3434"
     stroke-miterlimit="10"
     id="path1028" />
</svg>
