<?xml version="1.0" encoding="UTF-8" standalone="no"?>
<!-- Generator: Adobe Illustrator 24.1.0, SVG Export Plug-In . SVG Version: 6.00 Build 0)  -->

<svg
   version="1.1"
   id="Layer_1"
   x="0px"
   y="0px"
   viewBox="0 0 600 600"
   xml:space="preserve"
   width="600"
   height="600"
   xmlns="http://www.w3.org/2000/svg"
   xmlns:svg="http://www.w3.org/2000/svg"><defs
   id="defs429">
	
	
	

		
		
		
		
		
		
		
		
		
		
		
		
		
		
		
		
		
		
		
		
	
		
		
		
		
		
		
		
		
		
		
		
		
		
		
		
	</defs>
<style
   type="text/css"
   id="style2">
	.st0{fill:#1AAFB8;}
	.st1{fill:#FDFCDE;}
	.st2{fill:#FDD9B9;}
	.st3{fill:#ED726A;}
	.st4{fill-rule:evenodd;clip-rule:evenodd;fill:#FFFFFF;stroke:#0785DF;stroke-miterlimit:10;}
	.st5{fill-rule:evenodd;clip-rule:evenodd;fill:#FFFFFF;stroke:#ED726A;stroke-miterlimit:10;}
	.st6{fill-rule:evenodd;clip-rule:evenodd;fill:#FFFFFF;stroke:#1AAFB8;stroke-miterlimit:10;}
	.st7{fill:none;stroke:#0785DF;stroke-width:6.7816;stroke-miterlimit:10;}
	.st8{fill:#0785DF;}
	.st9{fill:none;stroke:#0785DF;stroke-width:6.3446;stroke-miterlimit:10;}
	.st10{fill:#0785DF;stroke:#0785DF;stroke-width:2.448;stroke-miterlimit:10;}
	.st11{fill:none;stroke:#0785DF;stroke-width:6.25;stroke-miterlimit:10;}
	.st12{fill:none;stroke:#1AAFB8;stroke-width:6.3328;stroke-miterlimit:10;}
	.st13{fill:none;stroke:#1AAFB8;stroke-width:6.7816;stroke-miterlimit:10;}
	.st14{fill:none;stroke:#1AAFB8;stroke-width:7;stroke-miterlimit:10;}
	.st15{fill:none;stroke:#ED726A;stroke-width:6;stroke-miterlimit:10;}
	.st16{fill:none;stroke:#0785DF;stroke-width:6;stroke-miterlimit:10;}
	.st17{fill:none;stroke:#1AAFB8;stroke-width:6.6637;stroke-miterlimit:10;}
	.st18{fill:none;stroke:#ED726A;stroke-width:6.4437;stroke-miterlimit:10;}
	.st19{fill:none;stroke:#0785DF;stroke-width:5.2549;stroke-miterlimit:10;}
	.st20{fill:none;stroke:#0785DF;stroke-width:5;stroke-miterlimit:10;}
	.st21{fill:none;stroke:#0785DF;stroke-width:5.072;stroke-miterlimit:10;}
	.st22{fill:none;stroke:#ED726A;stroke-width:7;stroke-miterlimit:10;}
	.st23{fill:none;stroke:#ED726A;stroke-width:6.5513;stroke-miterlimit:10;}
	.st24{fill:none;stroke:#ED726A;stroke-width:6.3434;stroke-miterlimit:10;}
	.st25{fill-rule:evenodd;clip-rule:evenodd;fill:none;stroke:#1AAFB8;stroke-width:6.4563;stroke-miterlimit:10;}
	.st26{fill:none;stroke:#ED726A;stroke-width:8;stroke-miterlimit:10;}
	.st27{fill:#FFFFFF;}
</style>

<g
   id="g2484"
   transform="matrix(4.5045046,0,0,4.5045046,-1500.4505,-2653.6037)"><circle
     class="st5"
     cx="399.70001"
     cy="655.70001"
     r="66.099998"
     id="circle16" /><g
     id="g290">
			<path
   class="st24"
   d="m 421.5,663.3 c 3,-1.4 6.4,-2.1 9.9,-2.1 1.1,0 2.1,0.1 3.1,0.2 0,0 0,0 0,0 0,-24.1 -21.4,-39.9 -33.7,-45.4 -13.7,6.6 -32.2,21.4 -32.2,45.4 0,10.7 2.9,20.5 7.7,28.1 H 406 c 0,-0.5 0,-1 0,-1.5 0,-4.8 1.2,-9.3 3.3,-13.2"
   id="path276" />
			<g
   id="g284">
				<path
   class="st24"
   d="m 404,661.5 c -7.6,-2.6 -14.1,-5.3 -17.6,-7 -11,-5.3 -20.6,-13.4 -23.1,-16.8 0,0 -9,7.4 -4.6,34.6 3,2.9 18.9,7.3 45.1,-2.3"
   id="path278" />
				<path
   class="st24"
   d="m 381.4,651.8 c -1.1,5.2 -1.5,12.8 0,23.6"
   id="path280" />
				<path
   class="st24"
   d="m 393,657.3 c -0.5,4.1 -0.7,9.3 0,16"
   id="path282" />
			</g>
			<path
   class="st24"
   d="m 422,665.9 c 0,-5.1 -4.3,-9.3 -9.5,-9.3 -5.3,0 -9.5,4.2 -9.5,9.3 0,5.1 4.3,9.3 9.5,9.3 5.2,0 9.5,-4.1 9.5,-9.3 z"
   id="path286" />
			<line
   class="st24"
   x1="400.79999"
   y1="615.90002"
   x2="400.79999"
   y2="660.40002"
   id="line288" />
		</g></g>

</svg>
