<svg width="4096" height="4096" viewBox="0 0 4096 4096" fill="none" xmlns="http://www.w3.org/2000/svg">
<rect width="4096" height="4096" fill="#F07167"/>
<g filter="url(#filter0_d_4295_8354)">
<path d="M2285.95 2042.53C2284.36 2030.87 2282.05 2019.57 2279.03 2008.25L2278.72 2007.12C2269.06 1970.91 2251.17 1936.75 2226.66 1908.07C2212.23 1891.24 2196.25 1877 2179.1 1865.36C2202.15 1840.77 2225.47 1825.93 2249.03 1821.22C2249.03 1821.22 2238.8 1823.43 2259.02 1819.2C2279.25 1814.96 2216.43 1769.76 2203.16 1780.05C2189.89 1790.34 2153.55 1813.04 2130.36 1840.63C2076.83 1820.28 2016.34 1820.4 1962.35 1840.91C1917.7 1858.26 1879.11 1890 1858.36 1926.27C1843.35 1952.93 1839.13 1983.2 1846.8 2008.87C1853.86 2032.28 1871.35 2052.18 1894.87 2063.59C1910.09 2071.06 1926.19 2074.8 1942.8 2075.18C1963.29 2075.65 1984.38 2070.88 2005.72 2060.5C2035 2046.54 2064.43 2021.72 2088.11 1991.14C2102.38 1973.09 2114.95 1953.51 2127.11 1935.04C2132.82 1926.17 2138.51 1917.68 2144.21 1909.18C2166.87 1923.95 2186.49 1943.52 2201.35 1966.73C2209.92 1980.43 2217.02 1995.21 2222.34 2010.33C2223.6 2013.74 2225.95 2016.41 2229.44 2017.62C2235.71 2019.64 2241.6 2022.4 2247.47 2025.53C2258.18 2031.02 2267.38 2038.73 2275.11 2047.53C2279.85 2052.14 2286.73 2048.55 2285.95 2042.53ZM2085.34 1904.84C2073.18 1923.31 2062.13 1940.68 2049.36 1956.88C1984.38 2039.76 1929.12 2018.63 1918.38 2013.51C1908.01 2008.4 1900.26 1999.97 1897.49 1990.91C1894.42 1980.71 1896.82 1966.9 1903.78 1953.93C1918 1929.14 1947.02 1905.43 1979.77 1893.05C2002.09 1884.56 2026.34 1880.24 2050.72 1880.8C2066.26 1881.16 2081.72 1883.38 2096.74 1887.48C2092.58 1893.38 2088.78 1899.29 2085.34 1904.84Z" fill="white"/>
</g>
<path d="M1837.47 2088.44C1839.09 2100.08 1841.43 2111.37 1844.48 2122.67L1844.78 2123.8C1854.54 2159.95 1872.52 2194.01 1897.11 2222.57C1911.6 2239.33 1927.61 2253.49 1944.8 2265.05C1921.8 2289.73 1898.5 2304.66 1874.94 2309.46C1874.94 2309.46 1885.17 2307.21 1864.95 2311.53C1844.72 2315.84 1907.68 2360.76 1920.93 2350.41C1934.19 2340.07 1970.49 2317.24 1993.63 2289.56C2047.25 2309.67 2107.77 2309.3 2161.74 2288.57C2206.37 2271.04 2244.91 2239.16 2265.59 2202.82C2280.55 2176.12 2284.69 2145.84 2276.96 2120.22C2269.83 2096.86 2252.29 2077.04 2228.72 2065.74C2213.47 2058.34 2197.36 2054.66 2180.74 2054.35C2160.24 2053.97 2139.15 2058.83 2117.82 2069.3C2088.55 2083.37 2059.16 2108.3 2035.54 2138.96C2021.31 2157.06 2008.79 2176.68 1996.66 2195.19C1990.97 2204.08 1985.29 2212.59 1979.61 2221.11C1956.9 2206.44 1937.22 2186.97 1922.3 2163.83C1913.69 2150.18 1906.55 2135.44 1901.19 2120.35C1899.92 2116.95 1897.56 2114.29 1894.07 2113.1C1887.79 2111.11 1881.89 2108.37 1876.01 2105.27C1865.28 2099.82 1856.06 2092.16 1848.3 2083.39C1843.55 2078.81 1836.67 2082.43 1837.47 2088.44ZM2038.53 2225.2C2050.65 2206.69 2061.67 2189.28 2074.4 2173.03C2139.22 2089.93 2194.57 2110.82 2205.32 2115.89C2215.71 2120.95 2223.49 2129.34 2226.28 2138.39C2229.38 2148.56 2227.01 2162.38 2220.08 2175.37C2205.91 2200.21 2176.92 2224.03 2144.18 2236.53C2121.87 2245.11 2097.62 2249.53 2073.23 2249.08C2057.67 2248.79 2042.2 2246.63 2027.16 2242.6C2031.3 2236.68 2035.1 2230.76 2038.53 2225.2Z" fill="white"/>
<ellipse rx="19" ry="18.9977" transform="matrix(0.999878 -0.0156477 -0.0150668 0.999886 2187.29 2151.27)" fill="white"/>
<ellipse rx="19" ry="18.9977" transform="matrix(0.999878 -0.015648 -0.0150671 0.999886 1945.29 1966.27)" fill="white"/>
<defs>
<filter id="filter0_d_4295_8354" x="1842.05" y="1778.53" width="444.957" height="298.685" filterUnits="userSpaceOnUse" color-interpolation-filters="sRGB">
<feFlood flood-opacity="0" result="BackgroundImageFix"/>
<feColorMatrix in="SourceAlpha" type="matrix" values="0 0 0 0 0 0 0 0 0 0 0 0 0 0 0 0 0 0 127 0" result="hardAlpha"/>
<feOffset dy="1"/>
<feGaussianBlur stdDeviation="0.5"/>
<feComposite in2="hardAlpha" operator="out"/>
<feColorMatrix type="matrix" values="0 0 0 0 0 0 0 0 0 0 0 0 0 0 0 0 0 0 0.25 0"/>
<feBlend mode="normal" in2="BackgroundImageFix" result="effect1_dropShadow_4295_8354"/>
<feBlend mode="normal" in="SourceGraphic" in2="effect1_dropShadow_4295_8354" result="shape"/>
</filter>
</defs>
</svg>
