<?xml version="1.0" encoding="UTF-8" standalone="no"?>
<svg
   width="584"
   height="477"
   viewBox="0 0 584 477"
   fill="none"
   version="1.1"
   id="svg17"
   sodipodi:docname="chatsicon-orange.svg"
   inkscape:version="1.1 (c4e8f9e, 2021-05-24)"
   xmlns:inkscape="http://www.inkscape.org/namespaces/inkscape"
   xmlns:sodipodi="http://sodipodi.sourceforge.net/DTD/sodipodi-0.dtd"
   xmlns="http://www.w3.org/2000/svg"
   xmlns:svg="http://www.w3.org/2000/svg">
  <defs
     id="defs21" />
  <sodipodi:namedview
     id="namedview19"
     pagecolor="#ffffff"
     bordercolor="#666666"
     borderopacity="1.0"
     inkscape:pageshadow="2"
     inkscape:pageopacity="0.0"
     inkscape:pagecheckerboard="0"
     showgrid="false"
     inkscape:zoom="1.1844864"
     inkscape:cx="124.94867"
     inkscape:cy="238.5"
     inkscape:window-width="1440"
     inkscape:window-height="787"
     inkscape:window-x="0"
     inkscape:window-y="25"
     inkscape:window-maximized="0"
     inkscape:current-layer="svg17" />
  <rect
     width="584"
     height="477"
     fill="white"
     id="rect9" />
  <rect
     x="206"
     y="106"
     width="253"
     height="177"
     rx="65"
     stroke="black"
     stroke-opacity="0.31"
     stroke-width="30"
     id="rect11" />
  <rect
     x="143"
     y="294"
     width="95"
     height="65"
     rx="32.5"
     stroke="black"
     stroke-opacity="0.31"
     stroke-width="20"
     id="rect13" />
  <rect
     x="111.5"
     y="376.5"
     width="42"
     height="34"
     rx="17"
     stroke="black"
     stroke-opacity="0.31"
     stroke-width="15"
     id="rect15" />
  <path
     style="fill:#f07167;stroke-width:0.844248;fill-opacity:1"
     d="m 165.76626,367.31549 c -13.7027,-3.32378 -25.29108,-13.8588 -29.86658,-27.15178 -7.7359,-22.4747 4.7985,-46.74745 27.88439,-53.99783 5.94376,-1.86671 36.06824,-2.72804 46.46685,-1.32861 21.32632,2.87008 37.11368,20.51474 37.11368,41.47992 0,11.53862 -4.54642,22.11388 -12.99459,30.22623 -5.96321,5.72617 -11.70411,8.91134 -19.28171,10.69792 -6.83719,1.612 -42.75939,1.66601 -49.32204,0.0742 z m 47.17392,-19.10178 c 8.36765,-2.32391 15.0452,-11.43499 15.15924,-20.68381 0.0932,-7.55997 -1.58461,-11.96512 -6.46665,-16.97828 -6.21473,-6.38163 -9.1559,-7.04454 -31.25489,-7.04454 -19.96731,0 -24.02049,0.70505 -29.33845,5.10339 -5.08941,4.20931 -7.58815,9.28628 -8.04064,16.33706 -0.32075,4.99806 -0.0544,6.84393 1.51355,10.4887 2.16259,5.02708 8.42771,11.19157 12.7944,12.58891 3.70091,1.1843 41.48594,1.34043 45.63344,0.18857 z"
     id="path7140" />
  <path
     style="fill:#f07167;fill-opacity:1;stroke-width:0.844248"
     d="m 261.29469,297.00061 c -17.14718,-2.32723 -32.22356,-9.56919 -44.80886,-21.52399 -10.68756,-10.15214 -17.50767,-21.23743 -22.08032,-35.88896 l -2.31559,-7.41952 -0.0116,-37.56902 -0.0116,-37.56903 2.37876,-7.59749 c 8.82499,-28.18597 27.57253,-46.61623 56.41212,-55.457429 6.21417,-1.905045 6.23557,-1.905636 78.54279,-2.171018 68.9404,-0.253025 72.70372,-0.188481 80.37414,1.378484 14.31672,2.924715 27.06665,9.407273 37.4162,19.023863 14.11194,13.11252 21.937,27.39698 25.19313,45.98949 1.77723,10.14804 1.76232,62.7306 -0.0207,72.95519 -5.81538,33.34787 -31.83843,59.37092 -65.1863,65.1863 -6.04712,1.05454 -18.31726,1.23925 -75.28699,1.13337 -37.43435,-0.0696 -69.20217,-0.28118 -70.59518,-0.47024 z m 149.37458,-31.26377 c 14.54735,-5.48904 25.73703,-16.63006 30.98262,-30.84787 1.87756,-5.08902 1.94725,-6.28889 2.22511,-38.30678 0.24747,-28.51566 0.097,-33.78906 -1.09619,-38.41328 -4.37927,-16.97208 -17.68158,-30.446 -35.43125,-35.88832 -4.74286,-1.45423 -9.47476,-1.55316 -74.29381,-1.55316 -76.2004,0 -73.41649,-0.17522 -84.8469,5.3403 -8.83266,4.26203 -18.08005,13.49995 -22.1718,22.14911 -5.09865,10.77756 -5.26625,12.28057 -5.26625,47.22652 v 31.65929 l 2.37492,6.75399 c 5.72689,16.28652 17.87362,27.96695 33.92773,32.6253 4.65841,1.35172 10.83249,1.45677 76.82655,1.30722 l 71.76106,-0.16261 z"
     id="path7660" />
  <path
     style="fill:#f07167;fill-opacity:1;stroke-width:0.844248"
     d="m 122.41593,416.73466 c -7.85331,-2.55978 -14.09605,-8.30991 -16.41701,-15.12154 -4.41388,-12.95403 2.79485,-27.1155 15.76325,-30.9667 5.56132,-1.65153 16.00814,-1.65153 21.56947,0 13.37218,3.97111 20.82379,19.53043 15.20623,31.75133 -2.81783,6.13015 -5.58898,9.20855 -10.93573,12.14822 -4.11365,2.2617 -5.30349,2.49261 -13.78887,2.67597 -5.10769,0.11037 -10.2365,-0.10891 -11.39734,-0.48728 z m 19.01916,-14.61495 c 2.87145,-1.30832 4.61978,-4.77672 4.61978,-9.16486 0,-2.85853 -0.52833,-4.03167 -2.87045,-6.37379 -2.82429,-2.82429 -2.98847,-2.87044 -10.21177,-2.87044 -10.53707,0 -14.16396,2.55643 -14.16396,9.9835 0,3.64603 1.69309,6.67028 4.65527,8.31538 2.44989,1.36058 15.05717,1.4379 17.97113,0.11021 z"
     id="path7699" />
</svg>
