<?xml version="1.0" encoding="UTF-8" standalone="no"?>
<svg
   width="118.92394"
   height="137.12393"
   viewBox="0 0 118.92394 137.12393"
   fill="none"
   version="1.1"
   id="svg1052"
   sodipodi:docname="greyprofileicon.svg"
   inkscape:version="1.1 (c4e8f9e, 2021-05-24)"
   xmlns:inkscape="http://www.inkscape.org/namespaces/inkscape"
   xmlns:sodipodi="http://sodipodi.sourceforge.net/DTD/sodipodi-0.dtd"
   xmlns="http://www.w3.org/2000/svg"
   xmlns:svg="http://www.w3.org/2000/svg">
  <defs
     id="defs1056" />
  <sodipodi:namedview
     id="namedview1054"
     pagecolor="#ffffff"
     bordercolor="#666666"
     borderopacity="1.0"
     inkscape:pageshadow="2"
     inkscape:pageopacity="0.0"
     inkscape:pagecheckerboard="0"
     showgrid="false"
     inkscape:zoom="1.976433"
     inkscape:cx="24.033195"
     inkscape:cy="79.941996"
     inkscape:window-width="1440"
     inkscape:window-height="792"
     inkscape:window-x="0"
     inkscape:window-y="25"
     inkscape:window-maximized="1"
     inkscape:current-layer="svg1052" />
  <path
     d="m 105.11197,105.01197 -22.6,-12.300002 c -2,-1.1 -3.2,-3.2 -3.2,-5.5 v -8.2 c 0.3,-0.4 1,-1.4 2,-2.8 v -0.1 c 0.4,-0.6 0.8,-1.3 1.3,-2.1 l 0.2,-0.3 c 0.4,-0.7 0.8,-1.4 1.2,-2.2 0,0 0,-0.1 0.1,-0.1 0,-0.1 0.1,-0.1 0.1,-0.2 l 0.2,-0.4 c 0,-0.1 0.1,-0.1 0.1,-0.2 0,0 0,-0.1 0.1,-0.1 0.3,-0.5 0.5,-1.1 0.7,-1.5 0,-0.1 0.1,-0.1 0.1,-0.2 0,-0.1 0.1,-0.2 0.1,-0.2 l 0.2,-0.3 c 0,-0.1 0,-0.1 0.1,-0.2 0,0 0,-0.1 0.1,-0.1 0.2,-0.5 0.4,-1 0.7,-1.6 0,-0.1 0.1,-0.2 0.1,-0.3 0,-0.1 0.1,-0.2 0.1,-0.3 0.2,-0.5 0.3,-0.9 0.5,-1.4 0.1,-0.2 0.1,-0.4 0.2,-0.6 l 0.4,-1.2 c 0.1,-0.5 0.3,-1 0.5,-1.7 0.9,-0.8 1.7,-1.7 2.4,-2.9 1,-1.7 1.5,-3.5 1.5,-5.3 v -10.3 c 0,-2.5 -0.9,-4.9 -2.5,-6.8 v -9.2 c 0.2,-1.7 0.7,-10 -5.4,-16.8999995 -5.3,-6 -13.9,-9.1 -25.5,-9.1 -11.6,0 -20.2,3.1 -25.500002,9.1 -3.5,3.9999995 -4.8,8.4999995 -5.3,11.7999995 -0.2,14.5 -0.2,14.5 -0.2,14.5 -1.6,1.9 -2.5,4.3 -2.5,6.8 v 10.1 c 0,1.8 0.5,3.6 1.5,5.3 0.7,1.2 1.5,2.1 2.4,2.9 0.2,0.6 0.3,1.2 0.5,1.7 l 0.4,1.2 c 0.1,0.2 0.1,0.4 0.2,0.6 0.2,0.5 0.3,1 0.5,1.4 0,0.1 0.1,0.2 0.1,0.3 0,0.1 0.1,0.2 0.1,0.3 0.2,0.6 0.5,1.1 0.7,1.6 0,0 0,0.1 0.1,0.1 0,0.1 0,0.1 0.1,0.2 l 0.2,0.3 c 0,0.1 0.1,0.2 0.1,0.2 0,0.1 0.1,0.1 0.1,0.2 0.2,0.5 0.5,1 0.7,1.5 0,0 0,0.1 0.1,0.1 0,0.1 0,0.1 0.1,0.2 l 0.2,0.4 c 0,0.1 0.1,0.1 0.1,0.2 0,0 0,0.1 0.1,0.1 0.4,0.8 0.8,1.6 1.2,2.2 l 0.2,0.3 c 0.4,0.8 0.900002,1.4 1.300002,2.1 v 0.1 c 0.9,1.4 1.6,2.4 2,2.8 v 8.2 c 0,2.3 -1.2,4.4 -3.200002,5.5 l -22.6,12.300002 c -7.4999995,4.1 -12.1999995,11.9 -12.1999995,20.5 v 4.1 7.1 h 6.1 v -6 -5.2 c 0,-6.3 3.4999995,-12.2 8.9999995,-15.2 L 38.11197,98.011968 c 3.9,-2.1 6.4,-6.3 6.4,-10.8 v -10.4 l -0.7,-0.9 -0.1,-0.1 c -0.6,-0.8 -2.7,-3.6 -4.8,-7.6 l -0.1,-0.3 c -0.2,-0.5 -0.5,-1 -0.8,-1.7 l -0.1,-0.3 c -0.1,-0.3 -0.3,-0.6 -0.4,-1 l -0.1,-0.4 c -0.1,-0.3 -0.3,-0.7 -0.4,-1.1 l -0.7,-2.1 -0.2,-0.6 c -0.300002,-0.8 -0.500002,-1.6 -0.600002,-2.4 l -0.3,-1.2 -1,-0.7 c -1.3,-0.9 -2.1,-2.3 -2.1,-3.8 v -10.2 c 0,-1.3 0.5,-2.5 1.5,-3.4 l 1,-0.9 v -13.1 l -0.1,-0.1 c -0.1,-1.8 0.2,-7.2 4.000002,-11.6 4.1,-4.6999995 11.2,-7.0999995 20.9,-7.0999995 9.8,0 16.8,2.4 20.9,6.9999995 4.8,5.4 4,12.3 4,12.4 v 12.4 l 1,0.9 c 1,0.9 1.5,2.1 1.5,3.4 v 10.1 c 0,1.5 -0.8,3 -2.1,3.8 l -1,0.7 -0.3,1.2 -0.6,2.4 -0.2,0.6 -0.7,2.1 c -0.1,0.4 -0.3,0.7 -0.4,1.1 l -0.1,0.4 c -0.1,0.3 -0.3,0.7 -0.4,1 l -0.1,0.3 c -0.3,0.7 -0.6,1.3 -0.8,1.7 l -0.1,0.3 c -2.1,4.1 -4.2,6.9 -4.8,7.6 l -0.1,0.1 -0.7,0.9 v 10.4 c 0,4.5 2.4,8.6 6.4,10.8 l 22.6,12.300002 c 5.6,3 9,8.9 9,15.2 v 5.2 6 h 6.1 v -7.1 -4.1 c -1.3,-8.4 -5.9,-16.2 -13.4,-20.3 z"
     fill="#0785df"
     stroke="#0785df"
     stroke-width="0.8223"
     stroke-miterlimit="10"
     id="path1046"
     inkscape:transform-center-x="-4.5654439"
     inkscape:transform-center-y="0.76090729"
     style="fill:#808080;stroke:#808080;stroke-width:0.823937;stroke-miterlimit:10;stroke-dasharray:none;stroke-opacity:1"
     sodipodi:nodetypes="ccsccccccccccccscccccsccccccsscccscccssccccccscccccccccccccsccccsccsccccsccsccccccsscccccccsssccccscscsssccccccscsccccccsccscccccc" />
</svg>
