<svg width="1024" height="1024" viewBox="0 0 1024 1024" fill="none" xmlns="http://www.w3.org/2000/svg">
<g clip-path="url(#clip0_4295_8354)">
<rect width="1024" height="1024" fill="white"/>
<rect width="2802" height="4276" fill="#F07167"/>
<rect width="2802" height="4276" fill="url(#paint0_linear_4295_8354)" fill-opacity="0.2"/>
<g filter="url(#filter0_d_4295_8354)">
<path d="M733.948 476.533C732.359 464.873 730.046 453.571 727.027 442.254L726.725 441.122C717.063 404.906 699.172 370.752 674.665 342.07C660.226 325.242 644.254 311.004 627.102 299.363C650.155 274.769 673.468 259.929 697.027 255.218C697.027 255.218 686.798 257.431 707.022 253.197C727.247 248.962 664.434 203.756 651.162 214.05C637.891 224.344 601.553 247.036 578.364 274.628C524.827 254.281 464.342 254.398 410.352 274.911C365.702 292.263 327.114 324.002 306.357 360.273C291.345 386.926 287.131 417.201 294.8 442.872C301.864 466.281 319.346 486.178 342.874 497.589C358.095 505.061 374.193 508.804 390.799 509.183C411.291 509.652 432.376 504.884 453.718 494.499C483.004 480.545 512.434 455.721 536.114 425.142C550.379 407.095 562.946 387.51 575.108 369.041C580.819 360.172 586.512 351.679 592.206 343.185C614.873 357.951 634.492 377.522 649.347 400.734C657.916 414.428 665.021 429.213 670.343 444.333C671.602 447.736 673.955 450.414 677.437 451.619C683.711 453.637 689.597 456.396 695.466 459.53C706.179 465.024 715.376 472.734 723.109 481.534C727.849 486.142 734.734 482.55 733.948 476.533ZM533.34 338.84C521.177 357.309 510.127 374.679 497.36 390.885C432.384 473.764 377.115 452.628 366.385 447.508C356.008 442.397 348.259 433.971 345.49 424.909C342.419 414.715 344.82 400.897 351.779 387.932C365.999 363.136 395.023 339.427 427.774 327.053C450.091 318.564 474.338 314.244 498.717 314.801C514.263 315.157 529.723 317.385 544.744 321.478C540.584 327.382 536.776 333.294 533.34 338.84Z" fill="white"/>
</g>
<g filter="url(#filter1_d_4295_8354)">
<path d="M285.469 522.438C287.087 534.084 289.428 545.369 292.476 556.667L292.781 557.796C302.536 593.95 320.519 628.008 345.109 656.569C359.597 673.326 375.613 687.488 392.803 699.049C369.795 723.726 346.503 738.656 322.942 743.464C322.942 743.464 333.172 741.209 312.946 745.526C292.719 749.843 355.678 794.757 368.933 784.413C382.187 774.07 418.492 751.237 441.629 723.564C495.246 743.671 555.766 743.299 609.739 722.569C654.373 705.039 692.907 673.156 713.59 636.819C728.547 610.119 732.69 579.844 724.956 554.22C717.831 530.856 700.292 511.044 676.722 499.739C661.475 492.336 645.358 488.664 628.742 488.355C608.236 487.974 587.15 492.827 565.82 503.297C536.55 517.366 507.163 542.3 483.543 572.961C469.313 591.057 456.785 610.684 444.66 629.194C438.967 638.081 433.291 646.593 427.614 655.106C404.898 640.445 385.22 620.968 370.302 597.834C361.694 584.184 354.549 569.437 349.189 554.349C347.921 550.953 345.56 548.286 342.073 547.097C335.791 545.107 329.894 542.374 324.014 539.267C313.281 533.822 304.06 526.156 296.302 517.393C291.548 512.808 284.668 516.427 285.469 522.438ZM486.525 659.2C498.65 640.69 509.666 623.283 522.401 607.033C587.217 523.929 642.569 544.819 653.318 549.89C663.713 554.954 671.487 563.343 674.279 572.387C677.376 582.562 675.007 596.383 668.075 609.368C653.906 634.21 624.921 658.027 592.181 670.533C569.872 679.111 545.62 683.531 521.226 683.077C505.67 682.788 490.196 680.626 475.156 676.599C479.305 670.681 483.1 664.757 486.525 659.2Z" fill="white"/>
</g>
<ellipse rx="19" ry="18.9977" transform="matrix(0.999878 -0.0156477 -0.0150668 0.999886 635.286 585.27)" fill="white"/>
<ellipse rx="19" ry="18.9977" transform="matrix(0.999878 -0.015648 -0.0150671 0.999886 393.286 400.271)" fill="white"/>
</g>
<defs>
<filter id="filter0_d_4295_8354" x="290.051" y="212.53" width="444.957" height="298.685" filterUnits="userSpaceOnUse" color-interpolation-filters="sRGB">
<feFlood flood-opacity="0" result="BackgroundImageFix"/>
<feColorMatrix in="SourceAlpha" type="matrix" values="0 0 0 0 0 0 0 0 0 0 0 0 0 0 0 0 0 0 127 0" result="hardAlpha"/>
<feOffset dy="1"/>
<feGaussianBlur stdDeviation="0.5"/>
<feComposite in2="hardAlpha" operator="out"/>
<feColorMatrix type="matrix" values="0 0 0 0 0 0 0 0 0 0 0 0 0 0 0 0 0 0 0.25 0"/>
<feBlend mode="normal" in2="BackgroundImageFix" result="effect1_dropShadow_4295_8354"/>
<feBlend mode="normal" in="SourceGraphic" in2="effect1_dropShadow_4295_8354" result="shape"/>
</filter>
<filter id="filter1_d_4295_8354" x="284.406" y="488.334" width="445.363" height="299.621" filterUnits="userSpaceOnUse" color-interpolation-filters="sRGB">
<feFlood flood-opacity="0" result="BackgroundImageFix"/>
<feColorMatrix in="SourceAlpha" type="matrix" values="0 0 0 0 0 0 0 0 0 0 0 0 0 0 0 0 0 0 127 0" result="hardAlpha"/>
<feOffset dy="1"/>
<feGaussianBlur stdDeviation="0.5"/>
<feComposite in2="hardAlpha" operator="out"/>
<feColorMatrix type="matrix" values="0 0 0 0 0 0 0 0 0 0 0 0 0 0 0 0 0 0 0.25 0"/>
<feBlend mode="normal" in2="BackgroundImageFix" result="effect1_dropShadow_4295_8354"/>
<feBlend mode="normal" in="SourceGraphic" in2="effect1_dropShadow_4295_8354" result="shape"/>
</filter>
<linearGradient id="paint0_linear_4295_8354" x1="1401" y1="0" x2="1401" y2="4276" gradientUnits="userSpaceOnUse">
<stop stop-color="#ED726A"/>
<stop offset="0.734375" stop-color="#DC0E0E"/>
</linearGradient>
<clipPath id="clip0_4295_8354">
<rect width="1024" height="1024" fill="white"/>
</clipPath>
</defs>
</svg>
