<svg width="138" height="21" viewBox="0 0 138 21" fill="none" xmlns="http://www.w3.org/2000/svg">
<path d="M2.73 15.2C2.11667 15.2 1.62333 15.0833 1.25 14.85C0.876667 14.6167 0.603333 14.3133 0.43 13.94C0.263333 13.56 0.18 13.1567 0.18 12.73V-1.19209e-06H2.27V11.7C2.27 12.2467 2.30333 12.65 2.37 12.91C2.44333 13.1633 2.58 13.3267 2.78 13.4C2.98667 13.4733 3.29 13.51 3.69 13.51L3.45 15.2H2.73ZM9.42375 15.2C8.37708 15.2 7.48042 14.97 6.73375 14.51C5.99375 14.0433 5.42708 13.4233 5.03375 12.65C4.64708 11.87 4.45375 11.01 4.45375 10.07C4.45375 9.12333 4.64708 8.26 5.03375 7.48C5.42708 6.7 5.99375 6.08 6.73375 5.62C7.48042 5.15333 8.37708 4.92 9.42375 4.92C10.4771 4.92 11.3738 5.15333 12.1138 5.62C12.8604 6.08 13.4271 6.7 13.8138 7.48C14.2071 8.26 14.4037 9.12333 14.4037 10.07C14.4037 11.01 14.2071 11.87 13.8138 12.65C13.4271 13.4233 12.8604 14.0433 12.1138 14.51C11.3738 14.97 10.4771 15.2 9.42375 15.2ZM9.42375 13.41C10.3438 13.41 11.0471 13.11 11.5338 12.51C12.0271 11.91 12.2738 11.0967 12.2738 10.07C12.2738 9.03667 12.0271 8.21667 11.5338 7.61C11.0471 7.00333 10.3438 6.7 9.42375 6.7C8.51708 6.7 7.81708 7.00333 7.32375 7.61C6.83042 8.21667 6.58375 9.03667 6.58375 10.07C6.58375 11.0967 6.83042 11.91 7.32375 12.51C7.81708 13.11 8.51708 13.41 9.42375 13.41ZM18.4356 15.2C17.8623 15.2 17.3523 15.08 16.9056 14.84C16.459 14.5933 16.1056 14.2533 15.8456 13.82C15.5923 13.3867 15.4656 12.8767 15.4656 12.29C15.4656 11.73 15.5923 11.2533 15.8456 10.86C16.099 10.46 16.4356 10.1267 16.8556 9.86C17.2756 9.59333 17.7356 9.38333 18.2356 9.23C18.7423 9.07 19.2556 8.95333 19.7756 8.88C20.2956 8.80667 20.779 8.76667 21.2256 8.76C21.219 7.98 21.0523 7.45333 20.7256 7.18C20.399 6.9 19.9023 6.76 19.2356 6.76C18.8356 6.76 18.4256 6.82 18.0056 6.94C17.5856 7.05333 17.1123 7.27 16.5856 7.59L16.3456 5.89C16.8256 5.59667 17.3623 5.36333 17.9556 5.19C18.549 5.01667 19.1623 4.93 19.7956 4.93C20.589 4.93 21.2456 5.07 21.7656 5.35C22.2856 5.63 22.6756 6.09333 22.9356 6.74C23.1956 7.38667 23.3256 8.25333 23.3256 9.34V11.64C23.3256 12.12 23.3456 12.4967 23.3856 12.77C23.4323 13.0367 23.529 13.2267 23.6756 13.34C23.8223 13.4533 24.0456 13.51 24.3456 13.51H24.5856L24.3256 15.2H23.8656C23.3723 15.2 22.9723 15.1467 22.6656 15.04C22.3656 14.9333 22.1223 14.7833 21.9356 14.59C21.749 14.39 21.5923 14.1533 21.4656 13.88C21.1123 14.28 20.6723 14.6 20.1456 14.84C19.6256 15.08 19.0556 15.2 18.4356 15.2ZM19.0756 13.56C19.449 13.56 19.8323 13.4667 20.2256 13.28C20.6256 13.0933 20.9623 12.8333 21.2356 12.5V10.18C20.489 10.2133 19.8456 10.3033 19.3056 10.45C18.7723 10.59 18.359 10.8033 18.0656 11.09C17.779 11.3767 17.6356 11.7433 17.6356 12.19C17.6356 12.67 17.7623 13.02 18.0156 13.24C18.269 13.4533 18.6223 13.56 19.0756 13.56ZM29.9017 15.2C28.9951 15.2 28.2017 14.97 27.5217 14.51C26.8417 14.0433 26.3117 13.4233 25.9317 12.65C25.5584 11.8767 25.3717 11.02 25.3717 10.08C25.3717 9.16667 25.5484 8.32 25.9017 7.54C26.2617 6.75333 26.7784 6.12333 27.4517 5.65C28.1317 5.17 28.9484 4.93 29.9017 4.93C30.5884 4.93 31.2151 5.06333 31.7817 5.33C32.3484 5.59667 32.8251 6 33.2117 6.54L32.7317 6.91V-1.19209e-06H34.8217V15H32.9117L32.6617 13.08L33.2317 13.49C32.8717 14.0433 32.4084 14.4667 31.8417 14.76C31.2751 15.0533 30.6284 15.2 29.9017 15.2ZM30.2417 13.41C30.7351 13.41 31.1817 13.2867 31.5817 13.04C31.9884 12.7933 32.3084 12.4233 32.5417 11.93C32.7817 11.4367 32.9017 10.82 32.9017 10.08C32.9017 9.37333 32.7817 8.77 32.5417 8.27C32.3084 7.76333 31.9884 7.38 31.5817 7.12C31.1817 6.85333 30.7351 6.72 30.2417 6.72C29.6684 6.72 29.1751 6.86667 28.7617 7.16C28.3551 7.44667 28.0417 7.84333 27.8217 8.35C27.6084 8.85 27.5017 9.42667 27.5017 10.08C27.5017 10.7067 27.6084 11.2733 27.8217 11.78C28.0417 12.28 28.3551 12.6767 28.7617 12.97C29.1751 13.2633 29.6684 13.41 30.2417 13.41ZM37.1822 15V5.12H39.2722V15H37.1822ZM37.1822 3.2V0.999999H39.2722V3.2H37.1822ZM41.6548 15V5.12H43.4448L43.6948 6.99L43.0548 6.49C43.5948 5.93 44.1582 5.53 44.7448 5.29C45.3315 5.05 45.9448 4.93 46.5848 4.93C47.9515 4.93 48.9448 5.35 49.5648 6.19C50.1848 7.02333 50.4948 8.13333 50.4948 9.52V15H48.4048V9.61C48.4048 8.61667 48.2282 7.88667 47.8748 7.42C47.5215 6.95333 46.9248 6.72 46.0848 6.72C45.4648 6.72 44.9182 6.86333 44.4448 7.15C43.9782 7.43 43.6382 7.85 43.4248 8.41L43.7448 7.26V15H41.6548ZM56.7281 20.02C55.8215 20.02 55.0181 19.9067 54.3181 19.68C53.6181 19.4533 53.0681 19.1233 52.6681 18.69C52.2748 18.2633 52.0781 17.74 52.0781 17.12C52.0781 16.6 52.2248 16.1467 52.5181 15.76C52.8115 15.38 53.2215 15.06 53.7481 14.8C53.4548 14.64 53.2248 14.45 53.0581 14.23C52.8981 14.0033 52.8181 13.7533 52.8181 13.48C52.8181 13.1733 52.9081 12.9 53.0881 12.66C53.2748 12.42 53.5515 12.2233 53.9181 12.07C53.3848 11.7233 52.9781 11.2633 52.6981 10.69C52.4181 10.1167 52.2781 9.48667 52.2781 8.8C52.2781 8.08667 52.4348 7.43667 52.7481 6.85C53.0681 6.25667 53.5281 5.78667 54.1281 5.44C54.7348 5.09333 55.4681 4.92 56.3281 4.92C56.7815 4.92 57.2048 4.98333 57.5981 5.11C57.9981 5.23 58.3581 5.4 58.6781 5.62C58.9381 5.47333 59.2648 5.35 59.6581 5.25C60.0581 5.14333 60.5015 5.09 60.9881 5.09C61.0548 5.09 61.1181 5.09 61.1781 5.09C61.2381 5.09 61.2981 5.09 61.3581 5.09L61.1581 6.44C61.0515 6.44 60.9448 6.44 60.8381 6.44C60.7315 6.44 60.6248 6.44 60.5181 6.44C60.4515 6.44 60.3281 6.44667 60.1481 6.46C59.9681 6.47333 59.7948 6.49667 59.6281 6.53C59.8748 6.85 60.0615 7.20333 60.1881 7.59C60.3148 7.97667 60.3781 8.38 60.3781 8.8C60.3781 9.54 60.2181 10.2067 59.8981 10.8C59.5848 11.3933 59.1248 11.8667 58.5181 12.22C57.9181 12.5733 57.1881 12.75 56.3281 12.75C56.1148 12.75 55.9048 12.7367 55.6981 12.71C55.4981 12.6767 55.3048 12.6367 55.1181 12.59C54.8781 12.67 54.7581 12.8133 54.7581 13.02C54.7581 13.18 54.8548 13.3133 55.0481 13.42C55.2415 13.52 55.5481 13.6033 55.9681 13.67L58.2081 14C59.2748 14.16 60.1015 14.4667 60.6881 14.92C61.2815 15.3733 61.5781 16.02 61.5781 16.86C61.5781 17.5333 61.3815 18.1033 60.9881 18.57C60.6015 19.0433 60.0448 19.4033 59.3181 19.65C58.5915 19.8967 57.7281 20.02 56.7281 20.02ZM56.8681 18.3C57.7548 18.3 58.4315 18.1867 58.8981 17.96C59.3648 17.74 59.5981 17.4067 59.5981 16.96C59.5981 16.5867 59.4448 16.3033 59.1381 16.11C58.8315 15.9167 58.3715 15.7667 57.7581 15.66L55.2181 15.26C54.8715 15.4067 54.5715 15.6033 54.3181 15.85C54.0715 16.1033 53.9481 16.41 53.9481 16.77C53.9481 17.2967 54.2081 17.6833 54.7281 17.93C55.2548 18.1767 55.9681 18.3 56.8681 18.3ZM56.3281 11.14C57.0215 11.14 57.5448 10.9267 57.8981 10.5C58.2581 10.0667 58.4381 9.50333 58.4381 8.81C58.4381 8.13 58.2581 7.58 57.8981 7.16C57.5448 6.73333 57.0215 6.52 56.3281 6.52C55.6348 6.52 55.1081 6.73333 54.7481 7.16C54.3948 7.58 54.2181 8.13 54.2181 8.81C54.2181 9.50333 54.3948 10.0667 54.7481 10.5C55.1081 10.9267 55.6348 11.14 56.3281 11.14Z" fill="#F07167"/>
<path d="M67.2408 19.84V5.12H68.9008L69.2908 7.11L68.6908 6.79C69.1174 6.22333 69.6208 5.77333 70.2008 5.44C70.7808 5.1 71.4908 4.93 72.3308 4.93C73.2574 4.93 74.0474 5.16333 74.7008 5.63C75.3541 6.09 75.8508 6.71 76.1908 7.49C76.5308 8.26333 76.7008 9.12333 76.7008 10.07C76.7008 11.01 76.5341 11.87 76.2008 12.65C75.8741 13.4233 75.3874 14.0433 74.7408 14.51C74.0941 14.97 73.2908 15.2 72.3308 15.2C71.5508 15.2 70.8741 15.0633 70.3008 14.79C69.7341 14.51 69.2641 14.0833 68.8908 13.51L69.3308 13.1V19.84H67.2408ZM71.9708 13.41C72.7841 13.41 73.4174 13.11 73.8708 12.51C74.3308 11.91 74.5608 11.0967 74.5608 10.07C74.5608 9.03667 74.3308 8.22 73.8708 7.62C73.4174 7.02 72.7841 6.72 71.9708 6.72C71.4174 6.72 70.9341 6.85 70.5208 7.11C70.1141 7.37 69.7941 7.75 69.5608 8.25C69.3341 8.74333 69.2208 9.35 69.2208 10.07C69.2208 10.8033 69.3341 11.4167 69.5608 11.91C69.7941 12.4033 70.1141 12.7767 70.5208 13.03C70.9341 13.2833 71.4174 13.41 71.9708 13.41ZM78.4903 15V-1.19209e-06H80.5903V6.71L79.9903 6.5C80.4303 6.04667 80.907 5.67333 81.4203 5.38C81.9403 5.08 82.5836 4.93 83.3503 4.93C84.2103 4.93 84.9203 5.12333 85.4803 5.51C86.0403 5.89 86.457 6.42333 86.7303 7.11C87.0036 7.79667 87.1403 8.59333 87.1403 9.5V15H85.0503V9.7C85.0503 8.68 84.8736 7.93 84.5203 7.45C84.167 6.96333 83.6103 6.72 82.8503 6.72C82.2436 6.72 81.7236 6.87333 81.2903 7.18C80.8636 7.48667 80.5103 7.89667 80.2303 8.41L80.5903 7.21V15H78.4903ZM93.8183 15.2C92.7716 15.2 91.8749 14.97 91.1283 14.51C90.3883 14.0433 89.8216 13.4233 89.4283 12.65C89.0416 11.87 88.8483 11.01 88.8483 10.07C88.8483 9.12333 89.0416 8.26 89.4283 7.48C89.8216 6.7 90.3883 6.08 91.1283 5.62C91.8749 5.15333 92.7716 4.92 93.8183 4.92C94.8716 4.92 95.7683 5.15333 96.5083 5.62C97.2549 6.08 97.8216 6.7 98.2083 7.48C98.6016 8.26 98.7983 9.12333 98.7983 10.07C98.7983 11.01 98.6016 11.87 98.2083 12.65C97.8216 13.4233 97.2549 14.0433 96.5083 14.51C95.7683 14.97 94.8716 15.2 93.8183 15.2ZM93.8183 13.41C94.7383 13.41 95.4416 13.11 95.9283 12.51C96.4216 11.91 96.6683 11.0967 96.6683 10.07C96.6683 9.03667 96.4216 8.21667 95.9283 7.61C95.4416 7.00333 94.7383 6.7 93.8183 6.7C92.9116 6.7 92.2116 7.00333 91.7183 7.61C91.2249 8.21667 90.9783 9.03667 90.9783 10.07C90.9783 11.0967 91.2249 11.91 91.7183 12.51C92.2116 13.11 92.9116 13.41 93.8183 13.41ZM103.793 15.2C103.173 15.2 102.67 15.08 102.283 14.84C101.903 14.6 101.623 14.2933 101.443 13.92C101.27 13.5467 101.183 13.1533 101.183 12.74V6.79H99.6134L99.8034 5.12H101.183V2.79L103.273 2.57V5.12H105.693V6.79H103.273V11.68C103.273 12.2533 103.307 12.67 103.373 12.93C103.44 13.1833 103.603 13.3433 103.863 13.41C104.123 13.4767 104.537 13.51 105.103 13.51H105.663L105.483 15.2H103.793ZM111.611 15.2C110.565 15.2 109.668 14.97 108.921 14.51C108.181 14.0433 107.615 13.4233 107.221 12.65C106.835 11.87 106.641 11.01 106.641 10.07C106.641 9.12333 106.835 8.26 107.221 7.48C107.615 6.7 108.181 6.08 108.921 5.62C109.668 5.15333 110.565 4.92 111.611 4.92C112.665 4.92 113.561 5.15333 114.301 5.62C115.048 6.08 115.615 6.7 116.001 7.48C116.395 8.26 116.591 9.12333 116.591 10.07C116.591 11.01 116.395 11.87 116.001 12.65C115.615 13.4233 115.048 14.0433 114.301 14.51C113.561 14.97 112.665 15.2 111.611 15.2ZM111.611 13.41C112.531 13.41 113.235 13.11 113.721 12.51C114.215 11.91 114.461 11.0967 114.461 10.07C114.461 9.03667 114.215 8.21667 113.721 7.61C113.235 7.00333 112.531 6.7 111.611 6.7C110.705 6.7 110.005 7.00333 109.511 7.61C109.018 8.21667 108.771 9.03667 108.771 10.07C108.771 11.0967 109.018 11.91 109.511 12.51C110.005 13.11 110.705 13.41 111.611 13.41ZM121.203 15.2C120.423 15.2 119.756 15.1133 119.203 14.94C118.65 14.7667 118.193 14.5833 117.833 14.39L118.053 12.49C118.393 12.7233 118.823 12.95 119.343 13.17C119.87 13.3833 120.463 13.49 121.123 13.49C121.696 13.49 122.133 13.3967 122.433 13.21C122.74 13.0167 122.893 12.7333 122.893 12.36C122.893 12.0533 122.803 11.8067 122.623 11.62C122.443 11.4267 122.206 11.2667 121.913 11.14C121.62 11.0133 121.31 10.8967 120.983 10.79C120.47 10.6233 119.983 10.43 119.523 10.21C119.07 9.99 118.7 9.69667 118.413 9.33C118.133 8.95667 117.993 8.46333 117.993 7.85C117.993 7.31667 118.126 6.82667 118.393 6.38C118.66 5.93333 119.063 5.58 119.603 5.32C120.15 5.05333 120.843 4.92 121.683 4.92C122.323 4.92 122.866 4.99 123.313 5.13C123.766 5.26333 124.17 5.42333 124.523 5.61L124.303 7.46C123.95 7.18667 123.566 6.96 123.153 6.78C122.746 6.59333 122.27 6.5 121.723 6.5C121.216 6.5 120.813 6.6 120.513 6.8C120.213 6.99333 120.063 7.29 120.063 7.69C120.063 8.11667 120.24 8.42667 120.593 8.62C120.946 8.81333 121.496 9.03667 122.243 9.29C122.583 9.40333 122.916 9.54 123.243 9.7C123.57 9.85333 123.866 10.04 124.133 10.26C124.406 10.48 124.623 10.7533 124.783 11.08C124.943 11.4067 125.023 11.7967 125.023 12.25C125.023 12.77 124.896 13.2533 124.643 13.7C124.396 14.1467 123.993 14.51 123.433 14.79C122.88 15.0633 122.136 15.2 121.203 15.2ZM126.533 15V12.63H128.873V15H126.533ZM130.81 15V12.63H133.15V15H130.81ZM135.087 15V12.63H137.427V15H135.087Z" fill="black"/>
</svg>
