<svg width="3412" height="2988" viewBox="0 0 3412 2988" fill="none" xmlns="http://www.w3.org/2000/svg">
<path d="M1901.77 979.623C1930.95 979.623 1955.15 955.109 1955.15 925.548C1955.15 895.987 1930.95 871.474 1901.77 871.474C1872.59 871.474 1848.39 895.987 1848.39 925.548C1848.39 955.109 1872.59 979.623 1901.77 979.623Z" fill="white"/>
<path d="M1455.71 526.833C1426.53 526.833 1402.33 551.347 1402.33 580.908C1402.33 610.469 1426.53 634.982 1455.71 634.982C1484.89 634.982 1509.09 610.469 1509.09 580.908C1509.09 551.347 1485.6 526.833 1455.71 526.833Z" fill="white"/>
<path d="M1236.46 820.06C1241.5 842.245 1247.95 863.658 1255.81 885.02L1256.6 887.157C1281.77 955.516 1323.14 1018.97 1376.95 1071.16C1408.64 1101.77 1443 1127.23 1479.31 1147.58C1436.89 1197.43 1392.4 1228.6 1345.81 1240.36C1345.81 1240.36 1366.01 1234.93 1326.04 1245.4C1286.07 1255.86 1419.48 1335.32 1444.51 1314.03C1469.55 1292.75 1538.96 1245.01 1581.18 1189.39C1692 1222.23 1813.53 1215 1918.77 1169.4C2005.74 1130.95 2078.24 1065.59 2114.19 993.605C2140.12 940.735 2143.78 882.167 2124.3 833.805C2106.38 789.716 2068.09 753.568 2019 734.399C1987.22 721.826 1954.28 716.51 1920.85 717.704C1879.6 719.177 1837.98 730.763 1796.74 753.158C1740.11 783.317 1684.91 834.346 1642.18 895.752C1616.38 932.024 1594.24 971.051 1572.73 1007.89C1562.66 1025.57 1552.57 1042.52 1542.48 1059.47C1494.58 1033.77 1452.05 998.494 1418.51 955.683C1399.11 930.404 1382.49 902.862 1369.39 874.471C1366.32 868.088 1361.17 863.222 1353.98 861.314C1341.05 858.169 1328.78 853.557 1316.49 848.224C1294.09 838.924 1274.38 825.199 1257.45 809.211C1247.19 800.92 1233.92 808.608 1236.46 820.06ZM1661.46 1061C1682.97 1024.15 1702.42 989.552 1725.5 956.985C1842.91 790.467 1957.33 824.617 1979.71 833.197C2001.37 841.802 2018.28 857.07 2025.28 874.135C2033.07 893.335 2030.45 920.123 2018.52 945.799C1993.88 995.016 1939.32 1043.86 1875.47 1071.39C1831.98 1090.26 1783.93 1101.35 1734.86 1103.1C1703.56 1104.22 1672.14 1101.74 1641.3 1095.62C1648.72 1083.81 1655.44 1072.03 1661.46 1061Z" fill="white"/>
<path d="M2134.77 689.21C2129.95 666.974 2123.72 645.495 2116.07 624.052L2115.31 621.908C2090.83 553.291 2050.1 489.413 1996.83 436.671C1965.45 405.732 1931.35 379.91 1895.24 359.188C1938.16 309.779 1982.97 279.074 2029.68 267.794C2029.68 267.794 2009.42 273.014 2049.49 262.965C2089.57 252.916 1956.97 172.082 1931.72 193.105C1906.47 214.128 1836.58 261.146 1793.8 316.321C1683.32 282.337 1561.72 288.302 1456.03 332.81C1368.68 370.362 1295.52 434.962 1258.84 506.571C1232.37 559.169 1228.12 617.695 1247.12 666.257C1264.59 710.53 1302.51 747.073 1351.41 766.75C1383.05 779.652 1415.94 785.31 1449.38 784.462C1490.65 783.417 1532.38 772.263 1573.84 750.298C1630.78 720.728 1686.49 670.274 1729.84 609.314C1756 573.312 1778.54 534.516 1800.42 497.901C1810.66 480.332 1820.92 463.484 1831.19 446.636C1878.82 472.836 1921 508.55 1954.1 551.706C1973.24 577.185 1989.59 604.898 2002.39 633.423C2005.4 639.838 2010.5 644.757 2017.67 646.739C2030.57 650.018 2042.79 654.757 2055.03 660.217C2077.33 669.749 2096.9 683.678 2113.67 699.841C2123.85 708.238 2137.19 700.688 2134.77 689.21ZM1712.22 443.88C1690.35 480.495 1670.55 514.894 1647.14 547.22C1528.05 712.511 1413.98 677.176 1391.69 668.365C1370.12 659.535 1353.36 644.093 1346.53 626.957C1338.94 607.676 1341.84 580.917 1354.02 555.366C1379.15 506.408 1434.21 458.134 1498.33 431.267C1542.02 412.851 1590.17 402.256 1639.26 401.012C1670.57 400.219 1701.96 403.03 1732.73 409.463C1725.19 421.193 1718.36 432.906 1712.22 443.88Z" fill="white"/>
<path d="M588.9 1563.55C664.8 1563.55 721.15 1586.93 757.95 1633.7C794.75 1679.7 813.15 1744.1 813.15 1826.9V2142H693.55V1831.5C693.55 1774 683.2 1732.22 662.5 1706.15C641.8 1679.32 607.683 1665.9 560.15 1665.9C531.017 1665.9 504.95 1671.27 481.95 1682C458.95 1692.73 440.167 1708.45 425.6 1729.15V2142H306V1573.9H408.35L415.25 1625.65C466.617 1584.25 524.5 1563.55 588.9 1563.55ZM1252.06 2153.5C1186.9 2153.5 1130.93 2140.08 1084.16 2113.25C1038.16 2086.42 1003.28 2050.38 979.514 2005.15C956.514 1959.92 945.014 1909.32 945.014 1853.35C945.014 1800.45 955.747 1752.15 977.214 1708.45C999.447 1663.98 1031.26 1628.72 1072.66 1602.65C1114.83 1576.58 1164.66 1563.55 1222.16 1563.55C1297.3 1563.55 1357.1 1585.78 1401.56 1630.25C1446.03 1673.95 1468.26 1732.6 1468.26 1806.2C1468.26 1826.13 1465.96 1847.6 1461.36 1870.6H1068.06C1075.73 1934.23 1096.81 1980.23 1131.31 2008.6C1166.58 2036.97 1211.05 2051.15 1264.71 2051.15C1325.28 2051.15 1380.86 2038.12 1431.46 2012.05L1442.96 2109.8C1381.63 2138.93 1318 2153.5 1252.06 2153.5ZM1345.21 1788.95C1345.21 1752.92 1334.86 1723.4 1314.16 1700.4C1293.46 1677.4 1262.41 1665.9 1221.01 1665.9C1143.58 1665.9 1094.9 1706.92 1074.96 1788.95H1345.21ZM2255.66 1563.55C2329.26 1563.55 2384.46 1585.02 2421.26 1627.95C2458.06 1670.88 2476.46 1733.37 2476.46 1815.4V2142H2355.71V1820C2355.71 1766.33 2346.13 1727.23 2326.96 1702.7C2307.8 1678.17 2276.75 1665.9 2233.81 1665.9C2144.88 1665.9 2100.41 1716.88 2100.41 1818.85V2142H1979.66V1831.5C1979.66 1771.7 1969.31 1729.15 1948.61 1703.85C1927.91 1678.55 1897.25 1665.9 1856.61 1665.9C1797.58 1665.9 1753.11 1686.6 1723.21 1728V2142H1603.61V1573.9H1701.36L1710.56 1627.95C1762.7 1585.02 1820.58 1563.55 1884.21 1563.55C1965.48 1563.55 2023.75 1596.13 2059.01 1661.3C2100.41 1596.13 2165.96 1563.55 2255.66 1563.55ZM2895.09 2153.5C2836.06 2153.5 2784.69 2140.47 2740.99 2114.4C2698.06 2087.57 2665.09 2051.92 2642.09 2007.45C2619.86 1962.22 2608.74 1912.38 2608.74 1857.95C2608.74 1803.52 2619.86 1754.07 2642.09 1709.6C2665.09 1664.37 2698.06 1628.72 2740.99 1602.65C2784.69 1575.82 2836.06 1562.4 2895.09 1562.4C2953.36 1562.4 3003.96 1575.82 3046.89 1602.65C3090.59 1628.72 3123.94 1664.37 3146.94 1709.6C3169.94 1754.07 3181.44 1803.52 3181.44 1857.95C3181.44 1912.38 3169.94 1962.22 3146.94 2007.45C3123.94 2051.92 3090.59 2087.57 3046.89 2114.4C3003.96 2140.47 2953.36 2153.5 2895.09 2153.5ZM2895.09 2051.15C2947.22 2051.15 2987.47 2033.9 3015.84 1999.4C3044.21 1964.9 3058.39 1917.75 3058.39 1857.95C3058.39 1798.15 3044.21 1751 3015.84 1716.5C2987.47 1682 2947.22 1664.75 2895.09 1664.75C2842.96 1664.75 2802.71 1682 2774.34 1716.5C2745.97 1751 2731.79 1798.15 2731.79 1857.95C2731.79 1917.75 2745.97 1964.9 2774.34 1999.4C2802.71 2033.9 2842.96 2051.15 2895.09 2051.15Z" fill="white"/>
<path d="M624.8 2314H710.4V2334.4H646.6V2370.6H695.8V2391H646.6V2454H624.8V2314ZM765.675 2456C755.408 2456 746.475 2453.73 738.875 2449.2C731.408 2444.53 725.675 2438.33 721.675 2430.6C717.808 2422.73 715.875 2414.07 715.875 2404.6C715.875 2395.13 717.808 2386.53 721.675 2378.8C725.675 2370.93 731.408 2364.73 738.875 2360.2C746.475 2355.53 755.408 2353.2 765.675 2353.2C775.808 2353.2 784.608 2355.53 792.075 2360.2C799.675 2364.73 805.475 2370.93 809.475 2378.8C813.475 2386.53 815.475 2395.13 815.475 2404.6C815.475 2414.07 813.475 2422.73 809.475 2430.6C805.475 2438.33 799.675 2444.53 792.075 2449.2C784.608 2453.73 775.808 2456 765.675 2456ZM765.675 2438.2C774.742 2438.2 781.742 2435.2 786.675 2429.2C791.608 2423.2 794.075 2415 794.075 2404.6C794.075 2394.2 791.608 2386 786.675 2380C781.742 2374 774.742 2371 765.675 2371C756.608 2371 749.608 2374 744.675 2380C739.742 2386 737.275 2394.2 737.275 2404.6C737.275 2415 739.742 2423.2 744.675 2429.2C749.608 2435.2 756.608 2438.2 765.675 2438.2ZM837.398 2355.2H855.798L857.198 2369C865.998 2358.47 875.198 2353.2 884.798 2353.2C886.265 2353.2 887.798 2353.33 889.398 2353.6L887.598 2375.4C885.465 2374.87 883.065 2374.6 880.398 2374.6C875.865 2374.6 871.598 2375.67 867.598 2377.8C863.598 2379.93 860.732 2382.4 858.998 2385.2V2454H837.398V2355.2ZM982.773 2456C970.24 2456 959.04 2453.33 949.173 2448L951.373 2428.8C955.24 2431.6 959.773 2434 964.973 2436C970.173 2437.87 975.84 2438.8 981.973 2438.8C987.707 2438.8 992.107 2437.87 995.173 2436C998.24 2434.13 999.773 2431.33 999.773 2427.6C999.773 2423.47 998.107 2420.33 994.773 2418.2C991.573 2415.93 986.84 2413.8 980.573 2411.8C974.173 2409.67 968.907 2407.6 964.773 2405.6C960.64 2403.47 957.24 2400.53 954.573 2396.8C951.907 2393.07 950.573 2388.27 950.573 2382.4C950.573 2374 953.707 2367.07 959.973 2361.6C966.373 2356 975.573 2353.2 987.573 2353.2C997.973 2353.2 1007.44 2355.53 1015.97 2360.2L1013.77 2378.6C1009.64 2375.53 1005.51 2373.2 1001.37 2371.6C997.373 2369.87 992.907 2369 987.973 2369C982.773 2369 978.707 2370 975.773 2372C972.84 2374 971.373 2376.93 971.373 2380.8C971.373 2383.6 972.107 2385.87 973.573 2387.6C975.04 2389.33 977.173 2390.8 979.973 2392C982.773 2393.2 987.173 2394.87 993.173 2397C1001.71 2399.93 1008.44 2403.53 1013.37 2407.8C1018.44 2412.07 1020.97 2418.33 1020.97 2426.6C1020.97 2435.13 1017.84 2442.2 1011.57 2447.8C1005.44 2453.27 995.84 2456 982.773 2456ZM1075.57 2456C1066.9 2456 1060.37 2453.67 1055.97 2449C1051.7 2444.2 1049.57 2438.33 1049.57 2431.4V2371.8H1033.77L1035.57 2355.2H1049.57V2331.8L1070.37 2329.8V2355.2H1094.57V2371.8H1070.37V2420.8C1070.37 2426.93 1070.7 2431.2 1071.37 2433.6C1072.17 2435.87 1073.7 2437.33 1075.97 2438C1078.23 2438.67 1082.5 2439 1088.77 2439H1094.17L1092.57 2456H1075.57ZM1197.54 2355.2V2454H1178.54L1177.34 2445.4C1170.94 2452.47 1162.54 2456 1152.14 2456C1139.07 2456 1129.34 2452.13 1122.94 2444.4C1116.54 2436.67 1113.34 2425.47 1113.34 2410.8V2355.2H1134.14V2408C1134.14 2418.13 1135.8 2425.67 1139.14 2430.6C1142.6 2435.53 1148.14 2438 1155.74 2438C1160.14 2438 1164.14 2437.2 1167.74 2435.6C1171.34 2433.87 1174.34 2431.4 1176.74 2428.2V2355.2H1197.54ZM1314.16 2304V2454H1294.96L1293.76 2444.6C1286.43 2452.2 1276.83 2456 1264.96 2456C1256.16 2456 1248.3 2453.73 1241.36 2449.2C1234.43 2444.67 1229.03 2438.47 1225.16 2430.6C1221.43 2422.73 1219.56 2414.13 1219.56 2404.8C1219.56 2395.6 1221.36 2387.07 1224.96 2379.2C1228.7 2371.33 1233.96 2365.07 1240.76 2360.4C1247.7 2355.73 1255.76 2353.4 1264.96 2353.4C1276.7 2353.4 1286.16 2356.93 1293.36 2364V2304H1314.16ZM1268.36 2438.2C1276.1 2438.2 1282.43 2435.33 1287.36 2429.6C1292.43 2423.73 1294.96 2415.47 1294.96 2404.8C1294.96 2394.53 1292.43 2386.4 1287.36 2380.4C1282.3 2374.27 1275.96 2371.2 1268.36 2371.2C1259.96 2371.2 1253.3 2374.33 1248.36 2380.6C1243.43 2386.73 1240.96 2394.8 1240.96 2404.8C1240.96 2414.4 1243.43 2422.4 1248.36 2428.8C1253.3 2435.07 1259.96 2438.2 1268.36 2438.2ZM1389.27 2456C1377.93 2456 1368.2 2453.67 1360.07 2449C1352.07 2444.33 1346 2438.07 1341.87 2430.2C1337.87 2422.33 1335.87 2413.53 1335.87 2403.8C1335.87 2394.6 1337.73 2386.2 1341.47 2378.6C1345.33 2370.87 1350.87 2364.73 1358.07 2360.2C1365.4 2355.67 1374.07 2353.4 1384.07 2353.4C1397.13 2353.4 1407.53 2357.27 1415.27 2365C1423 2372.6 1426.87 2382.8 1426.87 2395.6C1426.87 2399.07 1426.47 2402.8 1425.67 2406.8H1357.27C1358.6 2417.87 1362.27 2425.87 1368.27 2430.8C1374.4 2435.73 1382.13 2438.2 1391.47 2438.2C1402 2438.2 1411.67 2435.93 1420.47 2431.4L1422.47 2448.4C1411.8 2453.47 1400.73 2456 1389.27 2456ZM1405.47 2392.6C1405.47 2386.33 1403.67 2381.2 1400.07 2377.2C1396.47 2373.2 1391.07 2371.2 1383.87 2371.2C1370.4 2371.2 1361.93 2378.33 1358.47 2392.6H1405.47ZM1497.61 2353.4C1510.81 2353.4 1520.61 2357.47 1527.01 2365.6C1533.41 2373.6 1536.61 2384.8 1536.61 2399.2V2454H1515.81V2400C1515.81 2390 1514.01 2382.73 1510.41 2378.2C1506.81 2373.53 1500.87 2371.2 1492.61 2371.2C1487.54 2371.2 1483.01 2372.13 1479.01 2374C1475.01 2375.87 1471.74 2378.6 1469.21 2382.2V2454H1448.41V2355.2H1466.21L1467.41 2364.2C1476.34 2357 1486.41 2353.4 1497.61 2353.4ZM1595.37 2456C1586.71 2456 1580.17 2453.67 1575.77 2449C1571.51 2444.2 1569.37 2438.33 1569.37 2431.4V2371.8H1553.57L1555.37 2355.2H1569.37V2331.8L1590.17 2329.8V2355.2H1614.37V2371.8H1590.17V2420.8C1590.17 2426.93 1590.51 2431.2 1591.17 2433.6C1591.97 2435.87 1593.51 2437.33 1595.77 2438C1598.04 2438.67 1602.31 2439 1608.57 2439H1613.97L1612.37 2456H1595.37ZM1662.14 2456C1649.61 2456 1638.41 2453.33 1628.54 2448L1630.74 2428.8C1634.61 2431.6 1639.14 2434 1644.34 2436C1649.54 2437.87 1655.21 2438.8 1661.34 2438.8C1667.07 2438.8 1671.47 2437.87 1674.54 2436C1677.61 2434.13 1679.14 2431.33 1679.14 2427.6C1679.14 2423.47 1677.47 2420.33 1674.14 2418.2C1670.94 2415.93 1666.21 2413.8 1659.94 2411.8C1653.54 2409.67 1648.27 2407.6 1644.14 2405.6C1640.01 2403.47 1636.61 2400.53 1633.94 2396.8C1631.27 2393.07 1629.94 2388.27 1629.94 2382.4C1629.94 2374 1633.07 2367.07 1639.34 2361.6C1645.74 2356 1654.94 2353.2 1666.94 2353.2C1677.34 2353.2 1686.81 2355.53 1695.34 2360.2L1693.14 2378.6C1689.01 2375.53 1684.87 2373.2 1680.74 2371.6C1676.74 2369.87 1672.27 2369 1667.34 2369C1662.14 2369 1658.07 2370 1655.14 2372C1652.21 2374 1650.74 2376.93 1650.74 2380.8C1650.74 2383.6 1651.47 2385.87 1652.94 2387.6C1654.41 2389.33 1656.54 2390.8 1659.34 2392C1662.14 2393.2 1666.54 2394.87 1672.54 2397C1681.07 2399.93 1687.81 2403.53 1692.74 2407.8C1697.81 2412.07 1700.34 2418.33 1700.34 2426.6C1700.34 2435.13 1697.21 2442.2 1690.94 2447.8C1684.81 2453.27 1675.21 2456 1662.14 2456ZM1721.53 2476.6L1729.33 2454H1720.93V2430.2H1744.53V2451.8L1733.13 2476.6H1721.53ZM1868.99 2353.4C1878.05 2353.4 1885.92 2355.73 1892.59 2360.4C1899.39 2365.07 1904.52 2371.33 1907.99 2379.2C1911.59 2386.93 1913.39 2395.4 1913.39 2404.6C1913.39 2414.07 1911.52 2422.73 1907.79 2430.6C1904.05 2438.33 1898.79 2444.53 1891.99 2449.2C1885.32 2453.73 1877.65 2456 1868.99 2456C1862.99 2456 1857.45 2455 1852.39 2453C1847.32 2451 1842.92 2448.13 1839.19 2444.4L1837.99 2454H1818.99V2304H1839.79V2364.8C1843.52 2361.2 1847.85 2358.4 1852.79 2356.4C1857.85 2354.4 1863.25 2353.4 1868.99 2353.4ZM1866.19 2438.2C1874.05 2438.2 1880.32 2435.07 1884.99 2428.8C1889.79 2422.4 1892.19 2414.33 1892.19 2404.6C1892.19 2394.73 1889.85 2386.73 1885.19 2380.6C1880.52 2374.33 1874.19 2371.2 1866.19 2371.2C1857.92 2371.2 1851.25 2374.13 1846.19 2380C1841.25 2385.87 1838.79 2394.07 1838.79 2404.6C1838.79 2415.4 1841.25 2423.73 1846.19 2429.6C1851.12 2435.33 1857.79 2438.2 1866.19 2438.2ZM1963.34 2448.6L1922.14 2355.2H1945.54L1973.94 2424.4L2000.94 2355.2H2024.14L1962.94 2502.4H1940.94L1963.34 2448.6ZM2117.98 2456C2105.44 2456 2094.24 2453.33 2084.38 2448L2086.58 2428.8C2090.44 2431.6 2094.98 2434 2100.18 2436C2105.38 2437.87 2111.04 2438.8 2117.18 2438.8C2122.91 2438.8 2127.31 2437.87 2130.38 2436C2133.44 2434.13 2134.98 2431.33 2134.98 2427.6C2134.98 2423.47 2133.31 2420.33 2129.98 2418.2C2126.78 2415.93 2122.04 2413.8 2115.78 2411.8C2109.38 2409.67 2104.11 2407.6 2099.98 2405.6C2095.84 2403.47 2092.44 2400.53 2089.78 2396.8C2087.11 2393.07 2085.78 2388.27 2085.78 2382.4C2085.78 2374 2088.91 2367.07 2095.18 2361.6C2101.58 2356 2110.78 2353.2 2122.78 2353.2C2133.18 2353.2 2142.64 2355.53 2151.18 2360.2L2148.98 2378.6C2144.84 2375.53 2140.71 2373.2 2136.58 2371.6C2132.58 2369.87 2128.11 2369 2123.18 2369C2117.98 2369 2113.91 2370 2110.98 2372C2108.04 2374 2106.58 2376.93 2106.58 2380.8C2106.58 2383.6 2107.31 2385.87 2108.78 2387.6C2110.24 2389.33 2112.38 2390.8 2115.18 2392C2117.98 2393.2 2122.38 2394.87 2128.38 2397C2136.91 2399.93 2143.64 2403.53 2148.58 2407.8C2153.64 2412.07 2156.18 2418.33 2156.18 2426.6C2156.18 2435.13 2153.04 2442.2 2146.78 2447.8C2140.64 2453.27 2131.04 2456 2117.98 2456ZM2210.77 2456C2202.1 2456 2195.57 2453.67 2191.17 2449C2186.9 2444.2 2184.77 2438.33 2184.77 2431.4V2371.8H2168.97L2170.77 2355.2H2184.77V2331.8L2205.57 2329.8V2355.2H2229.77V2371.8H2205.57V2420.8C2205.57 2426.93 2205.9 2431.2 2206.57 2433.6C2207.37 2435.87 2208.9 2437.33 2211.17 2438C2213.44 2438.67 2217.7 2439 2223.97 2439H2229.37L2227.77 2456H2210.77ZM2332.74 2355.2V2454H2313.74L2312.54 2445.4C2306.14 2452.47 2297.74 2456 2287.34 2456C2274.27 2456 2264.54 2452.13 2258.14 2444.4C2251.74 2436.67 2248.54 2425.47 2248.54 2410.8V2355.2H2269.34V2408C2269.34 2418.13 2271.01 2425.67 2274.34 2430.6C2277.81 2435.53 2283.34 2438 2290.94 2438C2295.34 2438 2299.34 2437.2 2302.94 2435.6C2306.54 2433.87 2309.54 2431.4 2311.94 2428.2V2355.2H2332.74ZM2449.37 2304V2454H2430.17L2428.97 2444.6C2421.63 2452.2 2412.03 2456 2400.17 2456C2391.37 2456 2383.5 2453.73 2376.57 2449.2C2369.63 2444.67 2364.23 2438.47 2360.37 2430.6C2356.63 2422.73 2354.77 2414.13 2354.77 2404.8C2354.77 2395.6 2356.57 2387.07 2360.17 2379.2C2363.9 2371.33 2369.17 2365.07 2375.97 2360.4C2382.9 2355.73 2390.97 2353.4 2400.17 2353.4C2411.9 2353.4 2421.37 2356.93 2428.57 2364V2304H2449.37ZM2403.57 2438.2C2411.3 2438.2 2417.63 2435.33 2422.57 2429.6C2427.63 2423.73 2430.17 2415.47 2430.17 2404.8C2430.17 2394.53 2427.63 2386.4 2422.57 2380.4C2417.5 2374.27 2411.17 2371.2 2403.57 2371.2C2395.17 2371.2 2388.5 2374.33 2383.57 2380.6C2378.63 2386.73 2376.17 2394.8 2376.17 2404.8C2376.17 2414.4 2378.63 2422.4 2383.57 2428.8C2388.5 2435.07 2395.17 2438.2 2403.57 2438.2ZM2524.47 2456C2513.14 2456 2503.4 2453.67 2495.27 2449C2487.27 2444.33 2481.2 2438.07 2477.07 2430.2C2473.07 2422.33 2471.07 2413.53 2471.07 2403.8C2471.07 2394.6 2472.94 2386.2 2476.67 2378.6C2480.54 2370.87 2486.07 2364.73 2493.27 2360.2C2500.6 2355.67 2509.27 2353.4 2519.27 2353.4C2532.34 2353.4 2542.74 2357.27 2550.47 2365C2558.2 2372.6 2562.07 2382.8 2562.07 2395.6C2562.07 2399.07 2561.67 2402.8 2560.87 2406.8H2492.47C2493.8 2417.87 2497.47 2425.87 2503.47 2430.8C2509.6 2435.73 2517.34 2438.2 2526.67 2438.2C2537.2 2438.2 2546.87 2435.93 2555.67 2431.4L2557.67 2448.4C2547 2453.47 2535.94 2456 2524.47 2456ZM2540.67 2392.6C2540.67 2386.33 2538.87 2381.2 2535.27 2377.2C2531.67 2373.2 2526.27 2371.2 2519.07 2371.2C2505.6 2371.2 2497.14 2378.33 2493.67 2392.6H2540.67ZM2632.81 2353.4C2646.01 2353.4 2655.81 2357.47 2662.21 2365.6C2668.61 2373.6 2671.81 2384.8 2671.81 2399.2V2454H2651.01V2400C2651.01 2390 2649.21 2382.73 2645.61 2378.2C2642.01 2373.53 2636.08 2371.2 2627.81 2371.2C2622.74 2371.2 2618.21 2372.13 2614.21 2374C2610.21 2375.87 2606.94 2378.6 2604.41 2382.2V2454H2583.61V2355.2H2601.41L2602.61 2364.2C2611.54 2357 2621.61 2353.4 2632.81 2353.4ZM2730.58 2456C2721.91 2456 2715.38 2453.67 2710.98 2449C2706.71 2444.2 2704.58 2438.33 2704.58 2431.4V2371.8H2688.78L2690.58 2355.2H2704.58V2331.8L2725.38 2329.8V2355.2H2749.58V2371.8H2725.38V2420.8C2725.38 2426.93 2725.71 2431.2 2726.38 2433.6C2727.18 2435.87 2728.71 2437.33 2730.98 2438C2733.24 2438.67 2737.51 2439 2743.78 2439H2749.18L2747.58 2456H2730.58ZM2797.34 2456C2784.81 2456 2773.61 2453.33 2763.74 2448L2765.94 2428.8C2769.81 2431.6 2774.34 2434 2779.54 2436C2784.74 2437.87 2790.41 2438.8 2796.54 2438.8C2802.28 2438.8 2806.68 2437.87 2809.74 2436C2812.81 2434.13 2814.34 2431.33 2814.34 2427.6C2814.34 2423.47 2812.68 2420.33 2809.34 2418.2C2806.14 2415.93 2801.41 2413.8 2795.14 2411.8C2788.74 2409.67 2783.48 2407.6 2779.34 2405.6C2775.21 2403.47 2771.81 2400.53 2769.14 2396.8C2766.48 2393.07 2765.14 2388.27 2765.14 2382.4C2765.14 2374 2768.28 2367.07 2774.54 2361.6C2780.94 2356 2790.14 2353.2 2802.14 2353.2C2812.54 2353.2 2822.01 2355.53 2830.54 2360.2L2828.34 2378.6C2824.21 2375.53 2820.08 2373.2 2815.94 2371.6C2811.94 2369.87 2807.48 2369 2802.54 2369C2797.34 2369 2793.28 2370 2790.34 2372C2787.41 2374 2785.94 2376.93 2785.94 2380.8C2785.94 2383.6 2786.68 2385.87 2788.14 2387.6C2789.61 2389.33 2791.74 2390.8 2794.54 2392C2797.34 2393.2 2801.74 2394.87 2807.74 2397C2816.28 2399.93 2823.01 2403.53 2827.94 2407.8C2833.01 2412.07 2835.54 2418.33 2835.54 2426.6C2835.54 2435.13 2832.41 2442.2 2826.14 2447.8C2820.01 2453.27 2810.41 2456 2797.34 2456Z" fill="white"/>
</svg>
