<?xml version="1.0" encoding="UTF-8" standalone="no"?>
<!-- Generator: Adobe Illustrator 24.1.0, SVG Export Plug-In . SVG Version: 6.00 Build 0)  -->

<svg
   version="1.1"
   id="Layer_1"
   x="0px"
   y="0px"
   viewBox="0 0 650.10034 650.10034"
   xml:space="preserve"
   sodipodi:docname="nemo_load.svg"
   width="650.10034"
   height="650.10034"
   inkscape:version="1.1 (c4e8f9e, 2021-05-24)"
   xmlns:inkscape="http://www.inkscape.org/namespaces/inkscape"
   xmlns:sodipodi="http://sodipodi.sourceforge.net/DTD/sodipodi-0.dtd"
   xmlns="http://www.w3.org/2000/svg"
   xmlns:svg="http://www.w3.org/2000/svg"><defs
   id="defs429" /><sodipodi:namedview
   id="namedview427"
   pagecolor="#ffffff"
   bordercolor="#666666"
   borderopacity="1.0"
   inkscape:pageshadow="2"
   inkscape:pageopacity="0.0"
   inkscape:pagecheckerboard="0"
   showgrid="false"
   inkscape:zoom="0.53518519"
   inkscape:cx="367.16263"
   inkscape:cy="312.04152"
   inkscape:window-width="1296"
   inkscape:window-height="806"
   inkscape:window-x="0"
   inkscape:window-y="23"
   inkscape:window-maximized="0"
   inkscape:current-layer="Layer_1" />
<style
   type="text/css"
   id="style2">
	.st0{fill:#1AAFB8;}
	.st1{fill:#FDFCDE;}
	.st2{fill:#FDD9B9;}
	.st3{fill:#ED726A;}
	.st4{fill-rule:evenodd;clip-rule:evenodd;fill:#FFFFFF;stroke:#0785DF;stroke-miterlimit:10;}
	.st5{fill-rule:evenodd;clip-rule:evenodd;fill:#FFFFFF;stroke:#ED726A;stroke-miterlimit:10;}
	.st6{fill-rule:evenodd;clip-rule:evenodd;fill:#FFFFFF;stroke:#1AAFB8;stroke-miterlimit:10;}
	.st7{fill:none;stroke:#0785DF;stroke-width:6.7816;stroke-miterlimit:10;}
	.st8{fill:#0785DF;}
	.st9{fill:none;stroke:#0785DF;stroke-width:6.3446;stroke-miterlimit:10;}
	.st10{fill:#0785DF;stroke:#0785DF;stroke-width:2.448;stroke-miterlimit:10;}
	.st11{fill:none;stroke:#0785DF;stroke-width:6.25;stroke-miterlimit:10;}
	.st12{fill:none;stroke:#1AAFB8;stroke-width:6.3328;stroke-miterlimit:10;}
	.st13{fill:none;stroke:#1AAFB8;stroke-width:6.7816;stroke-miterlimit:10;}
	.st14{fill:none;stroke:#1AAFB8;stroke-width:7;stroke-miterlimit:10;}
	.st15{fill:none;stroke:#ED726A;stroke-width:6;stroke-miterlimit:10;}
	.st16{fill:none;stroke:#0785DF;stroke-width:6;stroke-miterlimit:10;}
	.st17{fill:none;stroke:#1AAFB8;stroke-width:6.6637;stroke-miterlimit:10;}
	.st18{fill:none;stroke:#ED726A;stroke-width:6.4437;stroke-miterlimit:10;}
	.st19{fill:none;stroke:#0785DF;stroke-width:5.2549;stroke-miterlimit:10;}
	.st20{fill:none;stroke:#0785DF;stroke-width:5;stroke-miterlimit:10;}
	.st21{fill:none;stroke:#0785DF;stroke-width:5.072;stroke-miterlimit:10;}
	.st22{fill:none;stroke:#ED726A;stroke-width:7;stroke-miterlimit:10;}
	.st23{fill:none;stroke:#ED726A;stroke-width:6.5513;stroke-miterlimit:10;}
	.st24{fill:none;stroke:#ED726A;stroke-width:6.3434;stroke-miterlimit:10;}
	.st25{fill-rule:evenodd;clip-rule:evenodd;fill:none;stroke:#1AAFB8;stroke-width:6.4563;stroke-miterlimit:10;}
	.st26{fill:none;stroke:#ED726A;stroke-width:8;stroke-miterlimit:10;}
	.st27{fill:#FFFFFF;}
</style>


<g
   id="g424"
   transform="matrix(3.0810443,0,0,3.0810443,-2632.7524,-767.48815)">
	<g
   id="g308">
		<circle
   class="st3"
   cx="960"
   cy="354.60001"
   r="105.5"
   id="circle296" />
		<g
   id="g306">
			<path
   class="st27"
   d="m 990.7,386.6 c 4.1,0 7.5,-3.4 7.5,-7.5 0,-4.1 -3.4,-7.5 -7.5,-7.5 -4.1,0 -7.5,3.4 -7.5,7.5 0,4.1 3.4,7.5 7.5,7.5 z"
   id="path298" />
			<path
   class="st27"
   d="m 930.5,322.4 c -4.1,0 -7.5,3.4 -7.5,7.5 0,4.1 3.4,7.5 7.5,7.5 4.1,0 7.5,-3.4 7.5,-7.5 0,-4.1 -3.3,-7.5 -7.5,-7.5 z"
   id="path300" />
			<path
   class="st27"
   d="m 1019.2,367.9 c -2.3,-6.2 -7.5,-11.4 -14.3,-14.3 -9.9,-4.2 -20.7,-3.7 -31.3,1.5 -8.1,3.9 -16.1,10.7 -22.4,19 -3.8,4.9 -7.1,10.2 -10.3,15.2 -1.5,2.4 -3,4.7 -4.5,7 -5,-2.8 -9.4,-6.4 -13.3,-10.6 C 919,381 915.5,375.6 913,370 c -0.4,-0.9 -1.2,-1.6 -2.1,-1.9 -1.4,-0.4 -2.8,-0.9 -4.1,-1.5 -3.7,-1.6 -6.9,-3.8 -9.4,-6.5 -1.1,-1.2 -3.1,-0.2 -2.8,1.4 1.9,10.4 6.3,20 12.9,28.4 5.4,7.3 12.2,13.5 19.9,18.2 -6.2,6.8 -12.7,10.9 -19.4,12.4 l -1.4,0.3 c 4.6,3.9 9.7,7.4 15.1,10.3 6.9,-3.5 13.5,-9 19.6,-16.5 15.4,5.1 32.5,4.7 47.5,-1.1 12.4,-4.9 22.9,-13.6 28.3,-23.4 3.9,-7.3 4.7,-15.4 2.1,-22.2 z m -15.1,15.1 c -3.7,6.7 -11.6,13.2 -20.7,16.7 -10.2,4 -22.1,4.7 -33,2.1 1,-1.6 2,-3.1 3,-4.6 3.2,-5 6.1,-9.7 9.5,-14.1 17.3,-22.5 33.2,-17.2 36.3,-15.9 3,1.3 5.3,3.5 6.2,5.9 1.1,2.8 0.6,6.5 -1.3,9.9 z"
   id="path302" />
			<path
   class="st27"
   d="m 1025.4,347.6 c -0.6,-3.1 -1.4,-6.1 -2.4,-9.1 v 0 l -0.1,-0.3 c -3.2,-9.6 -8.7,-18.6 -16,-26.1 -4.3,-4.4 -9,-8.1 -14,-11.1 6.2,-6.7 12.6,-10.8 19.2,-12.2 l 2.8,-0.6 c -5,-4 -10.5,-7.4 -16.3,-10.1 -7,3.5 -13.6,9.1 -19.8,16.6 -15.4,-5.1 -32.5,-4.7 -47.5,1.1 -12.4,4.9 -22.9,13.6 -28.3,23.4 -3.9,7.2 -4.7,15.3 -2.2,22.1 2.3,6.2 7.5,11.4 14.3,14.3 4.4,1.9 9,2.8 13.7,2.8 5.8,0 11.7,-1.4 17.6,-4.3 8.1,-3.9 16.1,-10.7 22.4,-19 3.8,-4.9 7.1,-10.2 10.3,-15.2 1.5,-2.4 3,-4.7 4.5,-7 6.6,3.8 12.4,8.9 16.9,15 2.6,3.6 4.8,7.5 6.5,11.5 0.4,0.9 1.1,1.6 2.1,1.9 1.8,0.5 3.5,1.2 5.2,2 3.1,1.4 5.8,3.4 8.1,5.7 1.4,1.2 3.3,0.2 3,-1.4 z m -58.5,-35.5 c -3.2,5 -6.1,9.7 -9.5,14.1 -17.3,22.5 -33.2,17.2 -36.3,15.9 -3,-1.3 -5.3,-3.5 -6.2,-5.9 -1,-2.7 -0.5,-6.4 1.3,-9.9 3.7,-6.7 11.6,-13.2 20.7,-16.7 6.2,-2.4 13,-3.7 19.9,-3.7 4.4,0 8.8,0.5 13.1,1.5 -1.1,1.6 -2.1,3.2 -3,4.7 z"
   id="path304" />
		</g>
	</g>
	
	
</g>
</svg>
