<?xml version="1.0" encoding="UTF-8" standalone="no"?>
<svg
   width="406"
   height="538"
   viewBox="0 0 406 538"
   fill="none"
   version="1.1"
   id="svg830"
   sodipodi:docname="profileicon-orange.svg"
   inkscape:version="1.1 (c4e8f9e, 2021-05-24)"
   xmlns:inkscape="http://www.inkscape.org/namespaces/inkscape"
   xmlns:sodipodi="http://sodipodi.sourceforge.net/DTD/sodipodi-0.dtd"
   xmlns="http://www.w3.org/2000/svg"
   xmlns:svg="http://www.w3.org/2000/svg">
  <defs
     id="defs834" />
  <sodipodi:namedview
     id="namedview832"
     pagecolor="#ffffff"
     bordercolor="#666666"
     borderopacity="1.0"
     inkscape:pageshadow="2"
     inkscape:pageopacity="0.0"
     inkscape:pagecheckerboard="0"
     showgrid="false"
     inkscape:zoom="1.0501859"
     inkscape:cx="203.29735"
     inkscape:cy="269"
     inkscape:window-width="1440"
     inkscape:window-height="787"
     inkscape:window-x="0"
     inkscape:window-y="25"
     inkscape:window-maximized="1"
     inkscape:current-layer="svg830" />
  <rect
     width="406"
     height="538"
     fill="white"
     id="rect824" />
  <circle
     cx="209"
     cy="166"
     r="60"
     stroke="black"
     stroke-opacity="0.3"
     stroke-width="30"
     id="circle826" />
  <rect
     x="83"
     y="256"
     width="253"
     height="177"
     rx="65"
     stroke="black"
     stroke-opacity="0.31"
     stroke-width="30"
     id="rect828" />
  <path
     style="fill:#f07167;stroke-width:0.952212"
     d="m 140.39088,447.02315 c -28.35929,-2.52924 -54.350313,-21.68077 -65.611156,-48.34571 -5.7008,-13.49911 -6.226348,-18.22513 -6.161199,-55.40487 0.05546,-31.6528 0.19118,-34.28822 2.133054,-41.42124 2.743787,-10.07867 9.40509,-23.33441 15.454118,-30.7531 9.999435,-12.26358 26.057563,-22.72374 41.606293,-27.10208 7.26119,-2.04467 8.74079,-2.09014 77.68767,-2.38769 60.44698,-0.26086 71.49532,-0.0945 78.92829,1.18818 30.91114,5.33438 55.12735,27.75292 63.79011,59.05469 1.9914,7.19567 2.11064,9.51681 2.15215,41.89734 0.0418,32.62389 -0.0609,34.69358 -2.12754,42.84956 -8.49581,33.52925 -36.45751,57.36632 -70.94045,60.47605 -11.53779,1.0405 -125.14708,0.99807 -136.91134,-0.0511 z m 147.10117,-31.15903 c 16.80586,-6.37006 28.58009,-19.28143 32.41343,-35.54389 2.09674,-8.89514 2.10502,-63.71354 0.0109,-71.75362 -4.61012,-17.69942 -18.36604,-31.63714 -35.80563,-36.27885 -7.56611,-2.01379 -141.68184,-2.01379 -149.24794,0 -17.35229,4.61847 -31.2331,18.7237 -35.843061,36.42254 -1.784592,6.85151 -2.05363,61.95887 -0.341672,69.98531 4.183063,19.61213 19.558063,34.77375 39.392773,38.84606 2.09486,0.4301 35.30327,0.70936 73.79646,0.62057 l 69.98761,-0.16143 5.63718,-2.13669 z"
     id="path990" />
  <path
     style="fill:#f07167;stroke-width:0.952212"
     d="m 196.40655,239.51521 c -29.02324,-5.30554 -52.99267,-28.09885 -59.89458,-56.95573 -2.92469,-12.22816 -2.21897,-27.94787 1.77197,-39.46985 10.87627,-31.40014 38.22837,-51.201134 70.72668,-51.201134 58.88068,0 94.29261,65.019044 62.32571,114.434824 -9.59104,14.82623 -24.1265,25.66789 -41.85314,31.2173 -7.46944,2.33834 -25.27283,3.40116 -33.07664,1.97459 z m 27.51048,-30.6279 c 6.51439,-2.0025 15.48144,-8.12581 20.18989,-13.78703 4.64917,-5.58994 8.56908,-14.56539 9.78291,-22.39995 3.83498,-24.75278 -13.6189,-47.98403 -38.77356,-51.60792 -35.41958,-5.10271 -62.54003,32.13421 -47.04714,64.59665 9.97082,20.89197 32.67307,30.32209 55.8479,23.19825 z"
     id="path1029" />
</svg>
