<?xml version="1.0" encoding="UTF-8" standalone="no"?>
<svg
   width="406"
   height="538"
   viewBox="0 0 406 538"
   fill="none"
   version="1.1"
   id="svg830"
   sodipodi:docname="profileicon.svg"
   inkscape:version="1.1 (c4e8f9e, 2021-05-24)"
   xmlns:inkscape="http://www.inkscape.org/namespaces/inkscape"
   xmlns:sodipodi="http://sodipodi.sourceforge.net/DTD/sodipodi-0.dtd"
   xmlns="http://www.w3.org/2000/svg"
   xmlns:svg="http://www.w3.org/2000/svg">
  <defs
     id="defs834" />
  <sodipodi:namedview
     id="namedview832"
     pagecolor="#ffffff"
     bordercolor="#666666"
     borderopacity="1.0"
     inkscape:pageshadow="2"
     inkscape:pageopacity="0.0"
     inkscape:pagecheckerboard="0"
     showgrid="false"
     inkscape:zoom="1.0501859"
     inkscape:cx="203.29734"
     inkscape:cy="268.99999"
     inkscape:window-width="1440"
     inkscape:window-height="787"
     inkscape:window-x="0"
     inkscape:window-y="25"
     inkscape:window-maximized="1"
     inkscape:current-layer="svg830" />
  <circle
     cx="209"
     cy="156"
     r="60"
     stroke="#000000"
     stroke-opacity="0.3"
     stroke-width="30"
     id="circle826"
     style="stroke-width:48.1398;stroke-miterlimit:4;stroke-dasharray:none" />
  <rect
     x="83"
     y="264"
     width="253"
     height="177"
     rx="65"
     stroke="#000000"
     stroke-opacity="0.31"
     stroke-width="30"
     id="rect828"
     style="stroke-width:48.1398;stroke-miterlimit:4;stroke-dasharray:none" />
  <path
     style="fill:#b0b0b0;fill-opacity:1;stroke-width:45.8394;stroke-miterlimit:4;stroke-dasharray:none"
     d="m 129.50088,462.62684 c -20.28419,-4.32568 -41.263711,-18.13296 -53.405065,-35.14753 -5.424938,-7.60237 -11.281988,-19.98075 -13.936937,-29.45454 -2.045375,-7.29861 -2.135522,-9.19317 -2.152147,-45.23009 -0.01513,-32.78458 0.197016,-38.44704 1.652741,-44.11496 8.289021,-32.2736 32.336855,-56.70817 64.509148,-65.54658 l 8.09332,-2.22341 h 75.22478 75.22478 l 8.09333,2.22341 c 33.54863,9.21652 58.09051,35.18089 64.94266,68.70686 1.68211,8.23014 1.81806,12.26698 1.49147,44.28742 -0.358,35.1004 -0.36894,35.26309 -2.93211,43.60021 -10.00159,32.53184 -35.59086,56.39928 -67.5083,62.96589 -10.61435,2.18377 -149.0164,2.12582 -159.29767,-0.0667 z m 150.16463,-46.1532 c 16.57277,-3.51914 29.49708,-17.25138 32.15058,-34.16038 1.26949,-8.08963 1.25506,-52.051 -0.0196,-59.90736 -2.44153,-15.04737 -12.95979,-27.59746 -27.25015,-32.51407 -5.12397,-1.7629 -8.56458,-1.84759 -75.0596,-1.84759 -66.49502,0 -69.93563,0.0847 -75.05959,1.84759 -14.52274,4.99656 -25.06703,17.78119 -27.27799,33.07374 -1.23728,8.55789 -1.23134,51.44883 0.008,59.34769 2.59146,16.51367 14.79063,29.88677 30.91344,33.88826 6.48144,1.60861 134.1453,1.85396 141.59472,0.27212 z"
     id="path1245" />
  <path
     style="fill:#b0b0b0;fill-opacity:1;stroke-width:45.8394;stroke-miterlimit:4;stroke-dasharray:none"
     d="m 197.67796,238.7766 c -39.88348,-6.22836 -69.08641,-37.88638 -72.05907,-78.11707 -1.13297,-15.33326 3.2886,-33.158 11.6901,-47.1264 25.44224,-42.300519 80.33923,-53.642924 120.7856,-24.955819 23.30845,16.531809 37.46937,48.493569 33.88134,76.471499 -5.43073,42.3466 -39.51546,73.26987 -82.48921,74.8381 -2.09487,0.0765 -7.40881,-0.42319 -11.80876,-1.11031 z m 18.89213,-47.36196 c 9.87691,-1.34617 20.66526,-9.96087 25.66315,-20.49252 2.16415,-4.56034 2.48534,-6.46777 2.48534,-14.75929 0,-8.47837 -0.3,-10.17159 -2.73682,-15.44715 -3.35625,-7.26604 -10.79242,-14.58639 -18.44739,-18.16004 -4.73604,-2.21098 -6.70259,-2.55723 -14.52376,-2.55723 -7.82116,0 -9.78771,0.34625 -14.52375,2.55723 -7.65497,3.57365 -15.09115,10.894 -18.44739,18.16004 -2.43683,5.27556 -2.73682,6.96878 -2.73682,15.44715 0,8.32106 0.31953,10.20374 2.53327,14.92607 3.36015,7.16781 9.04967,13.17314 15.97996,16.86695 5.33744,2.84483 14.3485,4.93077 18.62305,4.311 1.04744,-0.15187 3.80646,-0.53537 6.13116,-0.85221 z"
     id="path1284" />
</svg>
