<?xml version="1.0" encoding="UTF-8" standalone="no"?>
<svg
   width="246.86929"
   height="254.46928"
   viewBox="0 0 246.8693 254.46928"
   fill="none"
   version="1.1"
   id="svg1052"
   sodipodi:docname="reporticon.svg"
   inkscape:version="1.1 (c4e8f9e, 2021-05-24)"
   xmlns:inkscape="http://www.inkscape.org/namespaces/inkscape"
   xmlns:sodipodi="http://sodipodi.sourceforge.net/DTD/sodipodi-0.dtd"
   xmlns="http://www.w3.org/2000/svg"
   xmlns:svg="http://www.w3.org/2000/svg">
  <defs
     id="defs1056" />
  <sodipodi:namedview
     id="namedview1054"
     pagecolor="#ffffff"
     bordercolor="#666666"
     borderopacity="1.0"
     inkscape:pageshadow="2"
     inkscape:pageopacity="0.0"
     inkscape:pagecheckerboard="0"
     showgrid="false"
     inkscape:zoom="0.80700889"
     inkscape:cx="107.18593"
     inkscape:cy="221.18715"
     inkscape:window-width="1296"
     inkscape:window-height="791"
     inkscape:window-x="81"
     inkscape:window-y="25"
     inkscape:window-maximized="0"
     inkscape:current-layer="svg1052" />
  <path
     d="m 123.43465,251.63465 c 66.6,0 120.6,-55.7 120.6,-124.4 0,-68.700004 -54,-124.4000043 -120.6,-124.4000043 -66.600004,0 -120.6000043,55.7000003 -120.6000043,124.4000043 0,68.7 54.0000003,124.4 120.6000043,124.4 z"
     fill="#ffffff"
     stroke="#ed726a"
     stroke-miterlimit="10"
     id="path826"
     style="stroke-width:5.66929;stroke-miterlimit:10;stroke-dasharray:none" />
  <path
     d="m 191.93465,56.634646 -10.9,6.5 c -17.6,10.1 -39.4,7.2 -55.6,-5 -0.6,-0.4 -1.9,-1.6 -1.9,-1.6 0,0 -1.3,1.2 -1.9,1.6 -16.2,12.2 -38.100004,15.1 -55.600004,5 l -10.9,-6.5 c 0,0 0,4.6 0,5.7 v 56.600004 c 0,13.8 2.2,24.8 8.2,37.2 6,12.5 16,23.2 26.8,31.8 l 31.500004,21.6 2,1.3 2,-1.3 31.5,-21.6 c 10.9,-8.6 20.8,-19.4 26.8,-31.8 6,-12.5 8.2,-23.4 8.2,-37.2 V 62.034646 c -0.2,-1.1 -0.2,-5.4 -0.2,-5.4 z m -6.3,62.300004 c 0,26.4 -11.9,46.7 -32.6,63.1 l -29.5,20 -29.500004,-20 c -20.7,-16.4 -32.6,-36.7 -32.6,-63.1 V 67.534646 l 1.4,0.8 c 8.9,5.1 18,7 27.8,7 11.300004,0 23.200004,-4.4 32.900004,-11 18,12.4 41.6,15.1 60.7,4 l 1.4,-0.8 z"
     fill="#ed726a"
     id="path1030" />
  <path
     d="m 101.53165,100.30465 -4.525004,4.526 48.295004,48.295 4.525,-4.526 z"
     fill="#ed726a"
     id="path1032" />
  <path
     d="m 97.049646,148.64965 4.525004,4.525 48.295,-48.295 -4.525,-4.525 z"
     fill="#ed726a"
     id="path1034" />
</svg>
