<?xml version="1.0" encoding="UTF-8" standalone="no"?>
<svg
   width="242.2"
   height="249.8"
   viewBox="0 0 242.2 249.8"
   fill="none"
   version="1.1"
   id="svg1052"
   sodipodi:docname="societiesicon.svg"
   inkscape:version="1.1 (c4e8f9e, 2021-05-24)"
   xmlns:inkscape="http://www.inkscape.org/namespaces/inkscape"
   xmlns:sodipodi="http://sodipodi.sourceforge.net/DTD/sodipodi-0.dtd"
   xmlns="http://www.w3.org/2000/svg"
   xmlns:svg="http://www.w3.org/2000/svg">
  <defs
     id="defs1056" />
  <sodipodi:namedview
     id="namedview1054"
     pagecolor="#ffffff"
     bordercolor="#666666"
     borderopacity="1.0"
     inkscape:pageshadow="2"
     inkscape:pageopacity="0.0"
     inkscape:pagecheckerboard="0"
     showgrid="false"
     inkscape:zoom="0.32574648"
     inkscape:cx="673.83691"
     inkscape:cy="463.55068"
     inkscape:window-width="1440"
     inkscape:window-height="792"
     inkscape:window-x="0"
     inkscape:window-y="25"
     inkscape:window-maximized="1"
     inkscape:current-layer="svg1052" />
  <path
     d="m 121.1,249.3 c 66.6,0 120.6,-55.7 120.6,-124.4 C 241.7,56.2 187.7,0.5 121.1,0.5 54.5,0.5 0.5,56.2 0.5,124.9 c 0,68.7 54,124.4 120.6,124.4 z"
     fill="#ffffff"
     stroke="#0785df"
     stroke-miterlimit="10"
     id="path832" />
  <path
     d="m 184.9,155.7 -22.6,-12.3 c -2,-1.1 -3.2,-3.2 -3.2,-5.5 v -8.2 c 0.3,-0.4 1,-1.4 2,-2.8 v -0.1 c 0.4,-0.6 0.8,-1.3 1.3,-2.1 l 0.2,-0.3 c 0.4,-0.7 0.8,-1.4 1.2,-2.2 0,0 0,-0.1 0.1,-0.1 0,-0.1 0.1,-0.1 0.1,-0.2 l 0.2,-0.4 c 0,-0.1 0.1,-0.1 0.1,-0.2 0,0 0,-0.1 0.1,-0.1 0.3,-0.5 0.5,-1.1 0.7,-1.5 0,-0.1 0.1,-0.1 0.1,-0.2 0,-0.1 0.1,-0.2 0.1,-0.2 l 0.2,-0.3 c 0,-0.1 0,-0.1 0.1,-0.2 0,0 0,-0.1 0.1,-0.1 0.2,-0.5 0.4,-1 0.7,-1.6 0,-0.1 0.1,-0.2 0.1,-0.3 0,-0.1 0.1,-0.2 0.1,-0.3 0.2,-0.5 0.3,-0.9 0.5,-1.4 0.1,-0.2 0.1,-0.4 0.2,-0.6 l 0.4,-1.2 c 0.1,-0.5 0.3,-1 0.5,-1.7 0.9,-0.8 1.7,-1.7 2.4,-2.9 1,-1.7 1.5,-3.5 1.5,-5.3 V 93.1 c 0,-2.5 -0.9,-4.9 -2.5,-6.8 v -9.2 c 0.2,-1.7 0.7,-10 -5.4,-16.9 -5.3,-6 -13.9,-9.1 -25.5,-9.1 -11.6,0 -20.2,3.1 -25.5,9.1 -3.5,4 -4.8,8.5 -5.3,11.8 -4.3,-2.1 -9.3,-3.1 -14.9,-3.1 -26.9,0 -28.3,23 -28.4,23.3 v 7.4 c -1.7,1.9 -2.5,4 -2.5,6.1 v 8.8 c 0,2.8 1.2,5.5 3.4,7.3 2.1,7.7 7,13.6 9.2,15.9 v 6.8 c 0,1.8 -1,3.5 -2.7,4.5 l -16.8,10.6 c -6.6,3.6 -10.7,10.5 -10.7,18.1 v 10.1 h 6 v -6 -1.1 -3 c 0,-5.3 3,-10.2 7.7,-12.9 L 75,154.2 c 3.5,-1.9 5.7,-5.6 5.7,-9.6 v -9.3 l -1,-0.9 C 79.6,134.3 73,128 71.1,119.5 l -0.3,-1.2 -1,-0.7 c -1,-0.7 -1.6,-1.8 -1.6,-3 v -8.8 c 0,-0.8 0.6,-1.7 1.5,-2.6 l 1,-0.9 v -9.8 c 0,-0.7 1.4,-17.4 22.3,-17.4 5.9,0 10.8,1.3 14.7,3.9 v 7.5 c -1.6,1.9 -2.5,4.3 -2.5,6.8 v 10.1 c 0,1.8 0.5,3.6 1.5,5.3 0.7,1.2 1.5,2.1 2.4,2.9 0.2,0.6 0.3,1.2 0.5,1.7 l 0.4,1.2 c 0.1,0.2 0.1,0.4 0.2,0.6 0.2,0.5 0.3,1 0.5,1.4 0,0.1 0.1,0.2 0.1,0.3 0,0.1 0.1,0.2 0.1,0.3 0.2,0.6 0.5,1.1 0.7,1.6 0,0 0,0.1 0.1,0.1 0,0.1 0,0.1 0.1,0.2 l 0.2,0.3 c 0,0.1 0.1,0.2 0.1,0.2 0,0.1 0.1,0.1 0.1,0.2 0.2,0.5 0.5,1 0.7,1.5 0,0 0,0.1 0.1,0.1 0,0.1 0,0.1 0.1,0.2 l 0.2,0.4 c 0,0.1 0.1,0.1 0.1,0.2 0,0 0,0.1 0.1,0.1 0.4,0.8 0.8,1.6 1.2,2.2 l 0.2,0.3 c 0.4,0.8 0.9,1.4 1.3,2.1 v 0.1 c 0.9,1.4 1.6,2.4 2,2.8 v 8.2 c 0,2.3 -1.2,4.4 -3.2,5.5 l -22.6,12.3 c -7.5,4.1 -12.2,11.9 -12.2,20.5 v 4.1 7.1 h 6.1 v -6 -5.2 c 0,-6.3 3.5,-12.2 9,-15.2 l 22.6,-12.3 c 3.9,-2.1 6.4,-6.3 6.4,-10.8 v -10.4 l -0.7,-0.9 -0.1,-0.1 c -0.6,-0.8 -2.7,-3.6 -4.8,-7.6 l -0.1,-0.3 c -0.2,-0.5 -0.5,-1 -0.8,-1.7 l -0.1,-0.3 c -0.1,-0.3 -0.3,-0.6 -0.4,-1 l -0.1,-0.4 c -0.1,-0.3 -0.3,-0.7 -0.4,-1.1 -0.2,-0.6 -0.4,-1.2 -0.7,-2.1 l -0.2,-0.6 c -0.3,-0.8 -0.5,-1.6 -0.6,-2.4 l -0.3,-1.2 -1,-0.7 c -1.3,-0.9 -2.1,-2.3 -2.1,-3.8 V 93.1 c 0,-1.3 0.5,-2.5 1.5,-3.4 l 1,-0.9 V 75.7 l -0.1,-0.1 c -0.1,-1.8 0.2,-7.2 4,-11.6 4.1,-4.7 11.2,-7.1 20.9,-7.1 9.8,0 16.8,2.4 20.9,7 4.8,5.4 4,12.3 4,12.4 v 12.4 l 1,0.9 c 1,0.9 1.5,2.1 1.5,3.4 v 10.1 c 0,1.5 -0.8,3 -2.1,3.8 l -1,0.7 -0.3,1.2 c -0.2,0.8 -0.4,1.6 -0.6,2.4 l -0.2,0.6 c -0.3,0.9 -0.5,1.5 -0.7,2.1 -0.1,0.4 -0.3,0.7 -0.4,1.1 l -0.1,0.4 c -0.1,0.3 -0.3,0.7 -0.4,1 l -0.1,0.3 c -0.3,0.7 -0.6,1.3 -0.8,1.7 l -0.1,0.3 c -2.1,4.1 -4.2,6.9 -4.8,7.6 l -0.1,0.1 -0.7,0.9 v 10.4 c 0,4.5 2.4,8.6 6.4,10.8 l 22.6,12.3 c 5.6,3 9,8.9 9,15.2 v 5.2 6 h 6.1 v -7.1 -4.1 c -1.3,-8.4 -5.9,-16.2 -13.4,-20.3 z"
     fill="#0785df"
     stroke="#0785df"
     stroke-width="0.8223"
     stroke-miterlimit="10"
     id="path1046" />
</svg>
