<svg width="2802" height="4276" viewBox="0 0 2802 4276" fill="none" xmlns="http://www.w3.org/2000/svg">
<rect width="2802" height="4276" fill="white"/>
<rect width="2802" height="4276" fill="#F07167"/>
<rect width="2802" height="4276" fill="url(#paint0_linear_3692_8210)" fill-opacity="0.2"/>
<g filter="url(#filter0_d_3692_8210)">
<path d="M1685.36 1452.75C1683.96 1437.29 1681.55 1422.21 1678.18 1407.05L1677.84 1405.53C1667.04 1356.99 1644.87 1310.3 1613.3 1270.11C1594.7 1246.52 1573.83 1226.17 1551.17 1209.1C1584.29 1179.22 1617.11 1162.18 1649.6 1158.45C1649.6 1158.45 1635.48 1160.29 1663.38 1156.83C1691.29 1153.38 1608.49 1087.51 1589.69 1099.64C1570.88 1111.77 1519.75 1137.76 1486.25 1171.56C1414.48 1139.28 1331.87 1133.13 1256.78 1154.43C1194.65 1172.56 1139.84 1210.19 1109.09 1255.63C1086.82 1289.05 1079.06 1328.34 1087.83 1362.84C1095.93 1394.29 1118.49 1422.23 1149.86 1439.66C1170.16 1451.05 1191.89 1457.64 1214.55 1459.86C1242.5 1462.61 1271.62 1458.55 1301.45 1447.15C1342.37 1431.88 1384.21 1402.37 1418.58 1364.7C1439.25 1342.5 1457.71 1318.11 1475.55 1295.13C1483.94 1284.09 1492.27 1273.53 1500.61 1262.98C1530.59 1284.72 1556.09 1312.45 1574.84 1344.46C1585.63 1363.33 1594.36 1383.47 1600.62 1403.87C1602.12 1408.47 1605.15 1412.23 1609.83 1414.17C1618.26 1417.47 1626.12 1421.71 1633.93 1426.43C1648.2 1434.76 1660.24 1445.83 1670.22 1458.19C1676.39 1464.73 1686.03 1460.73 1685.36 1452.75ZM1420.51 1251.15C1402.67 1274.12 1386.43 1295.76 1367.92 1315.7C1273.69 1417.71 1199.61 1384.21 1185.29 1376.38C1171.46 1368.59 1161.43 1356.72 1158.25 1344.54C1154.73 1330.84 1158.93 1312.96 1169.29 1296.67C1190.35 1265.6 1231.57 1237.51 1277.11 1224.68C1308.15 1215.86 1341.56 1212.72 1374.81 1215.99C1396.02 1218.08 1416.99 1222.61 1437.23 1229.55C1431.16 1236.86 1425.57 1244.23 1420.51 1251.15Z" fill="white"/>
</g>
<g filter="url(#filter1_d_3692_8210)">
<path d="M1076.46 1496.59C1078.2 1512.03 1080.94 1527.04 1084.65 1542.13L1085.02 1543.64C1096.88 1591.93 1120.07 1638.12 1152.52 1677.61C1171.64 1700.78 1192.95 1720.67 1215.97 1737.23C1183.53 1767.83 1151.09 1785.6 1118.69 1790.04C1118.69 1790.04 1132.76 1787.89 1104.94 1791.95C1077.12 1796.02 1161.34 1860.05 1179.88 1847.51C1198.42 1834.97 1248.96 1807.86 1281.71 1773.33C1354.17 1804.02 1436.9 1808.34 1511.51 1785.4C1573.23 1765.91 1627.19 1727.08 1656.93 1680.97C1678.46 1647.07 1685.35 1607.61 1675.83 1573.33C1667.04 1542.05 1643.87 1514.62 1612.12 1497.89C1591.58 1486.95 1569.7 1480.84 1547.01 1479.11C1519 1476.98 1489.98 1481.68 1460.4 1493.74C1419.83 1509.9 1378.65 1540.33 1345.12 1578.75C1324.93 1601.4 1307.01 1626.19 1289.69 1649.55C1281.55 1660.78 1273.44 1671.51 1265.34 1682.25C1234.89 1661.17 1208.79 1634.01 1189.34 1602.42C1178.13 1583.8 1168.96 1563.85 1162.25 1543.6C1160.66 1539.04 1157.54 1535.34 1152.82 1533.5C1144.32 1530.39 1136.37 1526.33 1128.46 1521.78C1114.01 1513.77 1101.72 1502.96 1091.47 1490.83C1085.16 1484.42 1075.61 1488.63 1076.46 1496.59ZM1345.69 1692.32C1363.01 1668.96 1378.78 1646.96 1396.84 1626.61C1488.81 1522.56 1563.61 1554.42 1578.09 1561.93C1592.09 1569.42 1602.38 1581.06 1605.83 1593.17C1609.64 1606.79 1605.85 1624.76 1595.84 1641.27C1575.47 1672.79 1534.88 1701.79 1489.63 1715.62C1458.79 1725.11 1425.46 1728.99 1392.14 1726.46C1370.89 1724.84 1349.83 1720.77 1329.44 1714.28C1335.35 1706.83 1340.78 1699.35 1345.69 1692.32Z" fill="white"/>
</g>
<circle cx="1538" cy="1600" r="25" fill="white"/>
<circle cx="1228" cy="1325" r="25" fill="white"/>
<defs>
<filter id="filter0_d_3692_8210" x="1083.3" y="1098.15" width="603.086" height="365.316" filterUnits="userSpaceOnUse" color-interpolation-filters="sRGB">
<feFlood flood-opacity="0" result="BackgroundImageFix"/>
<feColorMatrix in="SourceAlpha" type="matrix" values="0 0 0 0 0 0 0 0 0 0 0 0 0 0 0 0 0 0 127 0" result="hardAlpha"/>
<feOffset dy="1"/>
<feGaussianBlur stdDeviation="0.5"/>
<feComposite in2="hardAlpha" operator="out"/>
<feColorMatrix type="matrix" values="0 0 0 0 0 0 0 0 0 0 0 0 0 0 0 0 0 0 0.25 0"/>
<feBlend mode="normal" in2="BackgroundImageFix" result="effect1_dropShadow_3692_8210"/>
<feBlend mode="normal" in="SourceGraphic" in2="effect1_dropShadow_3692_8210" result="shape"/>
</filter>
<filter id="filter1_d_3692_8210" x="1075.41" y="1478.62" width="605.605" height="372.521" filterUnits="userSpaceOnUse" color-interpolation-filters="sRGB">
<feFlood flood-opacity="0" result="BackgroundImageFix"/>
<feColorMatrix in="SourceAlpha" type="matrix" values="0 0 0 0 0 0 0 0 0 0 0 0 0 0 0 0 0 0 127 0" result="hardAlpha"/>
<feOffset dy="1"/>
<feGaussianBlur stdDeviation="0.5"/>
<feComposite in2="hardAlpha" operator="out"/>
<feColorMatrix type="matrix" values="0 0 0 0 0 0 0 0 0 0 0 0 0 0 0 0 0 0 0.25 0"/>
<feBlend mode="normal" in2="BackgroundImageFix" result="effect1_dropShadow_3692_8210"/>
<feBlend mode="normal" in="SourceGraphic" in2="effect1_dropShadow_3692_8210" result="shape"/>
</filter>
<linearGradient id="paint0_linear_3692_8210" x1="1401" y1="0" x2="1401" y2="4276" gradientUnits="userSpaceOnUse">
<stop stop-color="#F07167"/>
<stop offset="0.734375" stop-color="#DC0E0E"/>
</linearGradient>
</defs>
</svg>
