<?xml version="1.0" encoding="UTF-8" standalone="no"?>
<svg
   width="246.86929"
   height="254.4693"
   viewBox="0 0 246.8693 254.4693"
   fill="none"
   version="1.1"
   id="svg1052"
   sodipodi:docname="studiesicon.svg"
   inkscape:version="1.1 (c4e8f9e, 2021-05-24)"
   xmlns:inkscape="http://www.inkscape.org/namespaces/inkscape"
   xmlns:sodipodi="http://sodipodi.sourceforge.net/DTD/sodipodi-0.dtd"
   xmlns="http://www.w3.org/2000/svg"
   xmlns:svg="http://www.w3.org/2000/svg">
  <defs
     id="defs1056" />
  <sodipodi:namedview
     id="namedview1054"
     pagecolor="#ffffff"
     bordercolor="#666666"
     borderopacity="1.0"
     inkscape:pageshadow="2"
     inkscape:pageopacity="0.0"
     inkscape:pagecheckerboard="0"
     showgrid="false"
     inkscape:zoom="0.32574648"
     inkscape:cx="489.64458"
     inkscape:cy="408.29298"
     inkscape:window-width="1440"
     inkscape:window-height="792"
     inkscape:window-x="0"
     inkscape:window-y="25"
     inkscape:window-maximized="1"
     inkscape:current-layer="svg1052" />
  <path
     d="m 123.43465,251.63465 c 66.6,0 120.6,-55.7 120.6,-124.4 0,-68.700005 -54,-124.400005 -120.6,-124.400005 -66.600005,0 -120.600005,55.7 -120.600005,124.400005 0,68.7 54,124.4 120.600005,124.4 z"
     fill="#ffffff"
     stroke="#1aafb8"
     stroke-miterlimit="10"
     id="path910"
     style="stroke-width:5.66929;stroke-miterlimit:10;stroke-dasharray:none" />
  <path
     d="m 154.33465,191.83465 -5.9,10.5 5.1,2.8 5.9,-10.5 z"
     fill="#1aafb8"
     id="path1036" />
  <path
     d="m 157.33465,158.93465 c -0.4,0.2 -5.4,2.6 -5.9,2.8 -5.6,2.6 -14.5,5.4 -26.7,5.8 h -5.8 c -36.300005,-1.2 -48.000005,-23.2 -49.700005,-26.8 v -19.6 l -5.8,-2.3 v 22.6 c 0,0.4 0.1,0.7 0.2,1.1 0.5,1.3 13,31.1 58.300005,31.1 14.7,0 25.4,-3.3 32,-6.4 0.5,-0.2 3,-1.5 3.5,-1.8 z"
     fill="#1aafb8"
     id="path1038" />
  <path
     d="m 162.73465,196.53465 v 12.4 h 5.8 v -12.4 z"
     fill="#1aafb8"
     id="path1040" />
  <path
     d="m 168.63465,124.73465 39.1,-16.2 6.5,-2.7 -6.5,-2.7 -84.8,-35.100005 -1.1,-0.4 -1.1,0.4 -84.800005,35.100005 -6.5,2.7 6.5,2.7 85.900005,35.5 35.5,-14.7 -8,-3 -27.5,11.5 -77.100005,-32 77.100005,-31.900005 77.1,31.900005 -33.5,13.9 -32.2,-12 c 0.2,-0.6 0.3,-1.2 0.3,-1.9 0,-4.9 -5.1,-8.800005 -11.7,-8.800005 -6.6,0 -11.7,3.900005 -11.7,8.800005 0,4.9 5.1,8.8 11.7,8.8 2.9,0 5.5,-0.8 7.6,-2.1 l 33.4,12.5 v 49 c -3.4,1.2 -5.8,4.4 -5.8,8.2 0,4.8 3.9,8.8 8.8,8.8 4.8,0 8.8,-3.9 8.8,-8.8 0,-3.8 -2.5,-7 -5.8,-8.2 v -16.6 c 8.4,-6.3 11.4,-14.8 11.5,-15.1 0.1,-0.3 0.2,-0.6 0.2,-1 v -22.6 l -5.8,2.3 v 19.7 c -0.5,1.2 -2.3,5.1 -5.8,8.8 z m -46.8,-15 c -4.8,0 -5.8,-2.6 -5.8,-3.8 0,-1.7 1.1,-4.2 5.8,-4.2 5.3,0 5.8,3 5.8,4.2 0.1,1.1 -1,3.8 -5.8,3.8 z m 43.9,75.4 c -1.6,0 -2.9,-1.3 -2.9,-2.9 0,-1.6 1.3,-2.9 2.9,-2.9 1.6,0 2.9,1.3 2.9,2.9 0,1.6 -1.3,2.9 -2.9,2.9 z"
     fill="#1aafb8"
     id="path1042" />
  <path
     d="m 177.13465,191.83465 -5.1,2.8 5.9,10.5 5.1,-2.8 z"
     fill="#1aafb8"
     id="path1044" />
</svg>
