<svg width="674" height="538" viewBox="0 0 674 538" fill="none" xmlns="http://www.w3.org/2000/svg">
<rect width="674" height="538" fill="white"/>
<path d="M415.5 306C427.8 306 438 295.8 438 283.5C438 271.2 427.8 261 415.5 261C403.2 261 393 271.2 393 283.5C393 295.8 403.2 306 415.5 306Z" fill="#F07167"/>
<path d="M146.064 123.562C144.511 133.577 143.688 143.518 143.485 153.685L143.464 154.701C142.813 187.236 149.948 220.567 164.309 251.418C172.788 269.536 183.277 286 195.465 300.695C168.885 313.855 144.547 318.958 122.56 315.703C122.56 315.703 132.149 316.979 113.225 314.341C94.301 311.702 138.284 367.624 152.607 363.21C166.93 358.795 204.753 351.198 232.213 335.629C274.309 368.421 327.724 386.573 380.575 386.085C424.382 385.364 466.484 371.048 493.997 347.647C514.003 330.377 525.395 306.888 525.133 283.579C524.831 262.303 514.444 240.756 496.569 224.325C485.029 213.622 471.769 205.705 457.209 200.384C439.241 193.819 419.422 191.357 397.953 193.412C368.568 195.988 336.302 207.412 307.651 225.277C290.487 235.733 274.431 247.959 259.015 259.395C251.727 264.925 244.549 270.154 237.372 275.383C221.107 256.468 208.751 234.543 201.523 211.078C197.43 197.293 194.907 183.057 194.042 169.086C193.793 165.923 192.395 163.022 189.627 160.987C184.601 157.443 180.105 153.411 175.719 149.077C167.656 141.352 161.492 132.272 156.898 122.741C153.882 117.543 146.895 118.404 146.064 123.562ZM288.226 296.696C303.642 285.26 317.798 274.388 333.173 264.986C411.528 216.806 454.952 250.766 463.125 258.191C470.989 265.502 475.693 274.731 475.84 282.978C475.966 292.241 470.346 302.819 460.918 311.322C442.083 327.312 410.456 337.945 378.413 338.185C356.565 338.395 334.069 334.612 312.693 326.802C299.062 321.821 285.981 315.335 273.761 307.455C278.929 303.882 283.788 300.195 288.226 296.696Z" fill="#F07167"/>
</svg>
