<?xml version="1.0" encoding="UTF-8" standalone="no"?>
<svg
   width="674"
   height="538"
   viewBox="0 0 674 538"
   fill="none"
   version="1.1"
   id="svg830"
   sodipodi:docname="swipeicon.svg"
   inkscape:version="1.1 (c4e8f9e, 2021-05-24)"
   xmlns:inkscape="http://www.inkscape.org/namespaces/inkscape"
   xmlns:sodipodi="http://sodipodi.sourceforge.net/DTD/sodipodi-0.dtd"
   xmlns="http://www.w3.org/2000/svg"
   xmlns:svg="http://www.w3.org/2000/svg">
  <defs
     id="defs834" />
  <sodipodi:namedview
     id="namedview832"
     pagecolor="#ffffff"
     bordercolor="#666666"
     borderopacity="1.0"
     inkscape:pageshadow="2"
     inkscape:pageopacity="0.0"
     inkscape:pagecheckerboard="0"
     showgrid="false"
     inkscape:zoom="1.0501859"
     inkscape:cx="336.60707"
     inkscape:cy="268.99999"
     inkscape:window-width="1440"
     inkscape:window-height="787"
     inkscape:window-x="0"
     inkscape:window-y="25"
     inkscape:window-maximized="1"
     inkscape:current-layer="svg830" />
  <path
     d="M415.5 306C427.8 306 438 295.8 438 283.5C438 271.2 427.8 261 415.5 261C403.2 261 393 271.2 393 283.5C393 295.8 403.2 306 415.5 306Z"
     fill="#F07167"
     id="path826" />
  <path
     d="M146.064 123.562C144.511 133.577 143.688 143.518 143.485 153.685L143.464 154.701C142.813 187.236 149.948 220.567 164.309 251.418C172.788 269.536 183.277 286 195.465 300.695C168.885 313.855 144.547 318.958 122.56 315.703C122.56 315.703 132.149 316.979 113.225 314.341C94.301 311.702 138.284 367.624 152.607 363.21C166.93 358.795 204.753 351.198 232.213 335.629C274.309 368.421 327.724 386.573 380.575 386.085C424.382 385.364 466.484 371.048 493.997 347.647C514.003 330.377 525.395 306.888 525.133 283.579C524.831 262.303 514.444 240.756 496.569 224.325C485.029 213.622 471.769 205.705 457.209 200.384C439.241 193.819 419.422 191.357 397.953 193.412C368.568 195.988 336.302 207.412 307.651 225.277C290.487 235.733 274.431 247.959 259.015 259.395C251.727 264.925 244.549 270.154 237.372 275.383C221.107 256.468 208.751 234.543 201.523 211.078C197.43 197.293 194.907 183.057 194.042 169.086C193.793 165.923 192.395 163.022 189.627 160.987C184.601 157.443 180.105 153.411 175.719 149.077C167.656 141.352 161.492 132.272 156.898 122.741C153.882 117.543 146.895 118.404 146.064 123.562ZM288.226 296.696C303.642 285.26 317.798 274.388 333.173 264.986C411.528 216.806 454.952 250.766 463.125 258.191C470.989 265.502 475.693 274.731 475.84 282.978C475.966 292.241 470.346 302.819 460.918 311.322C442.083 327.312 410.456 337.945 378.413 338.185C356.565 338.395 334.069 334.612 312.693 326.802C299.062 321.821 285.981 315.335 273.761 307.455C278.929 303.882 283.788 300.195 288.226 296.696Z"
     fill="#F07167"
     id="path828" />
  <path
     style="fill:#b0b0b0;stroke-width:0.952212;fill-opacity:1"
     d="m 356.12743,384.52925 c -43.62389,-5.426 -77.34373,-17.78488 -111.73967,-40.95445 -6.46656,-4.35596 -12.08905,-7.91993 -12.49444,-7.91993 -0.40537,0 -5.1842,2.11368 -10.6196,4.69707 -12.68669,6.02984 -27.89505,11.22175 -51.98485,17.74684 -22.08096,5.98098 -20.90265,6.05261 -31.44332,-1.91155 -15.73408,-11.8881 -33.65128,-38.73359 -27.44187,-41.11637 0.75645,-0.29028 4.50579,-0.0418 8.33186,0.5522 15.57224,2.41754 34.2417,1.00356 50.43872,-3.82013 7.015,-2.08916 24.37958,-9.12041 25.9111,-10.4919 0.45871,-0.41078 -2.17064,-4.74447 -5.843,-9.63043 -23.20924,-30.87908 -38.44708,-68.0894 -43.60225,-106.47529 -2.17856,-16.22171 -1.61099,-50.01489 1.03607,-61.68814 0.64739,-2.85495 4.30211,-4.56297 6.84806,-3.20041 1.038,0.55552 3.98455,4.75613 6.54788,9.3347 5.06178,9.04122 16.76486,22.19602 26.21743,29.4696 6.1375,4.7227 7.04082,6.70843 7.96734,17.51434 2.25014,26.24311 12.52603,55.50991 27.66115,78.7818 5.84135,8.98172 14.47378,20.25265 15.50288,20.24135 0.3477,-0.004 10.48758,-7.33468 22.53306,-16.29079 31.01458,-23.06009 50.60958,-35.84305 68.47895,-44.67281 24.39637,-12.05495 47.12436,-18.685 71.6764,-20.90895 41.32612,-3.74336 82.30492,12.30562 105.67637,41.38721 27.02553,33.62842 24.16869,76.03482 -7.21998,107.17175 -21.02431,20.85571 -56.48301,36.44891 -94.16228,41.4085 -9.76427,1.28524 -40.24245,1.77502 -48.27601,0.77579 z m 39.99292,-47.06645 c 26.2191,-3.19201 52.03502,-13.83125 66.36662,-27.35094 8.8904,-8.38677 13.5352,-17.58345 13.5352,-26.79964 0,-17.82849 -17.25712,-34.19359 -43.77631,-41.51348 -8.64789,-2.38702 -29.33836,-2.87548 -40.41046,-0.95401 -20.60482,3.57578 -45.06045,14.24781 -68.26523,29.78978 -17.91009,11.99572 -49.80633,35.80837 -49.46664,36.93009 0.9213,3.04223 26.88851,15.82221 43.36436,21.34212 24.70153,8.27577 54.40954,11.50751 78.65246,8.55608 z"
     id="path3323" />
  <path
     style="fill:#b0b0b0;fill-opacity:1;stroke-width:0.952212"
     d="m 406.59469,303.37501 c -2.09487,-0.97198 -5.17974,-3.21217 -6.85528,-4.9782 -15.16955,-15.98885 1.11929,-42.32208 22.08999,-35.71164 12.41322,3.91292 18.80667,17.33663 13.80009,28.97473 -2.29766,5.34105 -6.99589,10.11025 -12.03319,12.21497 -4.40608,1.84098 -12.46731,1.60397 -17.00161,-0.49986 z"
     id="path3584" />
  <path
     style="fill:#b0b0b0;fill-opacity:1;stroke-width:0.952212"
     d="m 341.84425,381.86747 c -35.77136,-6.37726 -64.3457,-17.64787 -95.22124,-37.55822 -7.33204,-4.72813 -14.00262,-8.60959 -14.82352,-8.62548 -0.8209,-0.0159 -6.39134,2.16858 -12.37876,4.85439 -18.0934,8.11628 -60.06308,20.92862 -68.99883,21.06371 -3.49614,0.0528 -5.07998,-0.66689 -10.80172,-4.90858 -13.3559,-9.90115 -29.63965,-31.19061 -29.63965,-38.75105 0,-2.69629 0.28746,-2.7222 14.27497,-1.28682 11.49123,1.17923 27.89101,-0.0526 39.224,-2.94613 12.61388,-3.22062 32.20015,-10.95502 32.20015,-12.71549 0,-0.59384 -3.8163,-6.53073 -8.48066,-13.19306 -22.32546,-31.88857 -36.71493,-67.89446 -40.99148,-102.57045 -1.30356,-10.5698 -1.27828,-45.45989 0.0398,-54.94634 1.14469,-8.23843 1.97981,-9.82908 5.16045,-9.82908 1.67482,0 3.4062,1.95738 7.791,8.80796 7.06298,11.03482 15.76748,21.19637 23.91111,27.91362 8.5429,7.04659 9.47538,8.78944 10.69303,19.98583 1.30212,11.97316 5.02315,28.83181 8.69437,39.39117 3.41687,9.82773 12.51228,29.03489 17.43318,36.81435 6.04947,9.56361 16.02543,22.29769 17.46815,22.29769 0.75425,0 10.20848,-6.52057 21.00939,-14.49016 57.69124,-42.56824 88.11145,-58.08211 127.71411,-65.13239 15.05623,-2.6804 39.11289,-2.47339 52.29435,0.44998 36.135,8.014 63.68089,27.94068 77.19573,55.84336 6.02095,12.43084 7.87519,20.23296 7.80736,32.85133 -0.23083,42.94419 -37.15293,78.63292 -97.00286,93.76255 -16.17619,4.08922 -27.43373,5.23749 -50.76891,5.17841 -18.0429,-0.0457 -23.37875,-0.40258 -33.80354,-2.2611 z m 69.0354,-46.49126 c 34.60901,-8.33372 58.77918,-24.95564 64.3991,-44.28749 5.53448,-19.03792 -9.59104,-38.36883 -37.64585,-48.11267 -7.38312,-2.56426 -9.6572,-2.88711 -23.2092,-3.29504 -9.54036,-0.28718 -17.70786,-0.0228 -22.37699,0.72417 -18.23541,2.91753 -45.03653,14.36198 -66.39302,28.35072 -21.16129,13.86088 -51.89263,36.94852 -51.89263,38.98555 0,2.45789 20.88671,13.17423 38.62989,19.81983 21.68521,8.12206 40.07289,10.97114 68.0179,10.53903 17.94345,-0.27746 21.70771,-0.61399 30.4708,-2.7241 z"
     id="path3623" />
  <path
     style="fill:#b0b0b0;fill-opacity:1;stroke-width:0.952212"
     d="m 406.59469,302.65228 c -15.29351,-8.04831 -16.07592,-28.42792 -1.42908,-37.22308 18.01212,-10.81594 38.86869,9.36756 28.78102,27.85222 -1.68697,3.09121 -4.22169,5.84646 -7.22696,7.85575 -4.08632,2.73206 -5.36925,3.09022 -10.94852,3.05656 -3.8481,-0.0232 -7.43707,-0.62608 -9.17646,-1.54145 z"
     id="path3662" />
</svg>
