<?xml version="1.0" encoding="UTF-8" standalone="no"?>
<svg
   width="584"
   height="477"
   viewBox="0 0 584 477"
   fill="none"
   version="1.1"
   id="svg832"
   sodipodi:docname="chatsicon.svg"
   inkscape:version="1.1 (c4e8f9e, 2021-05-24)"
   xmlns:inkscape="http://www.inkscape.org/namespaces/inkscape"
   xmlns:sodipodi="http://sodipodi.sourceforge.net/DTD/sodipodi-0.dtd"
   xmlns="http://www.w3.org/2000/svg"
   xmlns:svg="http://www.w3.org/2000/svg">
  <defs
     id="defs836" />
  <sodipodi:namedview
     id="namedview834"
     pagecolor="#ffffff"
     bordercolor="#666666"
     borderopacity="1.0"
     inkscape:pageshadow="2"
     inkscape:pageopacity="0.0"
     inkscape:pagecheckerboard="0"
     showgrid="false"
     inkscape:zoom="1.1844864"
     inkscape:cx="291.6876"
     inkscape:cy="238.92212"
     inkscape:window-width="1440"
     inkscape:window-height="788"
     inkscape:window-x="0"
     inkscape:window-y="25"
     inkscape:window-maximized="1"
     inkscape:current-layer="svg832" />
  <rect
     x="206"
     y="106"
     width="253"
     height="177"
     rx="65"
     stroke="black"
     stroke-opacity="0.31"
     stroke-width="30"
     id="rect826"
     style="stroke-width:48.13984252;stroke-miterlimit:4;stroke-dasharray:none" />
  <rect
     x="135"
     y="298"
     width="95"
     height="65"
     rx="32.5"
     stroke="#000000"
     stroke-opacity="0.31"
     stroke-width="20"
     id="rect828"
     style="stroke-width:25.6706;stroke-miterlimit:4;stroke-dasharray:none" />
  <rect
     x="99.5"
     y="370.5"
     width="42"
     height="34"
     rx="17"
     stroke="#000000"
     stroke-opacity="0.31"
     stroke-width="15"
     id="rect830"
     style="stroke-width:19.9143;stroke-miterlimit:4;stroke-dasharray:none" />
  <path
     style="fill:#b0b0b0;stroke-width:16.8126;stroke-miterlimit:4;stroke-dasharray:none"
     d="m 252.91558,304.67215 c -22.67639,-4.75901 -42.59987,-18.2516 -55.43509,-37.54174 -8.75557,-13.15882 -13.3861,-26.5442 -14.71058,-42.52357 -1.04078,-12.55675 -1.04078,-47.45871 0,-60.01546 3.13067,-37.77054 27.50961,-67.617864 64.59469,-79.083767 l 7.59823,-2.349208 h 76.82654 c 76.42864,0 76.86251,0.0096 83.76819,1.852993 24.92501,6.653447 45.88983,23.357852 57.01042,45.424882 4.39221,8.71564 7.13337,16.81527 8.68046,25.64908 1.78383,10.18566 1.77016,66.90688 -0.0186,77.16435 -5.50734,31.58142 -28.44676,58.25078 -59.10596,68.71656 -12.95234,4.42139 -14.56575,4.50034 -90.65616,4.43573 -66.95837,-0.0568 -71.00508,-0.14597 -78.55214,-1.72985 z m 151.4791,-46.6374 c 14.33718,-3.83553 25.78513,-15.35268 29.52234,-29.70081 1.80057,-6.91288 1.87573,-61.01819 0.0941,-67.7108 -3.72134,-13.97867 -13.91531,-24.79181 -27.25705,-28.91266 -5.31053,-1.64025 -7.75654,-1.69599 -73.99827,-1.6863 -54.50632,0.008 -69.36885,0.2408 -72.72744,1.1393 -11.50316,3.07736 -21.12408,11.17803 -26.40091,22.22918 l -3.14776,6.59229 -0.24915,32.4378 c -0.23509,30.60632 -0.15218,32.75706 1.4684,38.09248 4.02551,13.25312 14.85598,23.79295 28.11893,27.36435 6.3767,1.71709 138.20949,1.85858 144.57686,0.15517 z"
     id="path947" />
  <path
     style="fill:#b0b0b0;stroke-width:16.8126;stroke-miterlimit:4;stroke-dasharray:none"
     d="m 160.24001,374.80285 c -7.14156,-1.26049 -12.08579,-3.57939 -19.33896,-9.0702 -7.46569,-5.65169 -9.90595,-8.42895 -13.30689,-15.14458 -8.77806,-17.33348 -5.3533,-37.82465 8.65436,-51.78113 6.54301,-6.51911 13.63194,-10.31587 22.89218,-12.26084 5.06615,-1.06407 10.38214,-1.26153 26.59381,-0.9878 19.13345,0.32306 20.5732,0.45995 25.8505,2.45777 7.96475,3.01521 12.37745,5.80938 17.78889,11.26415 14.50237,14.61848 16.9978,37.88885 5.89187,54.94261 -4.07405,6.25594 -11.24399,13.04942 -16.67539,15.79986 -9.09106,4.60366 -11.97693,5.05885 -33.70012,5.3154 -11.14407,0.13162 -22.23668,-0.10925 -24.65025,-0.53524 z m 45.80356,-26.03238 c 4.16295,-1.89088 9.36755,-7.76721 10.50463,-11.86044 2.90952,-10.47351 -1.81313,-21.02014 -11.15781,-24.91769 -4.27995,-1.78511 -41.4593,-1.92418 -45.64362,-0.17073 -15.67688,6.56945 -16.42063,29.39273 -1.18893,36.4845 4.24489,1.97639 5.00266,2.0399 24.2218,2.02993 17.45739,-0.009 20.251,-0.19706 23.26393,-1.56557 z"
     id="path986" />
  <path
     style="fill:#b0b0b0;stroke-width:16.8126;stroke-miterlimit:4;stroke-dasharray:none"
     d="m 105.53097,411.27984 c -9.748112,-4.61906 -15.167504,-13.12045 -15.152769,-23.77011 0.01157,-8.36436 2.381953,-13.77176 8.480084,-19.34511 6.003205,-5.48659 10.202215,-6.82658 21.391925,-6.82658 10.67946,0 12.8652,0.5472 18.28211,4.57691 6.72149,5.0002 8.66612,7.23861 10.46461,12.0455 3.67948,9.8343 1.36536,20.78002 -5.93714,28.08252 -5.96235,5.96236 -11.00953,7.63861 -22.99722,7.63777 -8.65039,-6.1e-4 -9.90262,-0.2075 -14.5316,-2.4009 z m 24.126,-18.63969 c 1.68428,-1.68427 2.46781,-3.31318 2.46781,-5.13042 0,-1.81725 -0.78353,-3.44616 -2.46781,-5.13043 -2.26586,-2.26586 -2.96013,-2.4678 -8.4844,-2.4678 -9.01311,0 -11.84248,1.89414 -11.84248,7.92804 0,5.26576 3.1292,7.20728 11.67334,7.24274 5.72752,0.0238 6.36855,-0.15713 8.65354,-2.44213 z"
     id="path1025" />
</svg>
